{"glyphs":{"0":{"ha":1126,"x_min":85,"x_max":1040,"o":"m 567 -26 q 317 47 425 -26 q 147 272 208 121 q 85 656 85 424 q 101 866 85 771 q 147 1037 117 961 q 221 1168 178 1113 q 317 1260 264 1224 q 434 1316 371 1297 q 567 1335 497 1335 q 811 1261 704 1335 q 979 1037 918 1188 q 1040 656 1040 886 q 1025 444 1040 539 q 979 273 1010 349 q 906 141 949 197 q 811 48 864 85 q 697 -8 758 11 q 567 -26 635 -26 m 563 92 q 660 107 614 92 q 744 153 706 122 q 815 232 783 185 q 867 342 846 279 q 899 483 888 404 q 910 656 910 561 q 867 969 910 844 q 745 1155 824 1093 q 563 1217 667 1217 q 465 1201 511 1217 q 381 1156 419 1186 q 312 1078 343 1125 q 259 969 281 1032 q 226 828 238 907 q 215 656 215 750 q 259 342 215 467 q 381 154 303 217 q 563 92 460 92 z "},"1":{"ha":664,"x_min":7,"x_max":418,"o":"m 358 -19 q 311 -9 325 -19 q 297 19 297 1 l 297 1163 q 231 1107 265 1135 q 162 1056 196 1079 q 97 1013 128 1032 q 60 1001 78 1001 q 24 1028 43 1001 q 10 1071 7 1054 q 42 1107 13 1088 q 121 1162 83 1135 q 198 1222 158 1189 q 285 1304 238 1256 q 307 1323 297 1317 q 329 1332 317 1329 q 363 1335 342 1335 q 407 1323 396 1335 q 418 1297 418 1311 l 418 19 q 404 -9 418 1 q 358 -19 390 -19 z "},"2":{"ha":978,"x_min":56,"x_max":888,"o":"m 106 0 q 73 15 88 0 q 57 51 58 29 q 75 92 56 72 l 365 383 q 488 509 433 450 q 583 622 542 568 q 656 724 625 675 q 707 819 688 774 q 736 906 726 864 q 746 990 746 949 q 712 1126 746 1076 q 614 1199 678 1176 q 461 1222 550 1222 q 310 1190 376 1222 q 181 1103 243 1158 q 140 1085 157 1085 q 103 1103 124 1085 q 81 1144 78 1126 q 99 1178 85 1161 q 188 1252 132 1215 q 319 1312 244 1289 q 478 1335 393 1335 q 629 1314 558 1335 q 753 1251 700 1293 q 837 1147 807 1210 q 867 997 867 1083 q 856 898 867 949 q 824 794 846 847 q 767 685 801 742 q 687 569 733 629 q 581 444 640 510 q 447 306 521 378 l 254 111 l 849 111 q 878 100 868 111 q 888 60 888 89 q 880 15 888 31 q 849 0 872 0 l 106 0 z "},"3":{"ha":994,"x_min":33,"x_max":901,"o":"m 469 -26 q 321 -3 394 -26 q 178 69 247 21 q 53 190 110 118 q 36 224 39 206 q 57 264 33 242 q 97 284 78 283 q 133 263 115 285 q 236 166 182 206 q 349 106 290 126 q 467 85 407 85 q 592 103 536 85 q 690 157 649 121 q 753 247 732 193 q 775 369 775 300 q 734 514 775 451 q 619 613 693 576 q 444 650 546 650 l 361 650 q 331 665 339 650 q 324 710 324 681 q 333 751 324 740 q 361 761 343 761 l 450 761 q 572 781 521 761 q 656 835 622 801 q 705 913 689 869 q 721 1001 721 957 q 699 1103 721 1061 q 638 1171 676 1144 q 555 1210 600 1197 q 464 1222 510 1222 q 360 1208 410 1222 q 264 1168 310 1193 q 175 1110 218 1143 q 133 1091 150 1092 q 97 1110 117 1090 q 76 1150 74 1132 q 93 1182 79 1168 q 188 1256 132 1222 q 315 1313 244 1290 q 464 1335 386 1335 q 613 1314 543 1335 q 735 1252 682 1293 q 817 1149 788 1211 q 847 1006 847 1088 q 834 913 847 958 q 794 828 821 867 q 724 758 767 789 q 621 708 681 726 q 779 636 718 688 q 871 515 840 585 q 901 367 901 446 q 873 203 901 275 q 789 79 844 131 q 653 1 733 28 q 469 -26 574 -26 z "},"4":{"ha":1013,"x_min":44,"x_max":983,"o":"m 749 -19 q 703 -10 718 -19 q 688 19 688 0 l 688 344 l 101 344 q 60 367 75 344 q 57 418 44 390 l 461 1294 q 487 1327 472 1318 q 533 1335 501 1336 q 568 1327 554 1333 q 585 1308 582 1321 q 579 1272 589 1294 l 197 456 l 688 456 l 688 892 q 749 929 688 929 q 794 920 779 929 q 810 892 810 911 l 810 456 l 944 456 q 974 444 964 456 q 983 403 983 433 q 976 360 983 375 q 944 344 968 344 l 810 344 l 810 19 q 749 -19 810 -19 z "},"5":{"ha":994,"x_min":74,"x_max":906,"o":"m 482 -26 q 374 -13 426 -26 q 274 27 322 0 q 180 94 225 54 q 93 190 135 135 q 76 224 79 206 q 97 264 74 242 q 137 284 118 283 q 174 263 156 285 q 265 166 219 206 q 364 106 311 126 q 481 85 417 85 q 615 106 560 85 q 708 171 671 128 q 762 275 744 214 q 779 414 779 336 q 760 539 779 481 q 705 640 742 597 q 613 708 668 683 q 486 732 558 732 q 392 719 436 732 q 311 687 347 707 q 249 638 275 667 q 199 608 224 610 q 160 620 175 607 q 146 649 146 633 l 169 1282 q 180 1303 169 1294 q 206 1313 190 1313 l 828 1313 q 856 1301 847 1313 q 865 1260 865 1290 q 858 1216 865 1231 q 828 1201 850 1201 l 278 1201 l 263 767 q 325 805 290 788 q 401 833 360 822 q 489 843 443 843 q 715 788 622 843 q 857 635 808 732 q 906 414 906 539 q 876 226 906 308 q 792 88 847 144 q 658 3 736 32 q 482 -26 581 -26 z "},"6":{"ha":1068,"x_min":118,"x_max":989,"o":"m 563 -26 q 319 43 418 -26 q 169 237 219 113 q 118 528 118 361 q 146 804 118 681 q 226 1022 174 928 q 358 1181 279 1115 q 537 1283 436 1246 q 760 1329 638 1319 q 828 1324 813 1333 q 847 1286 844 1315 q 842 1240 850 1254 q 807 1224 833 1226 q 596 1181 688 1215 q 438 1088 504 1147 q 328 945 371 1028 q 265 758 285 863 q 244 528 244 654 q 269 335 244 418 q 336 196 293 251 q 438 113 379 140 q 563 85 496 85 q 688 108 633 85 q 782 174 743 131 q 841 276 821 217 q 861 411 861 336 q 825 571 861 503 q 723 676 789 639 q 567 713 657 713 q 473 701 518 713 q 388 669 428 690 q 315 618 349 647 q 256 554 281 589 q 214 481 231 519 l 174 549 q 231 659 193 608 q 322 747 269 710 q 437 803 374 783 q 569 824 500 824 q 743 794 665 824 q 876 713 821 765 q 960 584 931 660 q 989 414 989 508 q 959 232 989 314 q 874 93 929 150 q 740 5 818 36 q 563 -26 661 -26 z "},"7":{"ha":807,"x_min":-1,"x_max":785,"o":"m 210 -14 q 171 11 178 -3 q 175 54 164 25 l 633 1201 l 38 1201 q 8 1213 18 1201 q -1 1254 -1 1224 q 6 1297 -1 1282 q 38 1313 14 1313 l 731 1313 q 770 1290 756 1313 q 775 1242 785 1267 l 294 35 q 265 -14 281 0 q 210 -14 250 -28 z "},"8":{"ha":994,"x_min":65,"x_max":931,"o":"m 499 -26 q 317 -2 397 -26 q 181 69 238 22 q 94 188 124 117 q 65 350 65 258 q 82 451 65 400 q 133 551 99 503 q 220 638 168 599 q 344 704 272 676 q 228 783 279 736 q 150 890 178 829 q 122 1025 122 950 q 151 1163 122 1104 q 233 1261 181 1222 q 353 1319 285 1300 q 500 1339 422 1339 q 645 1320 578 1339 q 764 1263 713 1301 q 844 1166 815 1225 q 874 1026 874 1107 q 861 940 874 983 q 823 857 849 897 q 755 782 797 817 q 654 719 713 747 q 799 632 738 686 q 896 508 861 578 q 931 351 931 438 q 901 194 931 263 q 815 75 871 125 q 679 -1 758 25 q 499 -26 600 -26 m 499 86 q 626 103 571 86 q 722 153 682 119 q 781 235 761 186 q 801 351 801 285 q 763 481 801 424 q 653 583 725 539 q 481 654 581 626 q 360 603 414 635 q 269 531 307 571 q 213 446 232 492 q 193 349 193 400 q 213 233 193 282 q 274 151 233 185 q 370 102 314 118 q 499 86 426 86 m 517 765 q 641 824 590 786 q 720 913 692 861 q 749 1026 749 964 q 729 1116 749 1078 q 675 1178 710 1154 q 595 1215 640 1203 q 499 1226 550 1226 q 401 1215 447 1226 q 321 1178 356 1203 q 267 1115 286 1153 q 247 1025 247 1076 q 278 918 247 968 q 368 829 308 868 q 517 765 428 790 z "},"9":{"ha":1068,"x_min":79,"x_max":951,"o":"m 507 1340 q 749 1271 650 1340 q 900 1077 849 1201 q 951 786 951 953 q 924 510 951 633 q 842 292 896 386 q 711 133 789 199 q 533 31 633 68 q 310 -15 432 -6 q 241 -10 257 -19 q 222 28 225 -1 q 228 74 221 60 q 263 90 236 88 q 473 133 381 99 q 632 226 565 167 q 741 369 699 286 q 804 556 783 451 q 825 786 825 660 q 801 979 825 896 q 733 1118 776 1063 q 631 1201 689 1174 q 507 1229 574 1229 q 381 1206 436 1229 q 286 1140 325 1183 q 227 1037 247 1097 q 207 903 207 976 q 243 743 207 811 q 345 638 279 675 q 501 601 411 601 q 596 613 550 601 q 681 645 642 624 q 754 696 721 667 q 813 760 788 725 q 854 833 839 794 l 896 765 q 838 655 876 706 q 748 567 800 604 q 633 510 696 531 q 500 490 569 490 q 326 519 404 490 q 194 601 249 549 q 109 730 139 654 q 79 900 79 806 q 109 1082 79 1000 q 194 1221 139 1164 q 328 1309 250 1278 q 507 1340 407 1340 z "},"\r":{"ha":417,"x_min":0,"x_max":0,"o":""}," ":{"ha":417,"x_min":0,"x_max":0,"o":""}," ":{"ha":139,"x_min":0,"x_max":0,"o":""}," ":{"ha":417,"x_min":0,"x_max":0,"o":""},"O":{"ha":1365,"x_min":121,"x_max":1243,"o":"m 685 -26 q 452 24 556 -26 q 275 166 349 75 q 161 381 201 257 q 121 656 121 506 q 139 843 121 754 q 191 1008 157 932 q 274 1144 225 1085 q 386 1247 324 1204 q 524 1313 449 1290 q 685 1335 600 1335 q 915 1285 813 1335 q 1092 1144 1018 1235 q 1204 928 1165 1053 q 1243 656 1243 804 q 1226 467 1243 556 q 1174 301 1208 378 q 1092 165 1140 225 q 981 62 1043 104 q 844 -3 918 19 q 685 -26 769 -26 m 685 92 q 803 108 747 92 q 908 158 860 125 q 993 240 956 192 q 1058 351 1031 288 q 1099 490 1085 414 q 1113 656 1113 567 q 1081 892 1113 788 q 993 1069 1050 996 q 857 1179 936 1142 q 685 1217 778 1217 q 565 1199 621 1217 q 460 1149 508 1182 q 373 1069 411 1117 q 308 958 335 1021 q 266 820 281 896 q 251 656 251 744 q 283 417 251 522 q 373 240 315 313 q 510 129 431 167 q 685 92 590 92 z "},"S":{"ha":1015,"x_min":104,"x_max":913,"o":"m 481 -26 q 389 -18 439 -26 q 288 9 339 -10 q 192 59 238 28 q 114 135 146 90 q 105 161 104 149 q 125 193 106 174 q 158 216 144 214 q 197 194 171 218 q 272 141 229 164 q 366 105 314 118 q 481 92 418 92 q 615 107 558 92 q 709 154 671 122 q 766 235 747 186 q 785 349 785 283 q 766 442 785 403 q 712 511 747 482 q 627 563 676 540 q 517 604 578 586 q 413 644 465 622 q 312 697 360 665 q 226 771 264 728 q 167 872 189 814 q 146 1006 146 929 q 174 1145 146 1085 q 253 1249 201 1206 q 374 1313 304 1292 q 525 1335 443 1335 q 663 1315 600 1335 q 778 1260 725 1294 q 878 1182 831 1225 q 890 1153 893 1168 q 872 1124 888 1139 q 840 1099 856 1106 q 808 1103 824 1092 q 728 1162 769 1136 q 636 1202 686 1188 q 525 1217 586 1217 q 419 1203 465 1217 q 340 1163 372 1189 q 292 1098 308 1138 q 275 1006 275 1058 q 295 900 275 944 q 352 824 315 856 q 439 769 389 792 q 549 728 489 746 q 674 681 610 708 q 793 610 739 653 q 880 505 847 568 q 913 349 913 442 q 883 187 913 257 q 799 69 854 117 q 663 -2 743 22 q 481 -26 582 -26 z "},"Ð":{"ha":1282,"x_min":31,"x_max":1161,"o":"m 249 0 q 188 39 188 0 l 188 1275 q 203 1303 188 1294 q 249 1313 218 1313 l 517 1313 q 803 1265 682 1313 q 1003 1136 924 1218 q 1122 949 1083 1054 q 1161 724 1161 843 q 1133 480 1161 592 q 1049 279 1106 368 q 906 128 993 190 q 702 33 819 65 q 433 0 585 0 l 249 0 m 310 118 l 433 118 q 653 143 557 118 q 820 217 749 168 q 938 339 892 265 q 1006 508 983 413 q 1029 724 1029 604 q 997 910 1029 825 q 898 1060 964 996 q 737 1159 832 1124 q 517 1194 642 1194 l 310 1194 l 310 118 m 68 614 q 36 629 43 614 q 29 663 29 644 q 36 699 29 682 q 68 715 43 715 l 600 715 q 631 699 624 715 q 638 663 638 682 q 631 629 638 644 q 600 614 624 614 l 68 614 z "},"Ŋ":{"ha":1310,"x_min":188,"x_max":1122,"o":"m 1122 -167 q 1097 -294 1122 -247 q 1029 -362 1071 -342 q 936 -383 988 -383 q 824 -352 869 -383 q 757 -278 778 -321 q 755 -241 747 -257 q 785 -212 763 -225 q 826 -203 810 -199 q 857 -226 843 -208 q 881 -255 869 -243 q 906 -273 892 -267 q 936 -279 919 -279 q 976 -266 963 -279 q 996 -230 990 -253 q 1001 -175 1001 -207 l 1001 15 l 310 1090 l 310 19 q 294 -10 310 0 q 249 -19 279 -19 q 188 19 188 -19 l 188 1297 q 203 1326 188 1317 q 249 1335 218 1335 q 290 1326 274 1335 q 318 1297 306 1317 l 1000 239 l 1000 1297 q 1015 1326 1000 1317 q 1061 1335 1031 1335 q 1122 1297 1122 1335 l 1122 -167 z "},"Þ":{"ha":1068,"x_min":188,"x_max":976,"o":"m 249 -19 q 203 -10 218 -19 q 188 19 188 0 l 188 1297 q 203 1326 188 1317 q 249 1335 218 1335 q 294 1326 279 1335 q 310 1297 310 1317 l 310 1135 l 531 1135 q 776 1102 678 1135 q 926 997 875 1069 q 976 807 976 925 q 935 614 976 693 q 824 484 893 535 q 673 403 756 433 q 507 361 590 374 q 401 349 451 353 q 310 346 350 346 l 310 19 q 294 -10 310 0 q 249 -19 279 -19 m 310 456 q 370 457 338 456 q 437 462 403 458 q 506 471 471 465 q 673 523 594 486 q 801 628 751 560 q 851 804 851 697 q 815 932 851 885 q 708 1001 779 979 q 531 1024 636 1024 l 310 1024 l 310 456 z "},"ẞ":{"ha":1303,"x_min":181,"x_max":1176,"o":"m 758 -26 q 656 -18 706 -26 q 563 6 607 -10 q 476 43 518 22 q 449 71 454 54 q 454 114 443 88 q 481 147 467 139 q 522 143 496 154 q 599 115 561 126 q 676 98 636 104 q 758 92 715 92 q 872 111 819 92 q 965 167 925 131 q 1026 253 1004 203 q 1047 365 1047 303 q 1026 474 1047 428 q 969 556 1006 521 q 889 621 933 592 q 797 677 844 650 q 706 733 750 704 q 626 799 663 763 q 569 883 590 835 q 549 993 549 931 q 567 1086 549 1044 q 617 1162 585 1128 q 692 1219 650 1196 q 496 1172 572 1206 q 377 1085 419 1139 q 318 959 335 1032 q 301 793 301 886 l 301 19 q 286 -10 301 0 q 242 -19 271 -19 q 196 -10 211 -19 q 181 19 181 0 l 181 793 q 199 985 181 900 q 265 1136 218 1071 q 393 1246 313 1201 q 596 1313 474 1290 q 889 1335 718 1335 l 922 1335 q 951 1322 943 1335 q 960 1278 960 1310 q 951 1234 960 1247 q 922 1221 943 1221 q 834 1208 878 1221 q 753 1171 790 1196 q 695 1108 717 1146 q 674 1019 674 1071 q 695 928 674 967 q 752 858 717 889 q 833 801 788 828 q 926 747 878 775 q 1018 686 974 719 q 1098 609 1063 653 q 1155 505 1133 565 q 1176 365 1176 444 q 1144 204 1176 276 q 1054 81 1111 132 q 922 1 997 29 q 758 -26 846 -26 z "},"ŋ":{"ha":851,"x_min":131,"x_max":731,"o":"m 731 -151 q 706 -272 731 -228 q 641 -335 681 -317 q 554 -354 601 -354 q 447 -324 490 -354 q 382 -256 403 -294 q 381 -219 372 -235 q 410 -190 389 -203 q 451 -181 435 -176 q 481 -204 467 -186 q 515 -238 500 -226 q 554 -250 531 -250 q 599 -226 588 -250 q 611 -160 611 -201 l 611 453 q 597 537 611 501 q 551 591 582 572 q 469 610 521 610 q 408 601 439 610 q 349 575 378 593 q 294 526 319 557 q 250 451 269 496 l 250 15 q 235 -12 250 -3 q 189 -21 219 -21 q 145 -12 160 -21 q 131 15 131 -3 l 131 679 q 145 706 131 697 q 189 715 160 715 q 235 706 219 715 q 250 679 250 697 l 250 589 q 296 642 271 618 q 351 684 321 667 q 415 711 382 701 q 486 721 449 721 q 613 694 558 721 q 699 612 668 668 q 731 464 731 556 l 731 -151 z "},"$":{"ha":990,"x_min":78,"x_max":888,"o":"m 456 -26 q 363 -18 413 -26 q 262 9 313 -10 q 166 59 211 28 q 88 135 121 90 q 78 161 78 149 q 99 193 79 174 q 131 216 118 214 q 171 194 144 218 q 244 141 203 164 q 339 105 286 118 q 456 92 392 92 q 588 107 531 92 q 682 154 644 122 q 739 235 719 186 q 758 349 758 283 q 739 443 758 403 q 684 513 719 483 q 600 565 649 542 q 492 606 551 588 q 387 644 440 622 q 285 697 333 667 q 200 771 238 728 q 141 872 163 814 q 119 1006 119 929 q 148 1145 119 1085 q 228 1249 176 1206 q 349 1313 279 1292 q 500 1335 418 1335 q 636 1315 574 1335 q 751 1260 699 1294 q 851 1182 804 1225 q 864 1153 867 1168 q 847 1124 861 1139 q 813 1099 829 1106 q 782 1103 797 1092 q 701 1162 743 1136 q 610 1202 660 1188 q 500 1217 560 1217 q 394 1203 440 1217 q 315 1163 347 1189 q 265 1098 282 1138 q 249 1006 249 1058 q 269 899 249 944 q 326 822 289 854 q 413 767 363 790 q 522 725 463 744 q 649 680 585 707 q 767 610 714 653 q 854 505 821 568 q 888 349 888 442 q 857 187 888 257 q 769 69 826 117 q 633 -2 713 22 q 456 -26 553 -26 m 496 -208 q 440 -169 440 -208 l 440 1500 q 496 1538 440 1538 q 551 1500 551 1538 l 551 -169 q 496 -208 551 -208 z "},"€":{"ha":1143,"x_min":40,"x_max":1083,"o":"m 665 -26 q 453 24 544 -26 q 301 166 363 75 q 207 381 239 257 q 175 656 175 506 q 192 841 175 753 q 241 1005 208 929 q 318 1142 274 1081 q 420 1246 363 1203 q 545 1312 478 1289 q 688 1335 613 1335 q 817 1320 756 1335 q 935 1273 879 1306 q 1040 1186 992 1240 q 1050 1157 1056 1171 q 1029 1128 1044 1143 q 997 1106 1011 1110 q 969 1114 983 1103 q 884 1171 928 1147 q 792 1206 840 1194 q 688 1218 743 1218 q 581 1201 631 1218 q 488 1150 531 1183 q 410 1067 444 1117 q 351 956 375 1018 q 315 817 328 893 q 301 656 301 742 q 326 417 301 522 q 399 240 351 313 q 515 128 447 167 q 667 90 582 90 q 763 101 717 90 q 850 131 808 113 q 929 174 892 149 q 1000 228 967 200 q 1029 235 1013 240 q 1063 211 1046 231 q 1081 181 1078 193 q 1069 154 1083 169 q 943 53 1008 93 q 808 -7 878 13 q 665 -26 739 -26 m 78 721 q 49 732 57 721 q 40 774 40 743 q 49 817 40 806 q 78 828 57 828 l 842 828 q 872 817 863 828 q 881 774 881 806 q 872 732 881 743 q 842 721 863 721 l 78 721 m 78 507 q 49 518 57 507 q 40 560 40 529 q 49 603 40 592 q 78 614 57 614 l 842 614 q 872 603 863 614 q 881 560 881 592 q 872 518 881 529 q 842 507 863 507 l 78 507 z "},"¢":{"ha":782,"x_min":71,"x_max":714,"o":"m 413 -26 q 235 19 313 -26 q 114 152 157 64 q 71 368 71 240 q 88 504 71 442 q 135 617 104 567 q 208 704 165 668 q 303 759 250 740 q 418 778 357 778 q 507 766 461 778 q 595 727 553 754 q 672 657 638 700 q 683 624 686 639 q 664 592 679 608 q 631 570 646 574 q 599 581 615 567 q 546 624 572 604 q 488 656 519 644 q 413 667 457 667 q 338 653 372 667 q 276 616 303 640 q 232 556 250 592 q 204 474 214 519 q 194 375 194 429 q 221 221 194 286 q 297 120 247 156 q 413 85 346 85 q 493 98 460 85 q 556 136 526 111 q 615 196 585 161 q 647 211 631 213 q 683 194 664 210 q 708 165 703 179 q 700 132 714 150 q 614 40 663 75 q 513 -10 565 6 q 413 -26 461 -26 m 407 -208 q 351 -169 351 -208 l 351 942 q 407 979 351 979 q 463 942 463 979 l 463 -169 q 407 -208 463 -208 z "},"£":{"ha":996,"x_min":53,"x_max":964,"o":"m 90 0 q 60 15 68 0 q 53 60 53 29 q 63 100 53 89 q 90 111 72 111 l 281 111 l 281 513 l 126 513 q 97 524 106 513 q 89 567 89 536 q 98 609 89 599 q 126 619 107 619 l 281 619 l 281 996 q 319 1173 281 1097 q 430 1292 357 1249 q 606 1335 503 1335 q 775 1306 699 1335 q 908 1229 851 1276 q 928 1198 922 1217 q 914 1157 933 1179 q 879 1133 896 1136 q 836 1146 863 1131 q 726 1203 779 1183 q 611 1222 672 1222 q 456 1162 510 1222 q 401 988 401 1101 l 401 619 l 708 619 q 738 609 729 619 q 747 567 747 599 q 739 524 747 536 q 708 513 731 513 l 401 513 l 401 111 l 925 111 q 954 100 944 111 q 964 60 964 89 q 956 15 964 29 q 925 0 949 0 l 90 0 z "},"¥":{"ha":988,"x_min":43,"x_max":946,"o":"m 493 -19 q 432 19 432 -19 l 432 315 l 150 315 q 121 327 129 315 q 113 369 113 339 q 121 413 113 401 q 150 424 129 424 l 432 424 l 432 529 l 150 529 q 121 541 129 529 q 113 583 113 553 q 121 626 113 615 q 150 638 129 638 l 388 638 l 53 1260 q 51 1293 43 1278 q 88 1322 58 1308 q 131 1337 114 1336 q 160 1314 149 1338 l 493 688 l 829 1314 q 858 1337 842 1338 q 901 1322 875 1336 q 938 1293 931 1308 q 936 1260 946 1278 l 599 638 l 836 638 q 865 626 857 638 q 874 583 874 615 q 865 541 874 553 q 836 529 857 529 l 554 529 l 554 424 l 836 424 q 865 413 857 424 q 874 369 874 401 q 865 327 874 339 q 836 315 857 315 l 554 315 l 554 19 q 493 -19 554 -19 z "},"%":{"ha":1217,"x_min":69,"x_max":1139,"o":"m 317 758 q 191 795 247 758 q 102 898 135 832 q 69 1047 69 964 q 81 1141 69 1097 q 115 1220 93 1185 q 167 1282 136 1256 q 236 1322 199 1308 q 317 1335 274 1335 q 443 1298 388 1335 q 530 1197 499 1261 q 561 1047 561 1132 q 549 953 561 997 q 515 873 536 908 q 462 812 493 838 q 394 772 431 786 q 317 758 358 758 m 317 864 q 360 872 340 864 q 396 894 381 879 q 422 931 411 908 q 439 982 433 953 q 444 1047 444 1011 q 410 1183 444 1138 q 317 1229 375 1229 q 273 1222 293 1229 q 237 1199 253 1214 q 209 1163 221 1185 q 192 1113 197 1142 q 186 1047 186 1083 q 222 910 186 957 q 317 864 257 864 m 263 -12 q 238 -28 253 -28 q 199 -12 222 -28 q 167 15 172 3 q 171 43 161 26 l 940 1321 q 965 1336 951 1336 q 1004 1321 979 1336 q 1037 1294 1031 1306 q 1032 1265 1043 1282 l 263 -12 m 894 -26 q 769 10 826 -26 q 681 113 713 47 q 649 263 649 178 q 660 356 649 311 q 693 435 671 400 q 745 497 715 471 q 813 536 775 522 q 894 550 851 550 q 1020 513 965 550 q 1107 411 1075 476 q 1139 263 1139 346 q 1126 167 1139 211 q 1092 88 1114 124 q 1040 26 1071 51 q 973 -13 1010 0 q 894 -26 936 -26 m 894 81 q 938 88 918 81 q 974 110 958 94 q 1000 146 989 125 q 1017 197 1011 167 q 1022 263 1022 226 q 988 399 1022 353 q 894 444 953 444 q 850 436 869 444 q 814 414 831 428 q 787 378 797 400 q 770 327 776 356 q 764 263 764 299 q 799 126 764 172 q 894 81 835 81 z "},".":{"ha":435,"x_min":131,"x_max":304,"o":"m 217 -47 q 152 -24 174 -47 q 131 43 131 -1 q 152 111 131 89 q 217 133 174 133 q 283 111 261 133 q 304 43 304 89 q 283 -24 304 -1 q 217 -47 261 -47 z "},",":{"ha":435,"x_min":86,"x_max":283,"o":"m 140 -279 q 103 -266 121 -279 q 86 -235 86 -253 q 90 -221 86 -229 q 100 -200 94 -212 q 131 -125 121 -160 q 146 -47 142 -90 q 150 64 150 -4 q 167 103 150 90 q 215 117 185 117 q 265 102 247 117 q 283 61 283 88 q 273 -48 283 8 q 240 -158 263 -104 q 179 -256 217 -211 q 164 -272 174 -264 q 140 -279 154 -279 z "},":":{"ha":435,"x_min":131,"x_max":304,"o":"m 217 -47 q 152 -24 174 -47 q 131 43 131 -1 q 152 111 131 89 q 217 133 174 133 q 283 111 261 133 q 304 43 304 89 q 283 -24 304 -1 q 217 -47 261 -47 m 217 558 q 152 581 174 558 q 131 649 131 604 q 152 717 131 694 q 217 739 174 739 q 283 717 261 739 q 304 649 304 694 q 283 581 304 604 q 217 558 261 558 z "},";":{"ha":435,"x_min":86,"x_max":304,"o":"m 217 558 q 152 581 174 558 q 131 649 131 604 q 152 717 131 694 q 217 739 174 739 q 283 717 261 739 q 304 649 304 694 q 283 581 304 604 q 217 558 261 558 m 140 -279 q 103 -266 121 -279 q 86 -235 86 -253 q 90 -221 86 -229 q 100 -200 94 -212 q 131 -125 121 -160 q 146 -47 142 -90 q 150 64 150 -4 q 167 103 150 90 q 215 117 185 117 q 265 102 247 117 q 283 61 283 88 q 273 -48 283 8 q 240 -158 263 -104 q 179 -256 217 -211 q 164 -272 174 -264 q 140 -279 154 -279 z "},"…":{"ha":1178,"x_min":131,"x_max":1047,"o":"m 589 -47 q 524 -24 546 -47 q 503 43 503 -1 q 524 111 503 89 q 589 133 546 133 q 655 111 633 133 q 676 43 676 89 q 655 -24 676 -1 q 589 -47 633 -47 m 960 -47 q 895 -24 917 -47 q 874 43 874 -1 q 895 111 874 89 q 960 133 917 133 q 1026 111 1004 133 q 1047 43 1047 89 q 1026 -24 1047 -1 q 960 -47 1004 -47 m 217 -47 q 152 -24 174 -47 q 131 43 131 -1 q 152 111 131 89 q 217 133 174 133 q 283 111 261 133 q 304 43 304 89 q 283 -24 304 -1 q 217 -47 261 -47 z "},"!":{"ha":510,"x_min":178,"x_max":333,"o":"m 256 300 q 194 339 194 300 l 194 1297 q 210 1326 194 1317 q 256 1335 225 1335 q 317 1297 317 1335 l 317 339 q 301 310 317 319 q 256 300 286 300 m 256 -19 q 197 2 217 -19 q 178 68 178 24 q 197 135 178 113 q 256 157 217 157 q 313 135 293 157 q 332 68 332 113 q 313 2 333 24 q 256 -19 293 -19 z "},"¡":{"ha":510,"x_min":178,"x_max":333,"o":"m 256 -639 q 194 -601 194 -639 l 194 357 q 210 386 194 376 q 256 396 225 396 q 317 357 317 396 l 317 -601 q 301 -629 317 -619 q 256 -639 286 -639 m 256 539 q 197 562 217 539 q 178 628 178 585 q 197 694 178 672 q 256 715 217 715 q 313 694 293 715 q 332 628 333 672 q 313 562 332 585 q 256 539 293 539 z "},"?":{"ha":747,"x_min":17,"x_max":726,"o":"m 292 299 q 246 308 261 299 q 231 338 231 318 l 231 636 q 243 663 231 653 q 278 674 256 674 q 406 690 347 674 q 508 741 464 706 q 576 833 551 776 q 601 967 601 889 q 574 1101 601 1043 q 492 1191 546 1158 q 361 1224 439 1224 q 256 1210 303 1224 q 172 1174 210 1196 q 103 1126 135 1153 q 71 1115 86 1113 q 39 1136 56 1118 q 19 1169 22 1153 q 32 1199 17 1185 q 131 1272 76 1242 q 245 1318 186 1301 q 361 1335 304 1335 q 545 1292 463 1335 q 677 1167 628 1250 q 726 965 726 1085 q 695 799 726 869 q 611 681 664 729 q 491 606 558 633 q 353 567 424 578 l 353 338 q 338 308 353 318 q 292 299 322 299 m 292 -19 q 233 2 253 -19 q 214 68 214 24 q 233 135 214 113 q 292 157 253 157 q 349 135 329 157 q 368 68 368 113 q 349 2 368 24 q 292 -19 329 -19 z "},"¿":{"ha":747,"x_min":19,"x_max":729,"o":"m 453 397 q 499 388 483 397 q 514 358 514 378 l 514 60 q 502 33 514 43 q 467 22 490 22 q 339 6 397 22 q 237 -45 281 -10 q 169 -136 193 -81 q 144 -271 144 -192 q 172 -404 144 -346 q 253 -495 199 -462 q 383 -528 307 -528 q 490 -514 443 -528 q 574 -478 536 -500 q 642 -431 611 -457 q 674 -419 658 -415 q 707 -440 689 -422 q 726 -472 722 -457 q 714 -503 729 -487 q 615 -576 669 -546 q 501 -622 560 -606 q 383 -639 442 -639 q 200 -597 283 -639 q 68 -472 117 -554 q 19 -269 19 -389 q 50 -103 19 -174 q 134 15 81 -33 q 254 90 188 63 q 392 129 321 118 l 392 358 q 407 388 392 378 q 453 397 422 397 m 453 715 q 511 694 492 715 q 531 628 531 672 q 511 562 531 585 q 453 539 492 539 q 396 562 415 539 q 376 628 376 585 q 396 694 376 672 q 453 715 415 715 z "},"'":{"ha":235,"x_min":58,"x_max":189,"o":"m 124 950 q 90 963 97 950 q 81 993 82 976 l 60 1289 q 73 1328 58 1311 q 124 1344 88 1344 q 174 1328 160 1344 q 188 1289 189 1311 l 167 993 q 158 963 165 976 q 124 950 150 950 z "},"\"":{"ha":463,"x_min":58,"x_max":417,"o":"m 124 950 q 90 963 97 950 q 81 993 82 976 l 60 1289 q 73 1328 58 1311 q 124 1344 88 1344 q 174 1328 160 1344 q 188 1289 189 1311 l 167 993 q 158 963 165 976 q 124 950 150 950 m 351 950 q 317 963 325 950 q 308 993 310 976 l 288 1289 q 301 1328 286 1311 q 351 1344 315 1344 q 402 1328 388 1344 q 415 1289 417 1311 l 394 993 q 385 963 393 976 q 351 950 378 950 z "},"‘":{"ha":297,"x_min":61,"x_max":256,"o":"m 129 950 q 80 965 99 950 q 61 1006 61 979 q 67 1086 61 1044 q 84 1169 72 1128 q 115 1249 96 1210 q 161 1322 135 1289 q 178 1337 168 1329 q 201 1344 188 1344 q 238 1332 221 1344 q 256 1301 256 1319 q 252 1287 256 1296 q 242 1267 249 1278 q 212 1192 222 1226 q 198 1114 201 1157 q 194 1001 194 1071 q 176 963 194 975 q 129 950 158 950 z "},"’":{"ha":304,"x_min":47,"x_max":242,"o":"m 174 1344 q 224 1330 206 1344 q 242 1289 242 1315 q 237 1208 242 1250 q 220 1126 232 1167 q 190 1045 208 1085 q 142 972 171 1006 q 126 958 135 965 q 101 950 117 950 q 65 963 82 950 q 47 993 47 975 q 51 1008 47 999 q 61 1028 56 1017 q 93 1103 83 1069 q 106 1181 103 1138 q 108 1293 108 1225 q 126 1332 108 1319 q 174 1344 144 1344 z "},"‚":{"ha":307,"x_min":49,"x_max":246,"o":"m 103 -279 q 66 -266 83 -279 q 49 -235 49 -253 q 53 -221 49 -229 q 63 -200 57 -212 q 94 -125 83 -160 q 108 -47 104 -90 q 113 64 113 -4 q 130 103 113 90 q 178 117 147 117 q 228 102 210 117 q 246 61 246 88 q 235 -48 246 8 q 202 -158 225 -104 q 142 -256 179 -211 q 126 -272 136 -264 q 103 -279 117 -279 z "},"“":{"ha":544,"x_min":61,"x_max":503,"o":"m 129 950 q 80 965 99 950 q 61 1006 61 979 q 67 1086 61 1044 q 84 1169 72 1128 q 115 1249 96 1210 q 161 1322 135 1289 q 178 1337 168 1329 q 201 1344 188 1344 q 238 1332 221 1344 q 256 1301 256 1319 q 252 1287 256 1296 q 242 1267 249 1278 q 212 1192 222 1226 q 198 1114 201 1157 q 194 1001 194 1071 q 176 963 194 975 q 129 950 158 950 m 376 950 q 327 965 346 950 q 308 1006 308 979 q 314 1086 308 1044 q 331 1169 319 1128 q 363 1249 343 1210 q 408 1322 382 1289 q 425 1337 415 1329 q 449 1344 435 1344 q 485 1332 468 1344 q 503 1301 503 1319 q 499 1287 503 1296 q 489 1267 496 1278 q 459 1192 469 1226 q 445 1114 449 1157 q 442 1001 442 1071 q 424 963 442 975 q 376 950 406 950 z "},"”":{"ha":550,"x_min":47,"x_max":489,"o":"m 421 1344 q 471 1330 453 1344 q 489 1289 489 1315 q 484 1208 489 1250 q 467 1126 479 1167 q 437 1045 456 1085 q 389 972 418 1006 q 373 958 382 965 q 349 950 364 950 q 312 963 329 950 q 294 993 294 975 q 299 1008 294 999 q 308 1028 303 1017 q 340 1103 331 1069 q 353 1181 350 1138 q 356 1293 356 1225 q 374 1332 356 1319 q 421 1344 392 1344 m 174 1344 q 224 1330 206 1344 q 242 1289 242 1315 q 237 1208 242 1250 q 220 1126 232 1167 q 190 1045 208 1085 q 142 972 171 1006 q 126 958 135 965 q 101 950 117 950 q 65 963 82 950 q 47 993 47 975 q 51 1008 47 999 q 61 1028 56 1017 q 93 1103 83 1069 q 106 1181 103 1138 q 108 1293 108 1225 q 126 1332 108 1319 q 174 1344 144 1344 z "},"„":{"ha":553,"x_min":49,"x_max":492,"o":"m 349 -279 q 312 -266 329 -279 q 294 -235 294 -253 q 299 -221 294 -229 q 308 -200 303 -212 q 340 -125 329 -160 q 354 -47 350 -90 q 358 64 358 -4 q 376 103 358 90 q 424 117 393 117 q 474 102 456 117 q 492 61 492 88 q 481 -48 492 8 q 448 -158 471 -104 q 388 -256 425 -211 q 372 -272 382 -264 q 349 -279 363 -279 m 103 -279 q 66 -266 83 -279 q 49 -235 49 -253 q 53 -221 49 -229 q 63 -200 57 -212 q 94 -125 83 -160 q 108 -47 104 -90 q 113 64 113 -4 q 130 103 113 90 q 178 117 147 117 q 228 102 210 117 q 246 61 246 88 q 235 -48 246 8 q 202 -158 225 -104 q 142 -256 179 -211 q 126 -272 136 -264 q 103 -279 117 -279 z "},"«":{"ha":1007,"x_min":131,"x_max":875,"o":"m 458 -19 q 419 -11 438 -19 q 383 19 401 -3 l 164 297 q 138 331 144 321 q 131 349 131 342 q 138 367 131 357 q 164 401 144 378 l 383 678 q 419 708 401 700 q 458 715 438 715 q 499 703 483 715 q 518 675 515 692 q 507 640 521 658 l 275 349 l 507 56 q 512 5 528 29 q 458 -19 496 -19 m 806 -19 q 767 -11 785 -19 q 731 19 749 -3 l 511 297 q 485 331 492 321 q 478 349 478 342 q 485 367 478 357 q 511 401 492 378 l 731 678 q 767 708 749 700 q 806 715 785 715 q 847 703 831 715 q 865 675 863 692 q 854 640 868 658 l 622 349 l 854 56 q 859 5 875 29 q 806 -19 843 -19 z "},"»":{"ha":1007,"x_min":132,"x_max":876,"o":"m 201 -19 q 160 -8 176 -19 q 142 22 144 4 q 153 56 139 39 l 385 349 l 153 640 q 148 691 132 667 q 201 715 164 715 q 241 708 222 715 q 276 678 260 700 l 497 401 q 523 367 517 378 q 529 349 529 357 q 523 331 529 342 q 497 297 517 321 l 276 19 q 241 -11 260 -3 q 201 -19 222 -19 m 549 -19 q 508 -8 524 -19 q 489 22 492 4 q 500 56 486 39 l 732 349 l 500 640 q 495 691 479 667 q 549 715 511 715 q 588 708 569 715 q 624 678 607 700 l 844 401 q 870 367 864 378 q 876 349 876 357 q 870 331 876 342 q 844 297 864 321 l 624 19 q 588 -11 607 -3 q 549 -19 569 -19 z "},"‹":{"ha":660,"x_min":131,"x_max":528,"o":"m 458 -19 q 419 -11 438 -19 q 383 19 401 -3 l 164 297 q 138 331 144 321 q 131 349 131 342 q 138 367 131 357 q 164 401 144 378 l 383 678 q 419 708 401 700 q 458 715 438 715 q 499 703 483 715 q 518 675 515 692 q 507 640 521 658 l 275 349 l 507 56 q 512 5 528 29 q 458 -19 496 -19 z "},"›":{"ha":660,"x_min":132,"x_max":529,"o":"m 201 -19 q 160 -8 176 -19 q 142 22 144 4 q 153 56 139 39 l 385 349 l 153 640 q 148 691 132 667 q 201 715 164 715 q 241 708 222 715 q 276 678 260 700 l 497 401 q 523 367 517 378 q 529 349 529 357 q 523 331 529 342 q 497 297 517 321 l 276 19 q 241 -11 260 -3 q 201 -19 222 -19 z "},"Á":{"ha":1110,"x_min":26,"x_max":1085,"o":"m 89 -19 q 40 -2 53 -19 q 36 43 26 15 l 476 1279 q 504 1323 488 1311 q 554 1335 521 1335 q 603 1323 588 1335 q 631 1279 619 1311 l 1074 43 q 1069 -2 1085 15 q 1018 -19 1054 -19 q 974 -8 988 -19 q 950 32 961 4 l 829 371 l 276 371 l 156 32 q 133 -8 146 4 q 89 -19 119 -19 m 315 482 l 789 482 l 553 1153 l 315 482 m 488 1393 q 455 1413 474 1393 q 436 1446 436 1432 q 438 1456 436 1451 q 447 1469 439 1461 l 642 1669 q 655 1681 649 1676 q 668 1685 661 1685 q 700 1672 682 1685 q 731 1643 718 1660 q 744 1613 744 1626 q 741 1596 744 1603 q 724 1578 738 1589 l 514 1407 q 499 1397 506 1401 q 488 1393 493 1393 z "},"Ă":{"ha":1110,"x_min":26,"x_max":1085,"o":"m 89 -19 q 40 -2 53 -19 q 36 43 26 15 l 476 1279 q 504 1323 488 1311 q 554 1335 521 1335 q 603 1323 588 1335 q 631 1279 619 1311 l 1074 43 q 1069 -2 1085 15 q 1018 -19 1054 -19 q 974 -8 988 -19 q 950 32 961 4 l 829 371 l 276 371 l 156 32 q 133 -8 146 4 q 89 -19 119 -19 m 315 482 l 789 482 l 553 1153 l 315 482 m 553 1393 q 378 1456 446 1393 q 301 1643 311 1518 q 314 1672 300 1660 q 354 1683 328 1683 q 385 1673 376 1683 q 399 1643 393 1663 q 453 1549 417 1581 q 553 1517 490 1517 q 653 1549 615 1517 q 707 1643 690 1581 q 720 1673 713 1663 q 750 1683 728 1683 q 791 1672 776 1683 q 804 1643 806 1660 q 764 1508 799 1564 q 675 1422 729 1451 q 553 1393 621 1393 z "},"Ǎ":{"ha":1110,"x_min":26,"x_max":1085,"o":"m 89 -19 q 40 -2 53 -19 q 36 43 26 15 l 476 1279 q 504 1323 488 1311 q 554 1335 521 1335 q 603 1323 588 1335 q 631 1279 619 1311 l 1074 43 q 1069 -2 1085 15 q 1018 -19 1054 -19 q 974 -8 988 -19 q 950 32 961 4 l 829 371 l 276 371 l 156 32 q 133 -8 146 4 q 89 -19 119 -19 m 315 482 l 789 482 l 553 1153 l 315 482 m 765 1685 q 797 1669 779 1685 q 814 1638 814 1653 q 813 1629 814 1635 q 806 1615 813 1624 l 614 1421 q 592 1403 604 1413 q 553 1393 581 1393 q 515 1403 526 1393 q 494 1421 503 1413 l 300 1615 q 293 1629 293 1624 q 293 1638 293 1635 q 310 1669 293 1653 q 342 1685 328 1685 q 358 1680 350 1685 q 376 1668 365 1675 l 553 1532 l 731 1668 q 749 1680 742 1675 q 765 1685 756 1685 z "},"Â":{"ha":1110,"x_min":26,"x_max":1085,"o":"m 89 -19 q 40 -2 53 -19 q 36 43 26 15 l 476 1279 q 504 1323 488 1311 q 554 1335 521 1335 q 603 1323 588 1335 q 631 1279 619 1311 l 1074 43 q 1069 -2 1085 15 q 1018 -19 1054 -19 q 974 -8 988 -19 q 950 32 961 4 l 829 371 l 276 371 l 156 32 q 133 -8 146 4 q 89 -19 119 -19 m 315 482 l 789 482 l 553 1153 l 315 482 m 342 1393 q 310 1410 328 1393 q 293 1440 293 1426 q 293 1450 293 1444 q 300 1463 293 1456 l 492 1657 q 514 1676 501 1667 q 553 1685 526 1685 q 591 1676 579 1685 q 613 1657 603 1667 l 806 1463 q 813 1450 813 1456 q 814 1440 814 1444 q 797 1410 814 1426 q 765 1393 779 1393 q 749 1398 756 1393 q 731 1411 742 1403 l 553 1546 l 376 1411 q 358 1398 365 1403 q 342 1393 350 1393 z "},"Ä":{"ha":1110,"x_min":26,"x_max":1085,"o":"m 89 -19 q 40 -2 53 -19 q 36 43 26 15 l 476 1279 q 504 1323 488 1311 q 554 1335 521 1335 q 603 1323 588 1335 q 631 1279 619 1311 l 1074 43 q 1069 -2 1085 15 q 1018 -19 1054 -19 q 974 -8 988 -19 q 950 32 961 4 l 829 371 l 276 371 l 156 32 q 133 -8 146 4 q 89 -19 119 -19 m 315 482 l 789 482 l 553 1153 l 315 482 m 385 1439 q 326 1461 346 1439 q 307 1526 307 1483 q 326 1592 307 1571 q 385 1614 346 1614 q 442 1592 424 1614 q 461 1526 461 1571 q 444 1460 464 1482 q 385 1439 424 1439 m 722 1439 q 664 1461 683 1439 q 644 1526 644 1483 q 664 1592 644 1571 q 722 1614 683 1614 q 779 1592 760 1614 q 799 1526 799 1571 q 780 1461 800 1483 q 722 1439 760 1439 z "},"Ǽ":{"ha":1422,"x_min":15,"x_max":1365,"o":"m 1328 0 l 767 0 q 722 14 738 0 q 707 56 707 28 l 707 601 l 417 601 l 129 1 q 100 -21 119 -17 q 54 -14 81 -25 q 24 15 32 -3 q 25 50 15 32 l 613 1264 q 642 1303 628 1294 q 696 1313 657 1313 l 1328 1313 q 1357 1301 1349 1313 q 1365 1257 1365 1289 q 1357 1214 1365 1226 q 1328 1201 1349 1201 l 828 1201 l 828 713 l 1235 713 q 1265 701 1256 713 q 1274 657 1274 689 q 1265 614 1274 626 q 1235 601 1256 601 l 828 601 l 828 111 l 1328 111 q 1357 99 1349 111 q 1365 56 1365 88 q 1357 13 1365 25 q 1328 0 1349 0 m 469 713 l 707 713 l 707 1206 l 469 713 m 928 1393 q 895 1413 914 1393 q 876 1446 876 1432 q 878 1456 876 1451 q 888 1469 879 1461 l 1082 1669 q 1095 1681 1089 1676 q 1108 1685 1101 1685 q 1140 1672 1122 1685 q 1172 1643 1158 1660 q 1185 1613 1185 1626 q 1181 1596 1185 1603 q 1164 1578 1178 1589 l 954 1407 q 940 1397 946 1401 q 928 1393 933 1393 z "},"À":{"ha":1110,"x_min":26,"x_max":1085,"o":"m 89 -19 q 40 -2 53 -19 q 36 43 26 15 l 476 1279 q 504 1323 488 1311 q 554 1335 521 1335 q 603 1323 588 1335 q 631 1279 619 1311 l 1074 43 q 1069 -2 1085 15 q 1018 -19 1054 -19 q 974 -8 988 -19 q 950 32 961 4 l 829 371 l 276 371 l 156 32 q 133 -8 146 4 q 89 -19 119 -19 m 315 482 l 789 482 l 553 1153 l 315 482 m 618 1393 q 606 1397 613 1393 q 592 1407 600 1401 l 383 1578 q 366 1596 369 1589 q 363 1613 363 1603 q 375 1643 363 1626 q 406 1672 388 1660 q 438 1685 424 1685 q 452 1681 446 1685 q 464 1669 458 1676 l 658 1469 q 669 1456 668 1461 q 671 1446 671 1451 q 652 1413 671 1432 q 618 1393 633 1393 z "},"Ā":{"ha":1110,"x_min":26,"x_max":1085,"o":"m 89 -19 q 40 -2 53 -19 q 36 43 26 15 l 476 1279 q 504 1323 488 1311 q 554 1335 521 1335 q 603 1323 588 1335 q 631 1279 619 1311 l 1074 43 q 1069 -2 1085 15 q 1018 -19 1054 -19 q 974 -8 988 -19 q 950 32 961 4 l 829 371 l 276 371 l 156 32 q 133 -8 146 4 q 89 -19 119 -19 m 315 482 l 789 482 l 553 1153 l 315 482 m 364 1479 q 333 1495 340 1479 q 326 1536 326 1511 q 333 1580 326 1563 q 364 1597 340 1597 l 742 1597 q 773 1580 767 1597 q 779 1536 779 1563 q 773 1495 779 1511 q 742 1479 767 1479 l 364 1479 z "},"Ą":{"ha":1110,"x_min":26,"x_max":1104,"o":"m 89 -19 q 40 -2 53 -19 q 36 43 26 15 l 476 1279 q 504 1323 488 1311 q 554 1335 521 1335 q 603 1323 588 1335 q 631 1279 619 1311 l 1074 43 q 1069 -2 1085 15 q 1018 -19 1054 -19 q 974 -8 988 -19 q 950 32 961 4 l 829 371 l 276 371 l 156 32 q 133 -8 146 4 q 89 -19 119 -19 m 315 482 l 789 482 l 553 1153 l 315 482 m 926 -367 q 832 -335 872 -367 q 792 -243 792 -304 q 805 -173 792 -206 q 842 -109 818 -140 q 902 -45 867 -78 q 985 24 938 -12 l 1071 25 l 1071 13 q 1009 -41 1039 -14 q 954 -95 979 -68 q 915 -149 929 -122 q 900 -203 900 -176 q 914 -247 900 -233 q 950 -261 928 -261 q 988 -253 971 -261 q 1032 -224 1006 -244 q 1056 -216 1042 -217 q 1083 -228 1069 -215 q 1101 -260 1097 -242 q 1097 -289 1104 -278 q 1050 -331 1081 -312 q 987 -358 1019 -349 q 926 -367 954 -367 z "},"Å":{"ha":1110,"x_min":26,"x_max":1085,"o":"m 89 -19 q 40 -2 53 -19 q 36 43 26 15 l 476 1279 q 504 1323 488 1311 q 554 1335 521 1335 q 603 1323 588 1335 q 631 1279 619 1311 l 1074 43 q 1069 -2 1085 15 q 1018 -19 1054 -19 q 974 -8 988 -19 q 950 32 961 4 l 829 371 l 276 371 l 156 32 q 133 -8 146 4 q 89 -19 119 -19 m 315 482 l 789 482 l 553 1153 l 315 482 m 553 1382 q 455 1403 499 1382 q 386 1464 411 1425 q 361 1551 361 1503 q 386 1638 361 1600 q 455 1698 411 1676 q 553 1719 499 1719 q 653 1698 610 1719 q 722 1638 697 1676 q 747 1551 747 1600 q 722 1464 747 1503 q 653 1403 697 1425 q 553 1382 610 1382 m 553 1465 q 622 1490 596 1465 q 647 1551 647 1515 q 622 1612 647 1588 q 553 1636 596 1636 q 486 1612 511 1636 q 461 1551 461 1588 q 486 1490 461 1515 q 553 1465 511 1465 z "},"Ã":{"ha":1110,"x_min":26,"x_max":1085,"o":"m 89 -19 q 40 -2 53 -19 q 36 43 26 15 l 476 1279 q 504 1323 488 1311 q 554 1335 521 1335 q 603 1323 588 1335 q 631 1279 619 1311 l 1074 43 q 1069 -2 1085 15 q 1018 -19 1054 -19 q 974 -8 988 -19 q 950 32 961 4 l 829 371 l 276 371 l 156 32 q 133 -8 146 4 q 89 -19 119 -19 m 315 482 l 789 482 l 553 1153 l 315 482 m 343 1432 q 296 1468 296 1432 q 333 1600 299 1556 q 433 1644 367 1644 q 509 1628 476 1644 q 568 1592 542 1613 q 617 1556 594 1572 q 664 1540 640 1540 q 692 1563 682 1540 q 706 1617 703 1585 q 753 1647 708 1647 q 791 1638 779 1647 q 803 1608 803 1628 q 767 1477 801 1521 q 664 1433 732 1433 q 590 1449 624 1433 q 528 1486 556 1465 q 478 1523 501 1507 q 433 1539 454 1539 q 406 1522 415 1539 q 393 1468 396 1504 q 379 1441 392 1450 q 343 1432 367 1432 z "},"Ắ":{"ha":1110,"x_min":26,"x_max":1085,"o":"m 89 -19 q 40 -2 53 -19 q 36 43 26 15 l 476 1279 q 504 1323 488 1311 q 554 1335 521 1335 q 603 1323 588 1335 q 631 1279 619 1311 l 1074 43 q 1069 -2 1085 15 q 1018 -19 1054 -19 q 974 -8 988 -19 q 950 32 961 4 l 829 371 l 276 371 l 156 32 q 133 -8 146 4 q 89 -19 119 -19 m 315 482 l 789 482 l 553 1153 l 315 482 m 553 1393 q 378 1456 446 1393 q 301 1643 311 1518 q 314 1672 300 1660 q 354 1683 328 1683 q 385 1673 376 1683 q 399 1643 393 1663 q 453 1549 417 1581 q 553 1517 490 1517 q 653 1549 615 1517 q 707 1643 690 1581 q 720 1673 713 1663 q 750 1683 728 1683 q 791 1672 776 1683 q 804 1643 806 1660 q 764 1508 799 1564 q 675 1422 729 1451 q 553 1393 621 1393 m 488 1660 q 455 1678 474 1660 q 436 1711 436 1697 q 438 1722 436 1717 q 447 1736 439 1728 l 642 1936 q 655 1947 649 1943 q 668 1951 661 1951 q 700 1939 682 1951 q 731 1910 718 1926 q 744 1879 744 1893 q 741 1863 744 1869 q 724 1844 738 1856 l 514 1674 q 499 1664 506 1668 q 488 1660 493 1660 z "},"Ặ":{"ha":1110,"x_min":26,"x_max":1085,"o":"m 89 -19 q 40 -2 53 -19 q 36 43 26 15 l 476 1279 q 504 1323 488 1311 q 554 1335 521 1335 q 603 1323 588 1335 q 631 1279 619 1311 l 1074 43 q 1069 -2 1085 15 q 1018 -19 1054 -19 q 974 -8 988 -19 q 950 32 961 4 l 829 371 l 276 371 l 156 32 q 133 -8 146 4 q 89 -19 119 -19 m 315 482 l 789 482 l 553 1153 l 315 482 m 553 -326 q 494 -305 514 -326 q 475 -239 475 -283 q 494 -173 475 -194 q 553 -151 514 -151 q 610 -173 590 -151 q 629 -239 629 -194 q 610 -305 631 -283 q 553 -326 590 -326 m 553 1393 q 378 1456 446 1393 q 301 1643 311 1518 q 314 1672 300 1660 q 354 1683 328 1683 q 385 1673 376 1683 q 399 1643 393 1663 q 453 1549 417 1581 q 553 1517 490 1517 q 653 1549 615 1517 q 707 1643 690 1581 q 720 1673 713 1663 q 750 1683 728 1683 q 791 1672 776 1683 q 804 1643 806 1660 q 764 1508 799 1564 q 675 1422 729 1451 q 553 1393 621 1393 z "},"Ằ":{"ha":1110,"x_min":26,"x_max":1085,"o":"m 89 -19 q 40 -2 53 -19 q 36 43 26 15 l 476 1279 q 504 1323 488 1311 q 554 1335 521 1335 q 603 1323 588 1335 q 631 1279 619 1311 l 1074 43 q 1069 -2 1085 15 q 1018 -19 1054 -19 q 974 -8 988 -19 q 950 32 961 4 l 829 371 l 276 371 l 156 32 q 133 -8 146 4 q 89 -19 119 -19 m 315 482 l 789 482 l 553 1153 l 315 482 m 553 1393 q 378 1456 446 1393 q 301 1643 311 1518 q 314 1672 300 1660 q 354 1683 328 1683 q 385 1673 376 1683 q 399 1643 393 1663 q 453 1549 417 1581 q 553 1517 490 1517 q 653 1549 615 1517 q 707 1643 690 1581 q 720 1673 713 1663 q 750 1683 728 1683 q 791 1672 776 1683 q 804 1643 806 1660 q 764 1508 799 1564 q 675 1422 729 1451 q 553 1393 621 1393 m 618 1658 q 606 1663 613 1658 q 592 1672 600 1667 l 383 1843 q 366 1861 369 1854 q 363 1878 363 1868 q 375 1908 363 1892 q 406 1938 388 1925 q 438 1950 424 1950 q 452 1946 446 1950 q 464 1935 458 1942 l 658 1735 q 669 1721 668 1726 q 671 1710 671 1715 q 652 1677 671 1696 q 618 1658 633 1658 z "},"Ẳ":{"ha":1110,"x_min":26,"x_max":1085,"o":"m 89 -19 q 40 -2 53 -19 q 36 43 26 15 l 476 1279 q 504 1323 488 1311 q 554 1335 521 1335 q 603 1323 588 1335 q 631 1279 619 1311 l 1074 43 q 1069 -2 1085 15 q 1018 -19 1054 -19 q 974 -8 988 -19 q 950 32 961 4 l 829 371 l 276 371 l 156 32 q 133 -8 146 4 q 89 -19 119 -19 m 315 482 l 789 482 l 553 1153 l 315 482 m 553 1393 q 378 1456 446 1393 q 301 1643 311 1518 q 314 1672 300 1660 q 354 1683 328 1683 q 385 1673 376 1683 q 399 1643 393 1663 q 453 1549 417 1581 q 553 1517 490 1517 q 653 1549 615 1517 q 707 1643 690 1581 q 720 1673 713 1663 q 750 1683 728 1683 q 791 1672 776 1683 q 804 1643 806 1660 q 764 1508 799 1564 q 675 1422 729 1451 q 553 1393 621 1393 m 560 1971 q 669 1938 628 1971 q 711 1851 711 1906 q 695 1788 711 1815 q 640 1732 679 1761 q 615 1707 622 1718 q 611 1682 608 1696 l 613 1672 q 605 1646 617 1657 q 575 1631 593 1635 q 541 1631 557 1626 q 518 1649 525 1635 l 503 1686 q 503 1745 492 1718 q 546 1794 515 1772 q 573 1819 565 1808 q 581 1842 581 1831 q 569 1861 581 1853 q 538 1869 557 1869 q 497 1864 518 1869 q 463 1849 475 1858 q 404 1871 429 1828 q 413 1925 388 1903 q 481 1958 442 1946 q 560 1971 519 1971 z "},"Ẵ":{"ha":1110,"x_min":26,"x_max":1085,"o":"m 89 -19 q 40 -2 53 -19 q 36 43 26 15 l 476 1279 q 504 1323 488 1311 q 554 1335 521 1335 q 603 1323 588 1335 q 631 1279 619 1311 l 1074 43 q 1069 -2 1085 15 q 1018 -19 1054 -19 q 974 -8 988 -19 q 950 32 961 4 l 829 371 l 276 371 l 156 32 q 133 -8 146 4 q 89 -19 119 -19 m 315 482 l 789 482 l 553 1153 l 315 482 m 553 1393 q 378 1456 446 1393 q 301 1643 311 1518 q 314 1672 300 1660 q 354 1683 328 1683 q 385 1673 376 1683 q 399 1643 393 1663 q 453 1549 417 1581 q 553 1517 490 1517 q 653 1549 615 1517 q 707 1643 690 1581 q 720 1673 713 1663 q 750 1683 728 1683 q 791 1672 776 1683 q 804 1643 806 1660 q 764 1508 799 1564 q 675 1422 729 1451 q 553 1393 621 1393 m 343 1728 q 296 1764 296 1728 q 333 1896 299 1851 q 433 1940 367 1940 q 509 1924 476 1940 q 568 1888 542 1908 q 617 1852 594 1868 q 664 1836 640 1836 q 692 1858 682 1836 q 706 1913 703 1881 q 753 1943 708 1943 q 791 1933 779 1943 q 803 1904 803 1924 q 767 1773 801 1817 q 664 1729 732 1729 q 590 1745 624 1729 q 528 1782 556 1761 q 478 1819 501 1803 q 433 1835 454 1835 q 406 1817 415 1835 q 393 1764 396 1800 q 379 1737 392 1746 q 343 1728 367 1728 z "},"Ấ":{"ha":1110,"x_min":26,"x_max":1085,"o":"m 89 -19 q 40 -2 53 -19 q 36 43 26 15 l 476 1279 q 504 1323 488 1311 q 554 1335 521 1335 q 603 1323 588 1335 q 631 1279 619 1311 l 1074 43 q 1069 -2 1085 15 q 1018 -19 1054 -19 q 974 -8 988 -19 q 950 32 961 4 l 829 371 l 276 371 l 156 32 q 133 -8 146 4 q 89 -19 119 -19 m 315 482 l 789 482 l 553 1153 l 315 482 m 342 1393 q 310 1410 328 1393 q 293 1440 293 1426 q 293 1450 293 1444 q 300 1463 293 1456 l 492 1657 q 514 1676 501 1667 q 553 1685 526 1685 q 591 1676 579 1685 q 613 1657 603 1667 l 806 1463 q 813 1450 813 1456 q 814 1440 814 1444 q 797 1410 814 1426 q 765 1393 779 1393 q 749 1398 756 1393 q 731 1411 742 1403 l 553 1546 l 376 1411 q 358 1398 365 1403 q 342 1393 350 1393 m 771 1614 q 738 1633 757 1614 q 719 1667 719 1653 q 721 1676 719 1672 q 731 1690 722 1681 l 918 1879 q 931 1891 925 1886 q 943 1896 936 1896 q 975 1883 957 1896 q 1006 1853 993 1871 q 1019 1821 1019 1836 q 1017 1806 1019 1811 q 999 1786 1014 1800 l 797 1628 q 783 1618 789 1622 q 771 1614 776 1614 z "},"Ậ":{"ha":1110,"x_min":26,"x_max":1085,"o":"m 89 -19 q 40 -2 53 -19 q 36 43 26 15 l 476 1279 q 504 1323 488 1311 q 554 1335 521 1335 q 603 1323 588 1335 q 631 1279 619 1311 l 1074 43 q 1069 -2 1085 15 q 1018 -19 1054 -19 q 974 -8 988 -19 q 950 32 961 4 l 829 371 l 276 371 l 156 32 q 133 -8 146 4 q 89 -19 119 -19 m 315 482 l 789 482 l 553 1153 l 315 482 m 553 -326 q 494 -305 514 -326 q 475 -239 475 -283 q 494 -173 475 -194 q 553 -151 514 -151 q 610 -173 590 -151 q 629 -239 629 -194 q 610 -305 631 -283 q 553 -326 590 -326 m 342 1393 q 310 1410 328 1393 q 293 1440 293 1426 q 293 1450 293 1444 q 300 1463 293 1456 l 492 1657 q 514 1676 501 1667 q 553 1685 526 1685 q 591 1676 579 1685 q 613 1657 603 1667 l 806 1463 q 813 1450 813 1456 q 814 1440 814 1444 q 797 1410 814 1426 q 765 1393 779 1393 q 749 1398 756 1393 q 731 1411 742 1403 l 553 1546 l 376 1411 q 358 1398 365 1403 q 342 1393 350 1393 z "},"Ầ":{"ha":1110,"x_min":26,"x_max":1085,"o":"m 89 -19 q 40 -2 53 -19 q 36 43 26 15 l 476 1279 q 504 1323 488 1311 q 554 1335 521 1335 q 603 1323 588 1335 q 631 1279 619 1311 l 1074 43 q 1069 -2 1085 15 q 1018 -19 1054 -19 q 974 -8 988 -19 q 950 32 961 4 l 829 371 l 276 371 l 156 32 q 133 -8 146 4 q 89 -19 119 -19 m 315 482 l 789 482 l 553 1153 l 315 482 m 342 1393 q 310 1410 328 1393 q 293 1440 293 1426 q 293 1450 293 1444 q 300 1463 293 1456 l 492 1657 q 514 1676 501 1667 q 553 1685 526 1685 q 591 1676 579 1685 q 613 1657 603 1667 l 806 1463 q 813 1450 813 1456 q 814 1440 814 1444 q 797 1410 814 1426 q 765 1393 779 1393 q 749 1398 756 1393 q 731 1411 742 1403 l 553 1546 l 376 1411 q 358 1398 365 1403 q 342 1393 350 1393 m 857 1594 q 845 1597 851 1594 q 831 1607 839 1600 l 636 1789 q 619 1808 622 1803 q 615 1824 615 1814 q 628 1855 615 1838 q 660 1885 642 1872 q 692 1897 678 1897 q 706 1893 699 1897 q 718 1882 713 1889 l 897 1671 q 907 1656 904 1661 q 910 1646 910 1651 q 892 1613 910 1632 q 857 1594 874 1594 z "},"Ẩ":{"ha":1110,"x_min":26,"x_max":1085,"o":"m 89 -19 q 40 -2 53 -19 q 36 43 26 15 l 476 1279 q 504 1323 488 1311 q 554 1335 521 1335 q 603 1323 588 1335 q 631 1279 619 1311 l 1074 43 q 1069 -2 1085 15 q 1018 -19 1054 -19 q 974 -8 988 -19 q 950 32 961 4 l 829 371 l 276 371 l 156 32 q 133 -8 146 4 q 89 -19 119 -19 m 315 482 l 789 482 l 553 1153 l 315 482 m 342 1393 q 310 1410 328 1393 q 293 1440 293 1426 q 293 1450 293 1444 q 300 1463 293 1456 l 492 1657 q 514 1676 501 1667 q 553 1685 526 1685 q 591 1676 579 1685 q 613 1657 603 1667 l 806 1463 q 813 1450 813 1456 q 814 1440 814 1444 q 797 1410 814 1426 q 765 1393 779 1393 q 749 1398 756 1393 q 731 1411 742 1403 l 553 1546 l 376 1411 q 358 1398 365 1403 q 342 1393 350 1393 m 807 1911 q 917 1878 875 1911 q 958 1790 958 1844 q 942 1727 958 1754 q 886 1671 925 1700 q 862 1646 868 1657 q 858 1621 856 1635 l 860 1611 q 852 1585 864 1596 q 822 1569 840 1574 q 788 1569 804 1565 q 765 1588 772 1574 l 750 1625 q 750 1684 739 1657 q 792 1733 761 1711 q 819 1758 811 1747 q 828 1781 828 1769 q 816 1801 828 1792 q 785 1810 804 1810 q 744 1803 765 1810 q 710 1788 722 1797 q 651 1810 676 1767 q 660 1864 635 1842 q 728 1898 689 1885 q 807 1911 767 1911 z "},"Ẫ":{"ha":1110,"x_min":26,"x_max":1085,"o":"m 89 -19 q 40 -2 53 -19 q 36 43 26 15 l 476 1279 q 504 1323 488 1311 q 554 1335 521 1335 q 603 1323 588 1335 q 631 1279 619 1311 l 1074 43 q 1069 -2 1085 15 q 1018 -19 1054 -19 q 974 -8 988 -19 q 950 32 961 4 l 829 371 l 276 371 l 156 32 q 133 -8 146 4 q 89 -19 119 -19 m 315 482 l 789 482 l 553 1153 l 315 482 m 342 1393 q 310 1410 328 1393 q 293 1440 293 1426 q 293 1450 293 1444 q 300 1463 293 1456 l 492 1657 q 514 1676 501 1667 q 553 1685 526 1685 q 591 1676 579 1685 q 613 1657 603 1667 l 806 1463 q 813 1450 813 1456 q 814 1440 814 1444 q 797 1410 814 1426 q 765 1393 779 1393 q 749 1398 756 1393 q 731 1411 742 1403 l 553 1546 l 376 1411 q 358 1398 365 1403 q 342 1393 350 1393 m 349 1701 q 301 1738 301 1701 q 338 1869 304 1825 q 440 1914 372 1914 q 515 1898 482 1914 q 574 1862 547 1882 q 624 1826 601 1842 q 669 1810 647 1810 q 699 1832 689 1810 q 713 1886 710 1854 q 760 1917 714 1917 q 798 1907 786 1917 q 810 1878 810 1897 q 774 1747 808 1790 q 669 1703 739 1703 q 596 1719 629 1703 q 535 1756 563 1735 q 484 1792 507 1776 q 440 1808 461 1808 q 411 1791 421 1808 q 399 1738 401 1774 q 385 1710 397 1719 q 349 1701 372 1701 z "},"Ạ":{"ha":1110,"x_min":26,"x_max":1085,"o":"m 89 -19 q 40 -2 53 -19 q 36 43 26 15 l 476 1279 q 504 1323 488 1311 q 554 1335 521 1335 q 603 1323 588 1335 q 631 1279 619 1311 l 1074 43 q 1069 -2 1085 15 q 1018 -19 1054 -19 q 974 -8 988 -19 q 950 32 961 4 l 829 371 l 276 371 l 156 32 q 133 -8 146 4 q 89 -19 119 -19 m 315 482 l 789 482 l 553 1153 l 315 482 m 553 -326 q 494 -305 514 -326 q 475 -239 475 -283 q 494 -173 475 -194 q 553 -151 514 -151 q 610 -173 590 -151 q 629 -239 629 -194 q 610 -305 631 -283 q 553 -326 590 -326 z "},"Ả":{"ha":1110,"x_min":26,"x_max":1085,"o":"m 89 -19 q 40 -2 53 -19 q 36 43 26 15 l 476 1279 q 504 1323 488 1311 q 554 1335 521 1335 q 603 1323 588 1335 q 631 1279 619 1311 l 1074 43 q 1069 -2 1085 15 q 1018 -19 1054 -19 q 974 -8 988 -19 q 950 32 961 4 l 829 371 l 276 371 l 156 32 q 133 -8 146 4 q 89 -19 119 -19 m 315 482 l 789 482 l 553 1153 l 315 482 m 568 1724 q 678 1691 636 1724 q 719 1603 719 1658 q 703 1540 719 1568 q 647 1485 686 1513 q 623 1459 629 1471 q 619 1435 617 1447 l 621 1424 q 613 1399 625 1410 q 583 1383 601 1388 q 549 1382 565 1378 q 526 1401 533 1386 l 511 1438 q 511 1497 500 1469 q 553 1547 522 1525 q 581 1572 572 1561 q 589 1594 589 1583 q 577 1614 589 1606 q 546 1622 565 1622 q 505 1617 526 1622 q 471 1601 483 1611 q 413 1624 438 1581 q 421 1678 396 1656 q 489 1711 450 1699 q 568 1724 528 1724 z "},"Ć":{"ha":1143,"x_min":121,"x_max":1106,"o":"m 682 -26 q 451 24 554 -26 q 274 166 347 75 q 160 381 200 257 q 121 656 121 506 q 139 843 121 754 q 191 1008 157 932 q 274 1144 225 1085 q 386 1247 324 1204 q 524 1313 449 1290 q 685 1335 600 1335 q 821 1319 753 1335 q 951 1265 889 1303 q 1061 1158 1014 1228 q 1068 1129 1074 1142 q 1046 1101 1063 1117 q 1013 1082 1026 1085 q 985 1093 999 1079 q 899 1160 947 1133 q 797 1202 851 1188 q 685 1217 743 1217 q 566 1200 622 1217 q 461 1150 510 1183 q 374 1069 413 1117 q 308 958 336 1021 q 266 820 281 896 q 251 656 251 744 q 283 417 251 522 q 373 240 315 313 q 509 129 431 167 q 682 92 588 92 q 778 106 733 92 q 865 144 824 119 q 942 203 906 169 q 1015 278 979 238 q 1044 288 1028 290 q 1078 269 1060 285 q 1101 242 1097 254 q 1094 214 1106 229 q 966 76 1033 129 q 828 -2 899 22 q 682 -26 757 -26 m 608 1393 q 576 1413 594 1393 q 557 1446 557 1432 q 558 1456 557 1451 q 568 1469 560 1461 l 763 1669 q 776 1681 769 1676 q 789 1685 782 1685 q 821 1672 803 1685 q 852 1643 839 1660 q 865 1613 865 1626 q 862 1596 865 1603 q 844 1578 858 1589 l 635 1407 q 620 1397 626 1401 q 608 1393 614 1393 z "},"Č":{"ha":1143,"x_min":121,"x_max":1106,"o":"m 682 -26 q 451 24 554 -26 q 274 166 347 75 q 160 381 200 257 q 121 656 121 506 q 139 843 121 754 q 191 1008 157 932 q 274 1144 225 1085 q 386 1247 324 1204 q 524 1313 449 1290 q 685 1335 600 1335 q 821 1319 753 1335 q 951 1265 889 1303 q 1061 1158 1014 1228 q 1068 1129 1074 1142 q 1046 1101 1063 1117 q 1013 1082 1026 1085 q 985 1093 999 1079 q 899 1160 947 1133 q 797 1202 851 1188 q 685 1217 743 1217 q 566 1200 622 1217 q 461 1150 510 1183 q 374 1069 413 1117 q 308 958 336 1021 q 266 820 281 896 q 251 656 251 744 q 283 417 251 522 q 373 240 315 313 q 509 129 431 167 q 682 92 588 92 q 778 106 733 92 q 865 144 824 119 q 942 203 906 169 q 1015 278 979 238 q 1044 288 1028 290 q 1078 269 1060 285 q 1101 242 1097 254 q 1094 214 1106 229 q 966 76 1033 129 q 828 -2 899 22 q 682 -26 757 -26 m 886 1685 q 917 1669 900 1685 q 935 1638 935 1653 q 934 1629 935 1635 q 926 1615 933 1624 l 735 1421 q 713 1403 725 1413 q 674 1393 701 1393 q 635 1403 647 1393 q 615 1421 624 1413 l 421 1615 q 414 1629 414 1624 q 414 1638 414 1635 q 431 1669 414 1653 q 463 1685 449 1685 q 478 1680 471 1685 q 497 1668 486 1675 l 674 1532 l 851 1668 q 869 1680 863 1675 q 886 1685 876 1685 z "},"Ç":{"ha":1143,"x_min":121,"x_max":1106,"o":"m 682 -26 q 451 24 554 -26 q 274 166 347 75 q 160 381 200 257 q 121 656 121 506 q 139 843 121 754 q 191 1008 157 932 q 274 1144 225 1085 q 386 1247 324 1204 q 524 1313 449 1290 q 685 1335 600 1335 q 821 1319 753 1335 q 951 1265 889 1303 q 1061 1158 1014 1228 q 1068 1129 1074 1142 q 1046 1101 1063 1117 q 1013 1082 1026 1085 q 985 1093 999 1079 q 899 1160 947 1133 q 797 1202 851 1188 q 685 1217 743 1217 q 566 1200 622 1217 q 461 1150 510 1183 q 374 1069 413 1117 q 308 958 336 1021 q 266 820 281 896 q 251 656 251 744 q 283 417 251 522 q 373 240 315 313 q 509 129 431 167 q 682 92 588 92 q 778 106 733 92 q 865 144 824 119 q 942 203 906 169 q 1015 278 979 238 q 1044 288 1028 290 q 1078 269 1060 285 q 1101 242 1097 254 q 1094 214 1106 229 q 966 76 1033 129 q 828 -2 899 22 q 682 -26 757 -26 m 631 -376 q 563 -368 607 -376 q 481 -337 518 -360 q 463 -312 465 -328 q 468 -281 461 -296 q 490 -256 478 -261 q 521 -257 503 -250 q 563 -272 536 -264 q 621 -281 589 -281 q 682 -269 664 -281 q 700 -232 700 -258 q 678 -194 700 -210 q 594 -187 656 -179 q 571 -186 579 -189 q 554 -174 563 -183 q 547 -154 547 -164 q 550 -135 546 -144 l 618 18 l 708 18 l 635 -146 l 593 -124 q 704 -108 656 -100 q 781 -149 753 -117 q 810 -232 810 -181 q 789 -309 810 -276 q 729 -359 768 -342 q 631 -376 690 -376 z "},"Ĉ":{"ha":1143,"x_min":121,"x_max":1106,"o":"m 682 -26 q 451 24 554 -26 q 274 166 347 75 q 160 381 200 257 q 121 656 121 506 q 139 843 121 754 q 191 1008 157 932 q 274 1144 225 1085 q 386 1247 324 1204 q 524 1313 449 1290 q 685 1335 600 1335 q 821 1319 753 1335 q 951 1265 889 1303 q 1061 1158 1014 1228 q 1068 1129 1074 1142 q 1046 1101 1063 1117 q 1013 1082 1026 1085 q 985 1093 999 1079 q 899 1160 947 1133 q 797 1202 851 1188 q 685 1217 743 1217 q 566 1200 622 1217 q 461 1150 510 1183 q 374 1069 413 1117 q 308 958 336 1021 q 266 820 281 896 q 251 656 251 744 q 283 417 251 522 q 373 240 315 313 q 509 129 431 167 q 682 92 588 92 q 778 106 733 92 q 865 144 824 119 q 942 203 906 169 q 1015 278 979 238 q 1044 288 1028 290 q 1078 269 1060 285 q 1101 242 1097 254 q 1094 214 1106 229 q 966 76 1033 129 q 828 -2 899 22 q 682 -26 757 -26 m 463 1393 q 431 1410 449 1393 q 414 1440 414 1426 q 414 1450 414 1444 q 421 1463 414 1456 l 613 1657 q 635 1676 622 1667 q 674 1685 647 1685 q 712 1676 700 1685 q 733 1657 724 1667 l 926 1463 q 934 1450 933 1456 q 935 1440 935 1444 q 917 1410 935 1426 q 886 1393 900 1393 q 869 1398 876 1393 q 851 1411 863 1403 l 674 1546 l 497 1411 q 478 1398 486 1403 q 463 1393 471 1393 z "},"Ċ":{"ha":1143,"x_min":121,"x_max":1106,"o":"m 682 -26 q 451 24 554 -26 q 274 166 347 75 q 160 381 200 257 q 121 656 121 506 q 139 843 121 754 q 191 1008 157 932 q 274 1144 225 1085 q 386 1247 324 1204 q 524 1313 449 1290 q 685 1335 600 1335 q 821 1319 753 1335 q 951 1265 889 1303 q 1061 1158 1014 1228 q 1068 1129 1074 1142 q 1046 1101 1063 1117 q 1013 1082 1026 1085 q 985 1093 999 1079 q 899 1160 947 1133 q 797 1202 851 1188 q 685 1217 743 1217 q 566 1200 622 1217 q 461 1150 510 1183 q 374 1069 413 1117 q 308 958 336 1021 q 266 820 281 896 q 251 656 251 744 q 283 417 251 522 q 373 240 315 313 q 509 129 431 167 q 682 92 588 92 q 778 106 733 92 q 865 144 824 119 q 942 203 906 169 q 1015 278 979 238 q 1044 288 1028 290 q 1078 269 1060 285 q 1101 242 1097 254 q 1094 214 1106 229 q 966 76 1033 129 q 828 -2 899 22 q 682 -26 757 -26 m 674 1439 q 615 1460 635 1439 q 596 1525 596 1482 q 615 1592 596 1569 q 674 1614 635 1614 q 731 1592 711 1614 q 750 1525 750 1569 q 731 1460 751 1482 q 674 1439 711 1439 z "},"Ď":{"ha":1282,"x_min":188,"x_max":1161,"o":"m 249 0 q 188 39 188 0 l 188 1275 q 203 1303 188 1294 q 249 1313 218 1313 l 517 1313 q 803 1265 682 1313 q 1003 1136 924 1218 q 1122 949 1083 1054 q 1161 724 1161 843 q 1133 480 1161 592 q 1049 279 1106 368 q 906 128 993 190 q 702 33 819 65 q 433 0 585 0 l 249 0 m 310 118 l 433 118 q 653 143 557 118 q 820 217 749 168 q 938 339 892 265 q 1006 508 983 413 q 1029 724 1029 604 q 997 910 1029 825 q 898 1060 964 996 q 737 1159 832 1124 q 517 1194 642 1194 l 310 1194 l 310 118 m 814 1685 q 845 1669 828 1685 q 863 1638 863 1653 q 862 1629 863 1635 q 854 1615 861 1624 l 663 1421 q 641 1403 653 1413 q 601 1393 629 1393 q 563 1403 575 1393 q 543 1421 551 1413 l 349 1615 q 342 1629 342 1624 q 342 1638 342 1635 q 359 1669 342 1653 q 390 1685 376 1685 q 406 1680 399 1685 q 425 1668 414 1675 l 601 1532 l 779 1668 q 797 1680 790 1675 q 814 1685 804 1685 z "},"Đ":{"ha":1282,"x_min":31,"x_max":1161,"o":"m 249 0 q 188 39 188 0 l 188 1275 q 203 1303 188 1294 q 249 1313 218 1313 l 517 1313 q 803 1265 682 1313 q 1003 1136 924 1218 q 1122 949 1083 1054 q 1161 724 1161 843 q 1133 480 1161 592 q 1049 279 1106 368 q 906 128 993 190 q 702 33 819 65 q 433 0 585 0 l 249 0 m 310 118 l 433 118 q 653 143 557 118 q 820 217 749 168 q 938 339 892 265 q 1006 508 983 413 q 1029 724 1029 604 q 997 910 1029 825 q 898 1060 964 996 q 737 1159 832 1124 q 517 1194 642 1194 l 310 1194 l 310 118 m 68 614 q 36 629 43 614 q 29 663 29 644 q 36 699 29 682 q 68 715 43 715 l 600 715 q 631 699 624 715 q 638 663 638 682 q 631 629 638 644 q 600 614 624 614 l 68 614 z "},"É":{"ha":978,"x_min":188,"x_max":921,"o":"m 249 0 q 203 14 218 0 q 188 56 188 28 l 188 1275 q 203 1303 188 1294 q 249 1313 218 1313 l 883 1313 q 913 1301 904 1313 q 921 1257 921 1289 q 913 1214 921 1226 q 883 1201 904 1201 l 310 1201 l 310 750 l 790 750 q 820 738 811 750 q 829 694 829 726 q 820 651 829 664 q 790 639 811 639 l 310 639 l 310 111 l 883 111 q 913 99 904 111 q 921 56 921 88 q 913 13 921 25 q 883 0 904 0 l 249 0 m 504 1393 q 472 1413 490 1393 q 453 1446 453 1432 q 454 1456 453 1451 q 464 1469 456 1461 l 658 1669 q 672 1681 665 1676 q 685 1685 678 1685 q 717 1672 699 1685 q 748 1643 735 1660 q 761 1613 761 1626 q 758 1596 761 1603 q 740 1578 754 1589 l 531 1407 q 516 1397 522 1401 q 504 1393 510 1393 z "},"Ĕ":{"ha":978,"x_min":188,"x_max":921,"o":"m 249 0 q 203 14 218 0 q 188 56 188 28 l 188 1275 q 203 1303 188 1294 q 249 1313 218 1313 l 883 1313 q 913 1301 904 1313 q 921 1257 921 1289 q 913 1214 921 1226 q 883 1201 904 1201 l 310 1201 l 310 750 l 790 750 q 820 738 811 750 q 829 694 829 726 q 820 651 829 664 q 790 639 811 639 l 310 639 l 310 111 l 883 111 q 913 99 904 111 q 921 56 921 88 q 913 13 921 25 q 883 0 904 0 l 249 0 m 569 1393 q 395 1456 463 1393 q 318 1643 328 1518 q 331 1672 317 1660 q 371 1683 344 1683 q 401 1673 393 1683 q 415 1643 410 1663 q 470 1549 433 1581 q 569 1517 507 1517 q 669 1549 632 1517 q 724 1643 707 1581 q 737 1673 729 1663 q 767 1683 744 1683 q 808 1672 793 1683 q 821 1643 822 1660 q 781 1508 815 1564 q 692 1422 746 1451 q 569 1393 638 1393 z "},"Ě":{"ha":978,"x_min":188,"x_max":921,"o":"m 249 0 q 203 14 218 0 q 188 56 188 28 l 188 1275 q 203 1303 188 1294 q 249 1313 218 1313 l 883 1313 q 913 1301 904 1313 q 921 1257 921 1289 q 913 1214 921 1226 q 883 1201 904 1201 l 310 1201 l 310 750 l 790 750 q 820 738 811 750 q 829 694 829 726 q 820 651 829 664 q 790 639 811 639 l 310 639 l 310 111 l 883 111 q 913 99 904 111 q 921 56 921 88 q 913 13 921 25 q 883 0 904 0 l 249 0 m 782 1685 q 813 1669 796 1685 q 831 1638 831 1653 q 830 1629 831 1635 q 822 1615 829 1624 l 631 1421 q 609 1403 621 1413 q 569 1393 597 1393 q 531 1403 543 1393 q 511 1421 519 1413 l 317 1615 q 310 1629 310 1624 q 310 1638 310 1635 q 327 1669 310 1653 q 358 1685 344 1685 q 374 1680 367 1685 q 393 1668 382 1675 l 569 1532 l 747 1668 q 765 1680 758 1675 q 782 1685 772 1685 z "},"Ê":{"ha":978,"x_min":188,"x_max":921,"o":"m 249 0 q 203 14 218 0 q 188 56 188 28 l 188 1275 q 203 1303 188 1294 q 249 1313 218 1313 l 883 1313 q 913 1301 904 1313 q 921 1257 921 1289 q 913 1214 921 1226 q 883 1201 904 1201 l 310 1201 l 310 750 l 790 750 q 820 738 811 750 q 829 694 829 726 q 820 651 829 664 q 790 639 811 639 l 310 639 l 310 111 l 883 111 q 913 99 904 111 q 921 56 921 88 q 913 13 921 25 q 883 0 904 0 l 249 0 m 358 1393 q 327 1410 344 1393 q 310 1440 310 1426 q 310 1450 310 1444 q 317 1463 310 1456 l 508 1657 q 531 1676 518 1667 q 569 1685 543 1685 q 608 1676 596 1685 q 629 1657 619 1667 l 822 1463 q 830 1450 829 1456 q 831 1440 831 1444 q 813 1410 831 1426 q 782 1393 796 1393 q 765 1398 772 1393 q 747 1411 758 1403 l 569 1546 l 393 1411 q 374 1398 382 1403 q 358 1393 367 1393 z "},"Ë":{"ha":978,"x_min":188,"x_max":921,"o":"m 249 0 q 203 14 218 0 q 188 56 188 28 l 188 1275 q 203 1303 188 1294 q 249 1313 218 1313 l 883 1313 q 913 1301 904 1313 q 921 1257 921 1289 q 913 1214 921 1226 q 883 1201 904 1201 l 310 1201 l 310 750 l 790 750 q 820 738 811 750 q 829 694 829 726 q 820 651 829 664 q 790 639 811 639 l 310 639 l 310 111 l 883 111 q 913 99 904 111 q 921 56 921 88 q 913 13 921 25 q 883 0 904 0 l 249 0 m 401 1439 q 343 1461 363 1439 q 324 1526 324 1483 q 343 1592 324 1571 q 401 1614 363 1614 q 459 1592 440 1614 q 478 1526 478 1571 q 460 1460 481 1482 q 401 1439 440 1439 m 739 1439 q 681 1461 700 1439 q 661 1526 661 1483 q 681 1592 661 1571 q 739 1614 700 1614 q 796 1592 776 1614 q 815 1526 815 1571 q 797 1461 817 1483 q 739 1439 776 1439 z "},"Ė":{"ha":978,"x_min":188,"x_max":921,"o":"m 249 0 q 203 14 218 0 q 188 56 188 28 l 188 1275 q 203 1303 188 1294 q 249 1313 218 1313 l 883 1313 q 913 1301 904 1313 q 921 1257 921 1289 q 913 1214 921 1226 q 883 1201 904 1201 l 310 1201 l 310 750 l 790 750 q 820 738 811 750 q 829 694 829 726 q 820 651 829 664 q 790 639 811 639 l 310 639 l 310 111 l 883 111 q 913 99 904 111 q 921 56 921 88 q 913 13 921 25 q 883 0 904 0 l 249 0 m 569 1439 q 511 1460 531 1439 q 492 1525 492 1482 q 511 1592 492 1569 q 569 1614 531 1614 q 626 1592 607 1614 q 646 1525 646 1569 q 627 1460 647 1482 q 569 1439 607 1439 z "},"È":{"ha":978,"x_min":188,"x_max":921,"o":"m 249 0 q 203 14 218 0 q 188 56 188 28 l 188 1275 q 203 1303 188 1294 q 249 1313 218 1313 l 883 1313 q 913 1301 904 1313 q 921 1257 921 1289 q 913 1214 921 1226 q 883 1201 904 1201 l 310 1201 l 310 750 l 790 750 q 820 738 811 750 q 829 694 829 726 q 820 651 829 664 q 790 639 811 639 l 310 639 l 310 111 l 883 111 q 913 99 904 111 q 921 56 921 88 q 913 13 921 25 q 883 0 904 0 l 249 0 m 635 1393 q 623 1397 629 1393 q 608 1407 617 1401 l 400 1578 q 383 1596 386 1589 q 379 1613 379 1603 q 392 1643 379 1626 q 422 1672 404 1660 q 454 1685 440 1685 q 469 1681 463 1685 q 481 1669 475 1676 l 675 1469 q 686 1456 685 1461 q 688 1446 688 1451 q 669 1413 688 1432 q 635 1393 650 1393 z "},"Ē":{"ha":978,"x_min":188,"x_max":921,"o":"m 249 0 q 203 14 218 0 q 188 56 188 28 l 188 1275 q 203 1303 188 1294 q 249 1313 218 1313 l 883 1313 q 913 1301 904 1313 q 921 1257 921 1289 q 913 1214 921 1226 q 883 1201 904 1201 l 310 1201 l 310 750 l 790 750 q 820 738 811 750 q 829 694 829 726 q 820 651 829 664 q 790 639 811 639 l 310 639 l 310 111 l 883 111 q 913 99 904 111 q 921 56 921 88 q 913 13 921 25 q 883 0 904 0 l 249 0 m 381 1479 q 350 1495 357 1479 q 343 1536 343 1511 q 350 1580 343 1563 q 381 1597 357 1597 l 758 1597 q 790 1580 783 1597 q 796 1536 796 1563 q 790 1495 796 1511 q 758 1479 783 1479 l 381 1479 z "},"Ę":{"ha":978,"x_min":188,"x_max":944,"o":"m 249 0 q 203 14 218 0 q 188 56 188 28 l 188 1275 q 203 1303 188 1294 q 249 1313 218 1313 l 883 1313 q 913 1301 904 1313 q 921 1257 921 1289 q 913 1214 921 1226 q 883 1201 904 1201 l 310 1201 l 310 750 l 790 750 q 820 738 811 750 q 829 694 829 726 q 820 651 829 664 q 790 639 811 639 l 310 639 l 310 111 l 883 111 q 913 99 904 111 q 921 56 921 88 q 913 13 921 25 q 883 0 904 0 l 249 0 m 767 -358 q 672 -327 713 -358 q 632 -235 632 -296 q 645 -165 632 -197 q 683 -101 658 -132 q 742 -37 707 -69 q 825 32 778 -4 l 911 33 l 911 21 q 849 -33 879 -6 q 794 -87 819 -60 q 755 -141 769 -114 q 740 -194 740 -168 q 754 -239 740 -225 q 790 -253 768 -253 q 828 -244 811 -253 q 872 -215 846 -236 q 896 -208 882 -208 q 924 -219 910 -207 q 941 -251 938 -233 q 938 -281 944 -269 q 890 -322 921 -304 q 827 -349 860 -340 q 767 -358 794 -358 z "},"Ế":{"ha":978,"x_min":188,"x_max":1036,"o":"m 249 0 q 203 14 218 0 q 188 56 188 28 l 188 1275 q 203 1303 188 1294 q 249 1313 218 1313 l 883 1313 q 913 1301 904 1313 q 921 1257 921 1289 q 913 1214 921 1226 q 883 1201 904 1201 l 310 1201 l 310 750 l 790 750 q 820 738 811 750 q 829 694 829 726 q 820 651 829 664 q 790 639 811 639 l 310 639 l 310 111 l 883 111 q 913 99 904 111 q 921 56 921 88 q 913 13 921 25 q 883 0 904 0 l 249 0 m 358 1393 q 327 1410 344 1393 q 310 1440 310 1426 q 310 1450 310 1444 q 317 1463 310 1456 l 508 1657 q 531 1676 518 1667 q 569 1685 543 1685 q 608 1676 596 1685 q 629 1657 619 1667 l 822 1463 q 830 1450 829 1456 q 831 1440 831 1444 q 813 1410 831 1426 q 782 1393 796 1393 q 765 1398 772 1393 q 747 1411 758 1403 l 569 1546 l 393 1411 q 374 1398 382 1403 q 358 1393 367 1393 m 788 1614 q 755 1633 774 1614 q 736 1667 736 1653 q 738 1676 736 1672 q 747 1690 739 1681 l 935 1879 q 947 1891 942 1886 q 960 1896 953 1896 q 992 1883 974 1896 q 1023 1853 1010 1871 q 1036 1821 1036 1836 q 1033 1806 1036 1811 q 1015 1786 1031 1800 l 814 1628 q 799 1618 806 1622 q 788 1614 793 1614 z "},"Ệ":{"ha":978,"x_min":188,"x_max":921,"o":"m 249 0 q 203 14 218 0 q 188 56 188 28 l 188 1275 q 203 1303 188 1294 q 249 1313 218 1313 l 883 1313 q 913 1301 904 1313 q 921 1257 921 1289 q 913 1214 921 1226 q 883 1201 904 1201 l 310 1201 l 310 750 l 790 750 q 820 738 811 750 q 829 694 829 726 q 820 651 829 664 q 790 639 811 639 l 310 639 l 310 111 l 883 111 q 913 99 904 111 q 921 56 921 88 q 913 13 921 25 q 883 0 904 0 l 249 0 m 543 -326 q 485 -305 504 -326 q 465 -239 465 -283 q 485 -173 465 -194 q 543 -151 504 -151 q 600 -173 581 -151 q 619 -239 619 -194 q 601 -305 621 -283 q 543 -326 581 -326 m 358 1393 q 327 1410 344 1393 q 310 1440 310 1426 q 310 1450 310 1444 q 317 1463 310 1456 l 508 1657 q 531 1676 518 1667 q 569 1685 543 1685 q 608 1676 596 1685 q 629 1657 619 1667 l 822 1463 q 830 1450 829 1456 q 831 1440 831 1444 q 813 1410 831 1426 q 782 1393 796 1393 q 765 1398 772 1393 q 747 1411 758 1403 l 569 1546 l 393 1411 q 374 1398 382 1403 q 358 1393 367 1393 z "},"Ề":{"ha":978,"x_min":188,"x_max":926,"o":"m 249 0 q 203 14 218 0 q 188 56 188 28 l 188 1275 q 203 1303 188 1294 q 249 1313 218 1313 l 883 1313 q 913 1301 904 1313 q 921 1257 921 1289 q 913 1214 921 1226 q 883 1201 904 1201 l 310 1201 l 310 750 l 790 750 q 820 738 811 750 q 829 694 829 726 q 820 651 829 664 q 790 639 811 639 l 310 639 l 310 111 l 883 111 q 913 99 904 111 q 921 56 921 88 q 913 13 921 25 q 883 0 904 0 l 249 0 m 358 1393 q 327 1410 344 1393 q 310 1440 310 1426 q 310 1450 310 1444 q 317 1463 310 1456 l 508 1657 q 531 1676 518 1667 q 569 1685 543 1685 q 608 1676 596 1685 q 629 1657 619 1667 l 822 1463 q 830 1450 829 1456 q 831 1440 831 1444 q 813 1410 831 1426 q 782 1393 796 1393 q 765 1398 772 1393 q 747 1411 758 1403 l 569 1546 l 393 1411 q 374 1398 382 1403 q 358 1393 367 1393 m 874 1594 q 862 1597 868 1594 q 847 1607 856 1600 l 653 1789 q 635 1808 639 1803 q 632 1824 632 1814 q 645 1855 632 1838 q 676 1885 658 1872 q 708 1897 694 1897 q 722 1893 715 1897 q 735 1882 729 1889 l 914 1671 q 924 1656 921 1661 q 926 1646 926 1651 q 908 1613 926 1632 q 874 1594 890 1594 z "},"Ể":{"ha":978,"x_min":188,"x_max":975,"o":"m 249 0 q 203 14 218 0 q 188 56 188 28 l 188 1275 q 203 1303 188 1294 q 249 1313 218 1313 l 883 1313 q 913 1301 904 1313 q 921 1257 921 1289 q 913 1214 921 1226 q 883 1201 904 1201 l 310 1201 l 310 750 l 790 750 q 820 738 811 750 q 829 694 829 726 q 820 651 829 664 q 790 639 811 639 l 310 639 l 310 111 l 883 111 q 913 99 904 111 q 921 56 921 88 q 913 13 921 25 q 883 0 904 0 l 249 0 m 358 1393 q 327 1410 344 1393 q 310 1440 310 1426 q 310 1450 310 1444 q 317 1463 310 1456 l 508 1657 q 531 1676 518 1667 q 569 1685 543 1685 q 608 1676 596 1685 q 629 1657 619 1667 l 822 1463 q 830 1450 829 1456 q 831 1440 831 1444 q 813 1410 831 1426 q 782 1393 796 1393 q 765 1398 772 1393 q 747 1411 758 1403 l 569 1546 l 393 1411 q 374 1398 382 1403 q 358 1393 367 1393 m 824 1911 q 933 1878 892 1911 q 975 1790 975 1844 q 958 1727 975 1754 q 903 1671 942 1700 q 878 1646 885 1657 q 875 1621 872 1635 l 876 1611 q 869 1585 881 1596 q 839 1569 857 1574 q 805 1569 821 1565 q 782 1588 789 1574 l 767 1625 q 767 1684 756 1657 q 808 1733 778 1711 q 836 1758 828 1747 q 844 1781 844 1769 q 833 1801 844 1792 q 801 1810 821 1810 q 760 1803 782 1810 q 726 1788 739 1797 q 668 1810 693 1767 q 676 1864 651 1842 q 744 1898 706 1885 q 824 1911 783 1911 z "},"Ễ":{"ha":978,"x_min":188,"x_max":921,"o":"m 249 0 q 203 14 218 0 q 188 56 188 28 l 188 1275 q 203 1303 188 1294 q 249 1313 218 1313 l 883 1313 q 913 1301 904 1313 q 921 1257 921 1289 q 913 1214 921 1226 q 883 1201 904 1201 l 310 1201 l 310 750 l 790 750 q 820 738 811 750 q 829 694 829 726 q 820 651 829 664 q 790 639 811 639 l 310 639 l 310 111 l 883 111 q 913 99 904 111 q 921 56 921 88 q 913 13 921 25 q 883 0 904 0 l 249 0 m 358 1393 q 327 1410 344 1393 q 310 1440 310 1426 q 310 1450 310 1444 q 317 1463 310 1456 l 508 1657 q 531 1676 518 1667 q 569 1685 543 1685 q 608 1676 596 1685 q 629 1657 619 1667 l 822 1463 q 830 1450 829 1456 q 831 1440 831 1444 q 813 1410 831 1426 q 782 1393 796 1393 q 765 1398 772 1393 q 747 1411 758 1403 l 569 1546 l 393 1411 q 374 1398 382 1403 q 358 1393 367 1393 m 365 1701 q 318 1738 318 1701 q 355 1869 321 1825 q 457 1914 389 1914 q 531 1898 499 1914 q 591 1862 564 1882 q 641 1826 618 1842 q 686 1810 664 1810 q 716 1832 706 1810 q 729 1886 726 1854 q 776 1917 731 1917 q 815 1907 803 1917 q 826 1878 826 1897 q 790 1747 825 1790 q 686 1703 756 1703 q 613 1719 646 1703 q 551 1756 579 1735 q 501 1792 524 1776 q 457 1808 478 1808 q 428 1791 438 1808 q 415 1738 418 1774 q 401 1710 414 1719 q 365 1701 389 1701 z "},"Ẹ":{"ha":978,"x_min":188,"x_max":921,"o":"m 249 0 q 203 14 218 0 q 188 56 188 28 l 188 1275 q 203 1303 188 1294 q 249 1313 218 1313 l 883 1313 q 913 1301 904 1313 q 921 1257 921 1289 q 913 1214 921 1226 q 883 1201 904 1201 l 310 1201 l 310 750 l 790 750 q 820 738 811 750 q 829 694 829 726 q 820 651 829 664 q 790 639 811 639 l 310 639 l 310 111 l 883 111 q 913 99 904 111 q 921 56 921 88 q 913 13 921 25 q 883 0 904 0 l 249 0 m 543 -326 q 485 -305 504 -326 q 465 -239 465 -283 q 485 -173 465 -194 q 543 -151 504 -151 q 600 -173 581 -151 q 619 -239 619 -194 q 601 -305 621 -283 q 543 -326 581 -326 z "},"Ẻ":{"ha":978,"x_min":188,"x_max":921,"o":"m 249 0 q 203 14 218 0 q 188 56 188 28 l 188 1275 q 203 1303 188 1294 q 249 1313 218 1313 l 883 1313 q 913 1301 904 1313 q 921 1257 921 1289 q 913 1214 921 1226 q 883 1201 904 1201 l 310 1201 l 310 750 l 790 750 q 820 738 811 750 q 829 694 829 726 q 820 651 829 664 q 790 639 811 639 l 310 639 l 310 111 l 883 111 q 913 99 904 111 q 921 56 921 88 q 913 13 921 25 q 883 0 904 0 l 249 0 m 585 1724 q 694 1691 653 1724 q 736 1603 736 1658 q 719 1540 736 1568 q 664 1485 703 1513 q 640 1459 646 1471 q 636 1435 633 1447 l 638 1424 q 630 1399 642 1410 q 600 1383 618 1388 q 566 1382 582 1378 q 543 1401 550 1386 l 528 1438 q 528 1497 517 1469 q 569 1547 539 1525 q 597 1572 589 1561 q 606 1594 606 1583 q 594 1614 606 1606 q 563 1622 582 1622 q 522 1617 543 1622 q 488 1601 500 1611 q 429 1624 454 1581 q 438 1678 413 1656 q 506 1711 467 1699 q 585 1724 544 1724 z "},"Ẽ":{"ha":978,"x_min":188,"x_max":921,"o":"m 249 0 q 203 14 218 0 q 188 56 188 28 l 188 1275 q 203 1303 188 1294 q 249 1313 218 1313 l 883 1313 q 913 1301 904 1313 q 921 1257 921 1289 q 913 1214 921 1226 q 883 1201 904 1201 l 310 1201 l 310 750 l 790 750 q 820 738 811 750 q 829 694 829 726 q 820 651 829 664 q 790 639 811 639 l 310 639 l 310 111 l 883 111 q 913 99 904 111 q 921 56 921 88 q 913 13 921 25 q 883 0 904 0 l 249 0 m 360 1432 q 313 1468 313 1432 q 349 1600 315 1556 q 450 1644 383 1644 q 526 1628 493 1644 q 585 1592 558 1613 q 634 1556 611 1572 q 681 1540 657 1540 q 709 1563 699 1540 q 722 1617 719 1585 q 769 1647 725 1647 q 808 1638 796 1647 q 819 1608 819 1628 q 783 1477 818 1521 q 681 1433 749 1433 q 606 1449 640 1433 q 545 1486 572 1465 q 494 1523 518 1507 q 450 1539 471 1539 q 422 1522 432 1539 q 410 1468 413 1504 q 396 1441 408 1450 q 360 1432 383 1432 z "},"Ğ":{"ha":1292,"x_min":121,"x_max":1161,"o":"m 664 -26 q 442 26 542 -25 q 271 167 343 76 q 160 382 199 258 q 121 656 121 506 q 139 843 121 754 q 191 1008 157 932 q 274 1144 225 1085 q 386 1247 324 1204 q 524 1313 449 1290 q 685 1335 600 1335 q 821 1319 753 1335 q 950 1266 889 1304 q 1060 1158 1011 1228 q 1067 1129 1072 1142 q 1044 1101 1061 1117 q 1011 1082 1025 1085 q 983 1093 997 1079 q 899 1160 946 1133 q 798 1202 851 1188 q 685 1217 744 1217 q 566 1200 622 1217 q 461 1150 510 1183 q 374 1069 413 1117 q 308 958 336 1021 q 266 820 281 896 q 251 656 251 744 q 283 417 251 522 q 371 240 314 313 q 502 129 428 167 q 664 92 576 92 q 793 110 735 92 q 896 165 851 128 q 971 262 940 203 q 1017 402 1001 321 q 1035 589 1033 483 l 697 589 q 667 601 676 589 q 658 644 658 614 q 667 688 658 676 q 697 700 676 700 l 1122 700 q 1152 688 1143 700 q 1161 644 1161 676 q 1123 336 1161 464 q 1017 128 1085 208 q 858 10 949 47 q 664 -26 768 -26 m 664 1393 q 490 1456 557 1393 q 413 1643 422 1518 q 425 1672 411 1660 q 465 1683 439 1683 q 496 1673 488 1683 q 510 1643 504 1663 q 565 1549 528 1581 q 664 1517 601 1517 q 764 1549 726 1517 q 818 1643 801 1581 q 831 1673 824 1663 q 861 1683 839 1683 q 902 1672 888 1683 q 915 1643 917 1660 q 875 1508 910 1564 q 786 1422 840 1451 q 664 1393 732 1393 z "},"Ĝ":{"ha":1292,"x_min":121,"x_max":1161,"o":"m 664 -26 q 442 26 542 -25 q 271 167 343 76 q 160 382 199 258 q 121 656 121 506 q 139 843 121 754 q 191 1008 157 932 q 274 1144 225 1085 q 386 1247 324 1204 q 524 1313 449 1290 q 685 1335 600 1335 q 821 1319 753 1335 q 950 1266 889 1304 q 1060 1158 1011 1228 q 1067 1129 1072 1142 q 1044 1101 1061 1117 q 1011 1082 1025 1085 q 983 1093 997 1079 q 899 1160 946 1133 q 798 1202 851 1188 q 685 1217 744 1217 q 566 1200 622 1217 q 461 1150 510 1183 q 374 1069 413 1117 q 308 958 336 1021 q 266 820 281 896 q 251 656 251 744 q 283 417 251 522 q 371 240 314 313 q 502 129 428 167 q 664 92 576 92 q 793 110 735 92 q 896 165 851 128 q 971 262 940 203 q 1017 402 1001 321 q 1035 589 1033 483 l 697 589 q 667 601 676 589 q 658 644 658 614 q 667 688 658 676 q 697 700 676 700 l 1122 700 q 1152 688 1143 700 q 1161 644 1161 676 q 1123 336 1161 464 q 1017 128 1085 208 q 858 10 949 47 q 664 -26 768 -26 m 453 1393 q 422 1410 439 1393 q 404 1440 404 1426 q 404 1450 404 1444 q 411 1463 404 1456 l 603 1657 q 625 1676 613 1667 q 664 1685 638 1685 q 702 1676 690 1685 q 724 1657 714 1667 l 917 1463 q 924 1450 924 1456 q 925 1440 925 1444 q 908 1410 925 1426 q 876 1393 890 1393 q 860 1398 867 1393 q 842 1411 853 1403 l 664 1546 l 488 1411 q 469 1398 476 1403 q 453 1393 461 1393 z "},"Ģ":{"ha":1292,"x_min":121,"x_max":1161,"o":"m 664 -26 q 442 26 542 -25 q 271 167 343 76 q 160 382 199 258 q 121 656 121 506 q 139 843 121 754 q 191 1008 157 932 q 274 1144 225 1085 q 386 1247 324 1204 q 524 1313 449 1290 q 685 1335 600 1335 q 821 1319 753 1335 q 950 1266 889 1304 q 1060 1158 1011 1228 q 1067 1129 1072 1142 q 1044 1101 1061 1117 q 1011 1082 1025 1085 q 983 1093 997 1079 q 899 1160 946 1133 q 798 1202 851 1188 q 685 1217 744 1217 q 566 1200 622 1217 q 461 1150 510 1183 q 374 1069 413 1117 q 308 958 336 1021 q 266 820 281 896 q 251 656 251 744 q 283 417 251 522 q 371 240 314 313 q 502 129 428 167 q 664 92 576 92 q 793 110 735 92 q 896 165 851 128 q 971 262 940 203 q 1017 402 1001 321 q 1035 589 1033 483 l 697 589 q 667 601 676 589 q 658 644 658 614 q 667 688 658 676 q 697 700 676 700 l 1122 700 q 1152 688 1143 700 q 1161 644 1161 676 q 1123 336 1161 464 q 1017 128 1085 208 q 858 10 949 47 q 664 -26 768 -26 m 568 -411 q 547 -392 551 -404 q 550 -360 543 -381 q 575 -285 567 -317 q 585 -220 583 -253 q 588 -146 588 -187 q 601 -112 588 -122 q 640 -103 614 -103 q 690 -118 672 -103 q 707 -160 707 -133 q 697 -235 707 -194 q 671 -315 688 -275 q 632 -387 654 -354 q 604 -414 618 -410 q 568 -411 590 -418 z "},"Ġ":{"ha":1292,"x_min":121,"x_max":1161,"o":"m 664 -26 q 442 26 542 -25 q 271 167 343 76 q 160 382 199 258 q 121 656 121 506 q 139 843 121 754 q 191 1008 157 932 q 274 1144 225 1085 q 386 1247 324 1204 q 524 1313 449 1290 q 685 1335 600 1335 q 821 1319 753 1335 q 950 1266 889 1304 q 1060 1158 1011 1228 q 1067 1129 1072 1142 q 1044 1101 1061 1117 q 1011 1082 1025 1085 q 983 1093 997 1079 q 899 1160 946 1133 q 798 1202 851 1188 q 685 1217 744 1217 q 566 1200 622 1217 q 461 1150 510 1183 q 374 1069 413 1117 q 308 958 336 1021 q 266 820 281 896 q 251 656 251 744 q 283 417 251 522 q 371 240 314 313 q 502 129 428 167 q 664 92 576 92 q 793 110 735 92 q 896 165 851 128 q 971 262 940 203 q 1017 402 1001 321 q 1035 589 1033 483 l 697 589 q 667 601 676 589 q 658 644 658 614 q 667 688 658 676 q 697 700 676 700 l 1122 700 q 1152 688 1143 700 q 1161 644 1161 676 q 1123 336 1161 464 q 1017 128 1085 208 q 858 10 949 47 q 664 -26 768 -26 m 664 1439 q 606 1460 625 1439 q 586 1525 586 1482 q 606 1592 586 1569 q 664 1614 625 1614 q 721 1592 701 1614 q 740 1525 740 1569 q 722 1460 742 1482 q 664 1439 701 1439 z "},"Ħ":{"ha":1310,"x_min":51,"x_max":1260,"o":"m 249 -19 q 188 19 188 -19 l 188 1297 q 203 1326 188 1317 q 249 1335 218 1335 q 310 1297 310 1335 l 310 743 l 1000 743 l 1000 1297 q 1015 1326 1000 1317 q 1061 1335 1031 1335 q 1122 1297 1122 1335 l 1122 19 q 1107 -10 1122 0 q 1061 -19 1092 -19 q 1000 19 1000 -19 l 1000 632 l 310 632 l 310 19 q 294 -10 310 0 q 249 -19 279 -19 m 89 960 q 58 974 64 960 q 51 1011 51 988 q 58 1052 51 1038 q 89 1067 64 1067 l 1222 1067 q 1254 1052 1247 1067 q 1261 1011 1261 1038 q 1254 974 1261 988 q 1222 960 1247 960 l 89 960 z "},"Ĥ":{"ha":1310,"x_min":188,"x_max":1122,"o":"m 249 -19 q 188 19 188 -19 l 188 1297 q 203 1326 188 1317 q 249 1335 218 1335 q 310 1297 310 1335 l 310 743 l 1000 743 l 1000 1297 q 1015 1326 1000 1317 q 1061 1335 1031 1335 q 1122 1297 1122 1335 l 1122 19 q 1107 -10 1122 0 q 1061 -19 1092 -19 q 1000 19 1000 -19 l 1000 632 l 310 632 l 310 19 q 294 -10 310 0 q 249 -19 279 -19 m 444 1393 q 413 1410 431 1393 q 396 1440 396 1426 q 396 1450 396 1444 q 403 1463 396 1456 l 594 1657 q 617 1676 604 1667 q 656 1685 629 1685 q 694 1676 682 1685 q 715 1657 706 1667 l 908 1463 q 916 1450 915 1456 q 917 1440 917 1444 q 899 1410 917 1426 q 868 1393 882 1393 q 851 1398 858 1393 q 833 1411 844 1403 l 656 1546 l 479 1411 q 460 1398 468 1403 q 444 1393 453 1393 z "},"Í":{"ha":499,"x_min":133,"x_max":440,"o":"m 250 -19 q 204 -10 219 -19 q 189 19 189 0 l 189 1297 q 204 1326 189 1317 q 250 1335 219 1335 q 294 1326 279 1335 q 310 1297 310 1317 l 310 19 q 294 -10 310 0 q 250 -19 279 -19 m 183 1393 q 151 1413 169 1393 q 132 1446 132 1432 q 133 1456 132 1451 q 143 1469 135 1461 l 338 1669 q 351 1681 344 1676 q 364 1685 357 1685 q 396 1672 378 1685 q 427 1643 414 1660 q 440 1613 440 1626 q 437 1596 440 1603 q 419 1578 433 1589 l 210 1407 q 195 1397 201 1401 q 183 1393 189 1393 z "},"Ĭ":{"ha":499,"x_min":-3,"x_max":501,"o":"m 250 -19 q 204 -10 219 -19 q 189 19 189 0 l 189 1297 q 204 1326 189 1317 q 250 1335 219 1335 q 294 1326 279 1335 q 310 1297 310 1317 l 310 19 q 294 -10 310 0 q 250 -19 279 -19 m 249 1393 q 74 1456 142 1393 q -3 1643 7 1518 q 10 1672 -4 1660 q 50 1683 24 1683 q 81 1673 72 1683 q 94 1643 89 1663 q 149 1549 113 1581 q 249 1517 186 1517 q 349 1549 311 1517 q 403 1643 386 1581 q 416 1673 408 1663 q 446 1683 424 1683 q 487 1672 472 1683 q 500 1643 501 1660 q 460 1508 494 1564 q 371 1422 425 1451 q 249 1393 317 1393 z "},"Ǐ":{"ha":499,"x_min":-11,"x_max":510,"o":"m 250 -19 q 204 -10 219 -19 q 189 19 189 0 l 189 1297 q 204 1326 189 1317 q 250 1335 219 1335 q 294 1326 279 1335 q 310 1297 310 1317 l 310 19 q 294 -10 310 0 q 250 -19 279 -19 m 461 1685 q 492 1669 475 1685 q 510 1638 510 1653 q 509 1629 510 1635 q 501 1615 508 1624 l 310 1421 q 288 1403 300 1413 q 249 1393 276 1393 q 210 1403 222 1393 q 190 1421 199 1413 l -4 1615 q -11 1629 -11 1624 q -11 1638 -11 1635 q 6 1669 -11 1653 q 38 1685 24 1685 q 53 1680 46 1685 q 72 1668 61 1675 l 249 1532 l 426 1668 q 444 1680 438 1675 q 461 1685 451 1685 z "},"Î":{"ha":499,"x_min":-11,"x_max":510,"o":"m 250 -19 q 204 -10 219 -19 q 189 19 189 0 l 189 1297 q 204 1326 189 1317 q 250 1335 219 1335 q 294 1326 279 1335 q 310 1297 310 1317 l 310 19 q 294 -10 310 0 q 250 -19 279 -19 m 38 1393 q 6 1410 24 1393 q -11 1440 -11 1426 q -11 1450 -11 1444 q -4 1463 -11 1456 l 188 1657 q 210 1676 197 1667 q 249 1685 222 1685 q 287 1676 275 1685 q 308 1657 299 1667 l 501 1463 q 509 1450 508 1456 q 510 1440 510 1444 q 492 1410 510 1426 q 461 1393 475 1393 q 444 1398 451 1393 q 426 1411 438 1403 l 249 1546 l 72 1411 q 53 1398 61 1403 q 38 1393 46 1393 z "},"Ï":{"ha":499,"x_min":3,"x_max":497,"o":"m 250 -19 q 204 -10 219 -19 q 189 19 189 0 l 189 1297 q 204 1326 189 1317 q 250 1335 219 1335 q 294 1326 279 1335 q 310 1297 310 1317 l 310 19 q 294 -10 310 0 q 250 -19 279 -19 m 81 1439 q 22 1461 42 1439 q 3 1526 3 1483 q 22 1592 3 1571 q 81 1614 42 1614 q 138 1592 119 1614 q 157 1526 157 1571 q 140 1460 160 1482 q 81 1439 119 1439 m 418 1439 q 360 1461 379 1439 q 340 1526 340 1483 q 360 1592 340 1571 q 418 1614 379 1614 q 475 1592 456 1614 q 494 1526 494 1571 q 476 1461 496 1483 q 418 1439 456 1439 z "},"İ":{"ha":499,"x_min":171,"x_max":326,"o":"m 250 -19 q 204 -10 219 -19 q 189 19 189 0 l 189 1297 q 204 1326 189 1317 q 250 1335 219 1335 q 294 1326 279 1335 q 310 1297 310 1317 l 310 19 q 294 -10 310 0 q 250 -19 279 -19 m 249 1439 q 190 1460 210 1439 q 171 1525 171 1482 q 190 1592 171 1569 q 249 1614 210 1614 q 306 1592 286 1614 q 325 1525 325 1569 q 306 1460 326 1482 q 249 1439 286 1439 z "},"Ì":{"ha":499,"x_min":58,"x_max":367,"o":"m 250 -19 q 204 -10 219 -19 q 189 19 189 0 l 189 1297 q 204 1326 189 1317 q 250 1335 219 1335 q 294 1326 279 1335 q 310 1297 310 1317 l 310 19 q 294 -10 310 0 q 250 -19 279 -19 m 314 1393 q 302 1397 308 1393 q 288 1407 296 1401 l 79 1578 q 62 1596 65 1589 q 58 1613 58 1603 q 71 1643 58 1626 q 101 1672 83 1660 q 133 1685 119 1685 q 148 1681 142 1685 q 160 1669 154 1676 l 354 1469 q 365 1456 364 1461 q 367 1446 367 1451 q 348 1413 367 1432 q 314 1393 329 1393 z "},"Ī":{"ha":499,"x_min":22,"x_max":476,"o":"m 250 -19 q 204 -10 219 -19 q 189 19 189 0 l 189 1297 q 204 1326 189 1317 q 250 1335 219 1335 q 294 1326 279 1335 q 310 1297 310 1317 l 310 19 q 294 -10 310 0 q 250 -19 279 -19 m 60 1479 q 29 1495 36 1479 q 22 1536 22 1511 q 29 1580 22 1563 q 60 1597 36 1597 l 438 1597 q 469 1580 463 1597 q 475 1536 475 1563 q 469 1495 475 1511 q 438 1479 463 1479 l 60 1479 z "},"Į":{"ha":499,"x_min":24,"x_max":335,"o":"m 250 -19 q 204 -10 219 -19 q 189 19 189 0 l 189 1297 q 204 1326 189 1317 q 250 1335 219 1335 q 294 1326 279 1335 q 310 1297 310 1317 l 310 19 q 294 -10 310 0 q 250 -19 279 -19 m 158 -369 q 64 -338 104 -369 q 24 -246 24 -307 q 37 -176 24 -208 q 74 -112 50 -143 q 134 -48 99 -81 q 217 21 169 -15 l 303 22 l 303 10 q 241 -44 271 -17 q 186 -98 211 -71 q 147 -152 161 -125 q 132 -206 132 -179 q 146 -250 132 -236 q 182 -264 160 -264 q 220 -256 203 -264 q 264 -226 238 -247 q 288 -219 274 -219 q 315 -231 301 -218 q 333 -262 329 -244 q 329 -292 336 -281 q 282 -333 313 -315 q 219 -360 251 -351 q 158 -369 186 -369 z "},"Ĩ":{"ha":499,"x_min":-8,"x_max":500,"o":"m 250 -19 q 204 -10 219 -19 q 189 19 189 0 l 189 1297 q 204 1326 189 1317 q 250 1335 219 1335 q 294 1326 279 1335 q 310 1297 310 1317 l 310 19 q 294 -10 310 0 q 250 -19 279 -19 m 39 1432 q -8 1468 -8 1432 q 28 1600 -6 1556 q 129 1644 63 1644 q 205 1628 172 1644 q 264 1592 238 1613 q 313 1556 290 1572 q 360 1540 336 1540 q 388 1563 378 1540 q 401 1617 399 1585 q 449 1647 404 1647 q 487 1638 475 1647 q 499 1608 499 1628 q 463 1477 497 1521 q 360 1433 428 1433 q 285 1449 319 1433 q 224 1486 251 1465 q 174 1523 197 1507 q 129 1539 150 1539 q 101 1522 111 1539 q 89 1468 92 1504 q 75 1441 88 1450 q 39 1432 63 1432 z "},"Ị":{"ha":499,"x_min":171,"x_max":326,"o":"m 250 -19 q 204 -10 219 -19 q 189 19 189 0 l 189 1297 q 204 1326 189 1317 q 250 1335 219 1335 q 294 1326 279 1335 q 310 1297 310 1317 l 310 19 q 294 -10 310 0 q 250 -19 279 -19 m 249 -326 q 190 -305 210 -326 q 171 -239 171 -283 q 190 -173 171 -194 q 249 -151 210 -151 q 306 -173 286 -151 q 325 -239 325 -194 q 306 -305 326 -283 q 249 -326 286 -326 z "},"Ỉ":{"ha":499,"x_min":92,"x_max":415,"o":"m 250 -19 q 204 -10 219 -19 q 189 19 189 0 l 189 1297 q 204 1326 189 1317 q 250 1335 219 1335 q 294 1326 279 1335 q 310 1297 310 1317 l 310 19 q 294 -10 310 0 q 250 -19 279 -19 m 264 1724 q 374 1691 332 1724 q 415 1603 415 1658 q 399 1540 415 1568 q 343 1485 382 1513 q 319 1459 325 1471 q 315 1435 313 1447 l 317 1424 q 309 1399 321 1410 q 279 1383 297 1388 q 245 1382 261 1378 q 222 1401 229 1386 l 207 1438 q 207 1497 196 1469 q 249 1547 218 1525 q 276 1572 268 1561 q 285 1594 285 1583 q 273 1614 285 1606 q 242 1622 261 1622 q 201 1617 222 1622 q 167 1601 179 1611 q 108 1624 133 1581 q 117 1678 92 1656 q 185 1711 146 1699 q 264 1724 224 1724 z "},"Ĵ":{"ha":958,"x_min":51,"x_max":999,"o":"m 426 -26 q 263 4 336 -26 q 137 94 189 35 q 57 242 85 154 q 63 274 51 263 q 96 292 75 286 q 133 297 117 299 q 157 275 150 296 q 215 173 182 214 q 297 112 247 132 q 426 92 347 92 q 506 103 468 92 q 576 139 544 115 q 630 199 607 163 q 665 288 653 236 q 676 407 676 340 l 676 1297 q 692 1326 676 1317 q 738 1335 707 1335 q 783 1326 768 1335 q 799 1297 799 1317 l 799 407 q 781 254 799 322 q 729 133 763 186 q 650 45 696 81 q 548 -8 604 10 q 426 -26 492 -26 m 526 1393 q 495 1410 513 1393 q 478 1440 478 1426 q 478 1450 478 1444 q 485 1463 478 1456 l 676 1657 q 699 1676 686 1667 q 738 1685 711 1685 q 776 1676 764 1685 q 797 1657 788 1667 l 990 1463 q 998 1450 997 1456 q 999 1440 999 1444 q 981 1410 999 1426 q 950 1393 964 1393 q 933 1398 940 1393 q 915 1411 926 1403 l 738 1546 l 561 1411 q 542 1398 550 1403 q 526 1393 535 1393 z "},"Ķ":{"ha":1015,"x_min":188,"x_max":997,"o":"m 249 -19 q 203 -10 218 -19 q 188 21 188 0 l 188 1297 q 249 1335 188 1335 q 310 1297 310 1335 l 310 757 l 889 1322 q 922 1335 907 1340 q 956 1311 938 1331 q 976 1274 975 1289 q 964 1246 978 1260 l 400 692 q 599 448 504 560 q 787 244 694 336 q 974 75 879 151 q 993 42 989 64 q 971 -6 997 21 q 933 -23 953 -22 q 893 -7 914 -24 q 734 135 813 58 q 581 295 656 213 q 439 463 507 378 q 310 633 371 549 l 310 21 q 295 -10 310 0 q 249 -19 281 -19 m 485 -411 q 464 -392 468 -404 q 467 -360 460 -381 q 492 -285 483 -317 q 502 -220 500 -253 q 504 -146 504 -187 q 517 -112 504 -122 q 557 -103 531 -103 q 606 -118 589 -103 q 624 -160 624 -133 q 614 -235 624 -194 q 588 -315 604 -275 q 549 -387 571 -354 q 521 -414 535 -410 q 485 -411 507 -418 z "},"Ĺ":{"ha":922,"x_min":133,"x_max":885,"o":"m 249 0 q 188 56 188 0 l 188 1297 q 203 1326 188 1317 q 249 1335 218 1335 q 294 1326 279 1335 q 310 1297 310 1317 l 310 111 l 847 111 q 876 99 868 111 q 885 56 885 88 q 876 13 885 25 q 847 0 868 0 l 249 0 m 183 1393 q 151 1413 169 1393 q 132 1446 132 1432 q 133 1456 132 1451 q 143 1469 135 1461 l 338 1669 q 351 1681 344 1676 q 364 1685 357 1685 q 396 1672 378 1685 q 427 1643 414 1660 q 440 1613 440 1626 q 437 1596 440 1603 q 419 1578 433 1589 l 210 1407 q 195 1397 201 1401 q 183 1393 189 1393 z "},"Ľ":{"ha":922,"x_min":188,"x_max":885,"o":"m 249 0 q 188 56 188 0 l 188 1297 q 203 1326 188 1317 q 249 1335 218 1335 q 294 1326 279 1335 q 310 1297 310 1317 l 310 111 l 847 111 q 876 99 868 111 q 885 56 885 88 q 876 13 885 25 q 847 0 868 0 l 249 0 m 474 1000 q 442 1018 450 1008 q 439 1046 433 1028 q 456 1124 449 1076 q 469 1220 464 1171 q 476 1304 475 1269 q 490 1329 476 1319 q 536 1339 503 1339 q 586 1329 571 1339 q 601 1304 601 1319 q 589 1213 600 1267 q 562 1106 578 1160 q 528 1014 546 1053 q 513 997 522 1004 q 474 1000 504 990 z "},"Ļ":{"ha":922,"x_min":188,"x_max":885,"o":"m 249 0 q 188 56 188 0 l 188 1297 q 203 1326 188 1317 q 249 1335 218 1335 q 294 1326 279 1335 q 310 1297 310 1317 l 310 111 l 847 111 q 876 99 868 111 q 885 56 885 88 q 876 13 885 25 q 847 0 868 0 l 249 0 m 475 -411 q 454 -392 458 -404 q 457 -360 450 -381 q 482 -285 474 -317 q 492 -220 490 -253 q 494 -146 494 -187 q 508 -112 494 -122 q 547 -103 521 -103 q 597 -118 579 -103 q 614 -160 614 -133 q 604 -235 614 -194 q 578 -315 594 -275 q 539 -387 561 -354 q 511 -414 525 -410 q 475 -411 497 -418 z "},"Ŀ":{"ha":922,"x_min":188,"x_max":885,"o":"m 249 0 q 188 56 188 0 l 188 1297 q 203 1326 188 1317 q 249 1335 218 1335 q 294 1326 279 1335 q 310 1297 310 1317 l 310 111 l 847 111 q 876 99 868 111 q 885 56 885 88 q 876 13 885 25 q 847 0 868 0 l 249 0 m 686 588 q 628 609 647 588 q 608 675 608 631 q 628 741 608 719 q 686 763 647 763 q 743 741 724 763 q 763 675 763 719 q 744 609 764 631 q 686 588 724 588 z "},"Ł":{"ha":922,"x_min":26,"x_max":885,"o":"m 249 0 q 188 56 188 0 l 188 1297 q 203 1326 188 1317 q 249 1335 218 1335 q 294 1326 279 1335 q 310 1297 310 1317 l 310 111 l 847 111 q 876 99 868 111 q 885 56 885 88 q 876 13 885 25 q 847 0 868 0 l 249 0 m 99 536 q 65 530 81 525 q 35 557 49 535 q 26 592 26 574 q 46 621 26 611 l 500 865 q 532 872 519 876 q 557 853 544 868 q 556 786 588 803 l 99 536 z "},"Ń":{"ha":1310,"x_min":188,"x_max":1122,"o":"m 249 -19 q 188 19 188 -19 l 188 1297 q 203 1326 188 1317 q 249 1335 218 1335 q 290 1326 274 1335 q 318 1297 306 1317 l 1000 239 l 1000 1297 q 1015 1326 1000 1317 q 1061 1335 1031 1335 q 1122 1297 1122 1335 l 1122 19 q 1107 -10 1122 0 q 1063 -19 1092 -19 q 1028 -12 1040 -19 q 1000 19 1015 -6 l 310 1090 l 310 19 q 294 -10 310 0 q 249 -19 279 -19 m 590 1393 q 558 1413 576 1393 q 539 1446 539 1432 q 540 1456 539 1451 q 550 1469 542 1461 l 744 1669 q 758 1681 751 1676 q 771 1685 764 1685 q 803 1672 785 1685 q 834 1643 821 1660 q 847 1613 847 1626 q 844 1596 847 1603 q 826 1578 840 1589 l 617 1407 q 602 1397 608 1401 q 590 1393 596 1393 z "},"Ň":{"ha":1310,"x_min":188,"x_max":1122,"o":"m 249 -19 q 188 19 188 -19 l 188 1297 q 203 1326 188 1317 q 249 1335 218 1335 q 290 1326 274 1335 q 318 1297 306 1317 l 1000 239 l 1000 1297 q 1015 1326 1000 1317 q 1061 1335 1031 1335 q 1122 1297 1122 1335 l 1122 19 q 1107 -10 1122 0 q 1063 -19 1092 -19 q 1028 -12 1040 -19 q 1000 19 1015 -6 l 310 1090 l 310 19 q 294 -10 310 0 q 249 -19 279 -19 m 868 1685 q 899 1669 882 1685 q 917 1638 917 1653 q 916 1629 917 1635 q 908 1615 915 1624 l 717 1421 q 695 1403 707 1413 q 656 1393 683 1393 q 617 1403 629 1393 q 597 1421 606 1413 l 403 1615 q 396 1629 396 1624 q 396 1638 396 1635 q 413 1669 396 1653 q 444 1685 431 1685 q 460 1680 453 1685 q 479 1668 468 1675 l 656 1532 l 833 1668 q 851 1680 844 1675 q 868 1685 858 1685 z "},"Ņ":{"ha":1310,"x_min":188,"x_max":1122,"o":"m 249 -19 q 188 19 188 -19 l 188 1297 q 203 1326 188 1317 q 249 1335 218 1335 q 290 1326 274 1335 q 318 1297 306 1317 l 1000 239 l 1000 1297 q 1015 1326 1000 1317 q 1061 1335 1031 1335 q 1122 1297 1122 1335 l 1122 19 q 1107 -10 1122 0 q 1063 -19 1092 -19 q 1028 -12 1040 -19 q 1000 19 1015 -6 l 310 1090 l 310 19 q 294 -10 310 0 q 249 -19 279 -19 m 578 -411 q 557 -392 561 -404 q 560 -360 553 -381 q 585 -285 576 -317 q 595 -220 593 -253 q 597 -146 597 -187 q 610 -112 597 -122 q 650 -103 624 -103 q 699 -118 682 -103 q 717 -160 717 -133 q 707 -235 717 -194 q 681 -315 697 -275 q 642 -387 664 -354 q 614 -414 628 -410 q 578 -411 600 -418 z "},"Ñ":{"ha":1310,"x_min":188,"x_max":1122,"o":"m 249 -19 q 188 19 188 -19 l 188 1297 q 203 1326 188 1317 q 249 1335 218 1335 q 290 1326 274 1335 q 318 1297 306 1317 l 1000 239 l 1000 1297 q 1015 1326 1000 1317 q 1061 1335 1031 1335 q 1122 1297 1122 1335 l 1122 19 q 1107 -10 1122 0 q 1063 -19 1092 -19 q 1028 -12 1040 -19 q 1000 19 1015 -6 l 310 1090 l 310 19 q 294 -10 310 0 q 249 -19 279 -19 m 446 1432 q 399 1468 399 1432 q 435 1600 401 1556 q 536 1644 469 1644 q 612 1628 579 1644 q 671 1592 644 1613 q 720 1556 697 1572 q 767 1540 743 1540 q 795 1563 785 1540 q 808 1617 806 1585 q 856 1647 811 1647 q 894 1638 882 1647 q 906 1608 906 1628 q 869 1477 904 1521 q 767 1433 835 1433 q 692 1449 726 1433 q 631 1486 658 1465 q 581 1523 604 1507 q 536 1539 557 1539 q 508 1522 518 1539 q 496 1468 499 1504 q 482 1441 494 1450 q 446 1432 469 1432 z "},"Ó":{"ha":1365,"x_min":121,"x_max":1243,"o":"m 685 -26 q 452 24 556 -26 q 275 166 349 75 q 161 381 201 257 q 121 656 121 506 q 139 843 121 754 q 191 1008 157 932 q 274 1144 225 1085 q 386 1247 324 1204 q 524 1313 449 1290 q 685 1335 600 1335 q 915 1285 813 1335 q 1092 1144 1018 1235 q 1204 928 1165 1053 q 1243 656 1243 804 q 1226 467 1243 556 q 1174 301 1208 378 q 1092 165 1140 225 q 981 62 1043 104 q 844 -3 918 19 q 685 -26 769 -26 m 685 92 q 803 108 747 92 q 908 158 860 125 q 993 240 956 192 q 1058 351 1031 288 q 1099 490 1085 414 q 1113 656 1113 567 q 1081 892 1113 788 q 993 1069 1050 996 q 857 1179 936 1142 q 685 1217 778 1217 q 565 1199 621 1217 q 460 1149 508 1182 q 373 1069 411 1117 q 308 958 335 1021 q 266 820 281 896 q 251 656 251 744 q 283 417 251 522 q 373 240 315 313 q 510 129 431 167 q 685 92 590 92 m 618 1393 q 585 1413 604 1393 q 567 1446 567 1432 q 568 1456 567 1451 q 578 1469 569 1461 l 772 1669 q 785 1681 779 1676 q 799 1685 792 1685 q 831 1672 813 1685 q 862 1643 849 1660 q 875 1613 875 1626 q 872 1596 875 1603 q 854 1578 868 1589 l 644 1407 q 630 1397 636 1401 q 618 1393 624 1393 z "},"Ŏ":{"ha":1365,"x_min":121,"x_max":1243,"o":"m 685 -26 q 452 24 556 -26 q 275 166 349 75 q 161 381 201 257 q 121 656 121 506 q 139 843 121 754 q 191 1008 157 932 q 274 1144 225 1085 q 386 1247 324 1204 q 524 1313 449 1290 q 685 1335 600 1335 q 915 1285 813 1335 q 1092 1144 1018 1235 q 1204 928 1165 1053 q 1243 656 1243 804 q 1226 467 1243 556 q 1174 301 1208 378 q 1092 165 1140 225 q 981 62 1043 104 q 844 -3 918 19 q 685 -26 769 -26 m 685 92 q 803 108 747 92 q 908 158 860 125 q 993 240 956 192 q 1058 351 1031 288 q 1099 490 1085 414 q 1113 656 1113 567 q 1081 892 1113 788 q 993 1069 1050 996 q 857 1179 936 1142 q 685 1217 778 1217 q 565 1199 621 1217 q 460 1149 508 1182 q 373 1069 411 1117 q 308 958 335 1021 q 266 820 281 896 q 251 656 251 744 q 283 417 251 522 q 373 240 315 313 q 510 129 431 167 q 685 92 590 92 m 683 1393 q 509 1456 576 1393 q 432 1643 442 1518 q 444 1672 431 1660 q 485 1683 458 1683 q 515 1673 507 1683 q 529 1643 524 1663 q 584 1549 547 1581 q 683 1517 621 1517 q 783 1549 746 1517 q 838 1643 821 1581 q 851 1673 843 1663 q 881 1683 858 1683 q 922 1672 907 1683 q 935 1643 936 1660 q 894 1508 929 1564 q 806 1422 860 1451 q 683 1393 751 1393 z "},"Ǒ":{"ha":1365,"x_min":121,"x_max":1243,"o":"m 685 -26 q 452 24 556 -26 q 275 166 349 75 q 161 381 201 257 q 121 656 121 506 q 139 843 121 754 q 191 1008 157 932 q 274 1144 225 1085 q 386 1247 324 1204 q 524 1313 449 1290 q 685 1335 600 1335 q 915 1285 813 1335 q 1092 1144 1018 1235 q 1204 928 1165 1053 q 1243 656 1243 804 q 1226 467 1243 556 q 1174 301 1208 378 q 1092 165 1140 225 q 981 62 1043 104 q 844 -3 918 19 q 685 -26 769 -26 m 685 92 q 803 108 747 92 q 908 158 860 125 q 993 240 956 192 q 1058 351 1031 288 q 1099 490 1085 414 q 1113 656 1113 567 q 1081 892 1113 788 q 993 1069 1050 996 q 857 1179 936 1142 q 685 1217 778 1217 q 565 1199 621 1217 q 460 1149 508 1182 q 373 1069 411 1117 q 308 958 335 1021 q 266 820 281 896 q 251 656 251 744 q 283 417 251 522 q 373 240 315 313 q 510 129 431 167 q 685 92 590 92 m 896 1685 q 927 1669 910 1685 q 944 1638 944 1653 q 944 1629 944 1635 q 936 1615 943 1624 l 744 1421 q 723 1403 735 1413 q 683 1393 711 1393 q 645 1403 657 1393 q 625 1421 633 1413 l 431 1615 q 424 1629 424 1624 q 424 1638 424 1635 q 441 1669 424 1653 q 472 1685 458 1685 q 488 1680 481 1685 q 507 1668 496 1675 l 683 1532 l 861 1668 q 879 1680 872 1675 q 896 1685 886 1685 z "},"Ô":{"ha":1365,"x_min":121,"x_max":1243,"o":"m 685 -26 q 452 24 556 -26 q 275 166 349 75 q 161 381 201 257 q 121 656 121 506 q 139 843 121 754 q 191 1008 157 932 q 274 1144 225 1085 q 386 1247 324 1204 q 524 1313 449 1290 q 685 1335 600 1335 q 915 1285 813 1335 q 1092 1144 1018 1235 q 1204 928 1165 1053 q 1243 656 1243 804 q 1226 467 1243 556 q 1174 301 1208 378 q 1092 165 1140 225 q 981 62 1043 104 q 844 -3 918 19 q 685 -26 769 -26 m 685 92 q 803 108 747 92 q 908 158 860 125 q 993 240 956 192 q 1058 351 1031 288 q 1099 490 1085 414 q 1113 656 1113 567 q 1081 892 1113 788 q 993 1069 1050 996 q 857 1179 936 1142 q 685 1217 778 1217 q 565 1199 621 1217 q 460 1149 508 1182 q 373 1069 411 1117 q 308 958 335 1021 q 266 820 281 896 q 251 656 251 744 q 283 417 251 522 q 373 240 315 313 q 510 129 431 167 q 685 92 590 92 m 472 1393 q 441 1410 458 1393 q 424 1440 424 1426 q 424 1450 424 1444 q 431 1463 424 1456 l 622 1657 q 644 1676 632 1667 q 683 1685 657 1685 q 722 1676 710 1685 q 743 1657 733 1667 l 936 1463 q 944 1450 943 1456 q 944 1440 944 1444 q 927 1410 944 1426 q 896 1393 910 1393 q 879 1398 886 1393 q 861 1411 872 1403 l 683 1546 l 507 1411 q 488 1398 496 1403 q 472 1393 481 1393 z "},"Ö":{"ha":1365,"x_min":121,"x_max":1243,"o":"m 685 -26 q 452 24 556 -26 q 275 166 349 75 q 161 381 201 257 q 121 656 121 506 q 139 843 121 754 q 191 1008 157 932 q 274 1144 225 1085 q 386 1247 324 1204 q 524 1313 449 1290 q 685 1335 600 1335 q 915 1285 813 1335 q 1092 1144 1018 1235 q 1204 928 1165 1053 q 1243 656 1243 804 q 1226 467 1243 556 q 1174 301 1208 378 q 1092 165 1140 225 q 981 62 1043 104 q 844 -3 918 19 q 685 -26 769 -26 m 685 92 q 803 108 747 92 q 908 158 860 125 q 993 240 956 192 q 1058 351 1031 288 q 1099 490 1085 414 q 1113 656 1113 567 q 1081 892 1113 788 q 993 1069 1050 996 q 857 1179 936 1142 q 685 1217 778 1217 q 565 1199 621 1217 q 460 1149 508 1182 q 373 1069 411 1117 q 308 958 335 1021 q 266 820 281 896 q 251 656 251 744 q 283 417 251 522 q 373 240 315 313 q 510 129 431 167 q 685 92 590 92 m 515 1439 q 457 1461 476 1439 q 438 1526 438 1483 q 457 1592 438 1571 q 515 1614 476 1614 q 573 1592 554 1614 q 592 1526 592 1571 q 574 1460 594 1482 q 515 1439 554 1439 m 853 1439 q 794 1461 814 1439 q 775 1526 775 1483 q 794 1592 775 1571 q 853 1614 814 1614 q 910 1592 890 1614 q 929 1526 929 1571 q 910 1461 931 1483 q 853 1439 890 1439 z "},"Ò":{"ha":1365,"x_min":121,"x_max":1243,"o":"m 685 -26 q 452 24 556 -26 q 275 166 349 75 q 161 381 201 257 q 121 656 121 506 q 139 843 121 754 q 191 1008 157 932 q 274 1144 225 1085 q 386 1247 324 1204 q 524 1313 449 1290 q 685 1335 600 1335 q 915 1285 813 1335 q 1092 1144 1018 1235 q 1204 928 1165 1053 q 1243 656 1243 804 q 1226 467 1243 556 q 1174 301 1208 378 q 1092 165 1140 225 q 981 62 1043 104 q 844 -3 918 19 q 685 -26 769 -26 m 685 92 q 803 108 747 92 q 908 158 860 125 q 993 240 956 192 q 1058 351 1031 288 q 1099 490 1085 414 q 1113 656 1113 567 q 1081 892 1113 788 q 993 1069 1050 996 q 857 1179 936 1142 q 685 1217 778 1217 q 565 1199 621 1217 q 460 1149 508 1182 q 373 1069 411 1117 q 308 958 335 1021 q 266 820 281 896 q 251 656 251 744 q 283 417 251 522 q 373 240 315 313 q 510 129 431 167 q 685 92 590 92 m 749 1393 q 737 1397 743 1393 q 722 1407 731 1401 l 514 1578 q 497 1596 500 1589 q 493 1613 493 1603 q 506 1643 493 1626 q 536 1672 518 1660 q 568 1685 554 1685 q 583 1681 576 1685 q 594 1669 589 1676 l 789 1469 q 800 1456 799 1461 q 801 1446 801 1451 q 783 1413 801 1432 q 749 1393 764 1393 z "},"Ő":{"ha":1365,"x_min":121,"x_max":1243,"o":"m 685 -26 q 452 24 556 -26 q 275 166 349 75 q 161 381 201 257 q 121 656 121 506 q 139 843 121 754 q 191 1008 157 932 q 274 1144 225 1085 q 386 1247 324 1204 q 524 1313 449 1290 q 685 1335 600 1335 q 915 1285 813 1335 q 1092 1144 1018 1235 q 1204 928 1165 1053 q 1243 656 1243 804 q 1226 467 1243 556 q 1174 301 1208 378 q 1092 165 1140 225 q 981 62 1043 104 q 844 -3 918 19 q 685 -26 769 -26 m 685 92 q 803 108 747 92 q 908 158 860 125 q 993 240 956 192 q 1058 351 1031 288 q 1099 490 1085 414 q 1113 656 1113 567 q 1081 892 1113 788 q 993 1069 1050 996 q 857 1179 936 1142 q 685 1217 778 1217 q 565 1199 621 1217 q 460 1149 508 1182 q 373 1069 411 1117 q 308 958 335 1021 q 266 820 281 896 q 251 656 251 744 q 283 417 251 522 q 373 240 315 313 q 510 129 431 167 q 685 92 590 92 m 544 1393 q 512 1413 531 1393 q 493 1446 493 1432 q 494 1456 493 1451 q 504 1469 496 1460 l 681 1669 q 695 1681 688 1676 q 710 1685 703 1685 q 741 1673 725 1685 q 768 1645 757 1661 q 779 1615 779 1629 q 776 1598 779 1606 q 758 1579 772 1590 l 571 1407 q 556 1397 563 1401 q 544 1393 550 1393 m 808 1393 q 775 1413 793 1393 q 757 1446 757 1432 q 758 1456 757 1451 q 769 1469 760 1461 l 950 1669 q 965 1681 957 1676 q 981 1685 972 1685 q 1012 1673 996 1685 q 1039 1645 1028 1661 q 1050 1615 1050 1629 q 1046 1598 1050 1606 q 1029 1579 1042 1590 l 835 1407 q 821 1397 828 1401 q 808 1393 814 1393 z "},"Ō":{"ha":1365,"x_min":121,"x_max":1243,"o":"m 685 -26 q 452 24 556 -26 q 275 166 349 75 q 161 381 201 257 q 121 656 121 506 q 139 843 121 754 q 191 1008 157 932 q 274 1144 225 1085 q 386 1247 324 1204 q 524 1313 449 1290 q 685 1335 600 1335 q 915 1285 813 1335 q 1092 1144 1018 1235 q 1204 928 1165 1053 q 1243 656 1243 804 q 1226 467 1243 556 q 1174 301 1208 378 q 1092 165 1140 225 q 981 62 1043 104 q 844 -3 918 19 q 685 -26 769 -26 m 685 92 q 803 108 747 92 q 908 158 860 125 q 993 240 956 192 q 1058 351 1031 288 q 1099 490 1085 414 q 1113 656 1113 567 q 1081 892 1113 788 q 993 1069 1050 996 q 857 1179 936 1142 q 685 1217 778 1217 q 565 1199 621 1217 q 460 1149 508 1182 q 373 1069 411 1117 q 308 958 335 1021 q 266 820 281 896 q 251 656 251 744 q 283 417 251 522 q 373 240 315 313 q 510 129 431 167 q 685 92 590 92 m 494 1479 q 464 1495 471 1479 q 457 1536 457 1511 q 464 1580 457 1563 q 494 1597 471 1597 l 872 1597 q 903 1580 897 1597 q 910 1536 910 1563 q 903 1495 910 1511 q 872 1479 897 1479 l 494 1479 z "},"Ø":{"ha":1365,"x_min":121,"x_max":1243,"o":"m 685 -26 q 452 24 556 -26 q 275 166 349 75 q 161 381 201 257 q 121 656 121 506 q 139 843 121 754 q 191 1008 157 932 q 274 1144 225 1085 q 386 1247 324 1204 q 524 1313 449 1290 q 685 1335 600 1335 q 915 1285 813 1335 q 1092 1144 1018 1235 q 1204 928 1165 1053 q 1243 656 1243 804 q 1226 467 1243 556 q 1174 301 1208 378 q 1092 165 1140 225 q 981 62 1043 104 q 844 -3 918 19 q 685 -26 769 -26 m 685 92 q 803 108 747 92 q 908 158 860 125 q 993 240 956 192 q 1058 351 1031 288 q 1099 490 1085 414 q 1113 656 1113 567 q 1081 892 1113 788 q 993 1069 1050 996 q 857 1179 936 1142 q 685 1217 778 1217 q 565 1199 621 1217 q 460 1149 508 1182 q 373 1069 411 1117 q 308 958 335 1021 q 266 820 281 896 q 251 656 251 744 q 283 417 251 522 q 373 240 315 313 q 510 129 431 167 q 685 92 590 92 m 325 -94 q 297 -118 315 -110 q 249 -110 278 -126 q 222 -42 197 -83 l 1049 1385 q 1079 1406 1060 1401 q 1125 1399 1099 1411 q 1153 1369 1146 1389 q 1149 1329 1160 1350 l 325 -94 z "},"Õ":{"ha":1365,"x_min":121,"x_max":1243,"o":"m 685 -26 q 452 24 556 -26 q 275 166 349 75 q 161 381 201 257 q 121 656 121 506 q 139 843 121 754 q 191 1008 157 932 q 274 1144 225 1085 q 386 1247 324 1204 q 524 1313 449 1290 q 685 1335 600 1335 q 915 1285 813 1335 q 1092 1144 1018 1235 q 1204 928 1165 1053 q 1243 656 1243 804 q 1226 467 1243 556 q 1174 301 1208 378 q 1092 165 1140 225 q 981 62 1043 104 q 844 -3 918 19 q 685 -26 769 -26 m 685 92 q 803 108 747 92 q 908 158 860 125 q 993 240 956 192 q 1058 351 1031 288 q 1099 490 1085 414 q 1113 656 1113 567 q 1081 892 1113 788 q 993 1069 1050 996 q 857 1179 936 1142 q 685 1217 778 1217 q 565 1199 621 1217 q 460 1149 508 1182 q 373 1069 411 1117 q 308 958 335 1021 q 266 820 281 896 q 251 656 251 744 q 283 417 251 522 q 373 240 315 313 q 510 129 431 167 q 685 92 590 92 m 474 1432 q 426 1468 426 1432 q 463 1600 429 1556 q 564 1644 497 1644 q 640 1628 607 1644 q 699 1592 672 1613 q 748 1556 725 1572 q 794 1540 771 1540 q 823 1563 813 1540 q 836 1617 833 1585 q 883 1647 839 1647 q 922 1638 910 1647 q 933 1608 933 1628 q 897 1477 932 1521 q 794 1433 863 1433 q 720 1449 754 1433 q 659 1486 686 1465 q 608 1523 632 1507 q 564 1539 585 1539 q 536 1522 546 1539 q 524 1468 526 1504 q 510 1441 522 1450 q 474 1432 497 1432 z "},"Ố":{"ha":1365,"x_min":121,"x_max":1243,"o":"m 685 -26 q 452 24 556 -26 q 275 166 349 75 q 161 381 201 257 q 121 656 121 506 q 139 843 121 754 q 191 1008 157 932 q 274 1144 225 1085 q 386 1247 324 1204 q 524 1313 449 1290 q 685 1335 600 1335 q 915 1285 813 1335 q 1092 1144 1018 1235 q 1204 928 1165 1053 q 1243 656 1243 804 q 1226 467 1243 556 q 1174 301 1208 378 q 1092 165 1140 225 q 981 62 1043 104 q 844 -3 918 19 q 685 -26 769 -26 m 685 92 q 803 108 747 92 q 908 158 860 125 q 993 240 956 192 q 1058 351 1031 288 q 1099 490 1085 414 q 1113 656 1113 567 q 1081 892 1113 788 q 993 1069 1050 996 q 857 1179 936 1142 q 685 1217 778 1217 q 565 1199 621 1217 q 460 1149 508 1182 q 373 1069 411 1117 q 308 958 335 1021 q 266 820 281 896 q 251 656 251 744 q 283 417 251 522 q 373 240 315 313 q 510 129 431 167 q 685 92 590 92 m 472 1393 q 441 1410 458 1393 q 424 1440 424 1426 q 424 1450 424 1444 q 431 1463 424 1456 l 622 1657 q 644 1676 632 1667 q 683 1685 657 1685 q 722 1676 710 1685 q 743 1657 733 1667 l 936 1463 q 944 1450 943 1456 q 944 1440 944 1444 q 927 1410 944 1426 q 896 1393 910 1393 q 879 1398 886 1393 q 861 1411 872 1403 l 683 1546 l 507 1411 q 488 1398 496 1403 q 472 1393 481 1393 m 901 1614 q 869 1633 888 1614 q 850 1667 850 1653 q 851 1676 850 1672 q 861 1690 853 1681 l 1049 1879 q 1061 1891 1056 1886 q 1074 1896 1067 1896 q 1106 1883 1088 1896 q 1137 1853 1124 1871 q 1150 1821 1150 1836 q 1147 1806 1150 1811 q 1129 1786 1144 1800 l 928 1628 q 913 1618 919 1622 q 901 1614 907 1614 z "},"Ộ":{"ha":1365,"x_min":121,"x_max":1243,"o":"m 685 -26 q 452 24 556 -26 q 275 166 349 75 q 161 381 201 257 q 121 656 121 506 q 139 843 121 754 q 191 1008 157 932 q 274 1144 225 1085 q 386 1247 324 1204 q 524 1313 449 1290 q 685 1335 600 1335 q 915 1285 813 1335 q 1092 1144 1018 1235 q 1204 928 1165 1053 q 1243 656 1243 804 q 1226 467 1243 556 q 1174 301 1208 378 q 1092 165 1140 225 q 981 62 1043 104 q 844 -3 918 19 q 685 -26 769 -26 m 685 92 q 803 108 747 92 q 908 158 860 125 q 993 240 956 192 q 1058 351 1031 288 q 1099 490 1085 414 q 1113 656 1113 567 q 1081 892 1113 788 q 993 1069 1050 996 q 857 1179 936 1142 q 685 1217 778 1217 q 565 1199 621 1217 q 460 1149 508 1182 q 373 1069 411 1117 q 308 958 335 1021 q 266 820 281 896 q 251 656 251 744 q 283 417 251 522 q 373 240 315 313 q 510 129 431 167 q 685 92 590 92 m 683 -326 q 625 -305 644 -326 q 606 -239 606 -283 q 625 -173 606 -194 q 683 -151 644 -151 q 740 -173 721 -151 q 760 -239 760 -194 q 741 -305 761 -283 q 683 -326 721 -326 m 472 1393 q 441 1410 458 1393 q 424 1440 424 1426 q 424 1450 424 1444 q 431 1463 424 1456 l 622 1657 q 644 1676 632 1667 q 683 1685 657 1685 q 722 1676 710 1685 q 743 1657 733 1667 l 936 1463 q 944 1450 943 1456 q 944 1440 944 1444 q 927 1410 944 1426 q 896 1393 910 1393 q 879 1398 886 1393 q 861 1411 872 1403 l 683 1546 l 507 1411 q 488 1398 496 1403 q 472 1393 481 1393 z "},"Ồ":{"ha":1365,"x_min":121,"x_max":1243,"o":"m 685 -26 q 452 24 556 -26 q 275 166 349 75 q 161 381 201 257 q 121 656 121 506 q 139 843 121 754 q 191 1008 157 932 q 274 1144 225 1085 q 386 1247 324 1204 q 524 1313 449 1290 q 685 1335 600 1335 q 915 1285 813 1335 q 1092 1144 1018 1235 q 1204 928 1165 1053 q 1243 656 1243 804 q 1226 467 1243 556 q 1174 301 1208 378 q 1092 165 1140 225 q 981 62 1043 104 q 844 -3 918 19 q 685 -26 769 -26 m 685 92 q 803 108 747 92 q 908 158 860 125 q 993 240 956 192 q 1058 351 1031 288 q 1099 490 1085 414 q 1113 656 1113 567 q 1081 892 1113 788 q 993 1069 1050 996 q 857 1179 936 1142 q 685 1217 778 1217 q 565 1199 621 1217 q 460 1149 508 1182 q 373 1069 411 1117 q 308 958 335 1021 q 266 820 281 896 q 251 656 251 744 q 283 417 251 522 q 373 240 315 313 q 510 129 431 167 q 685 92 590 92 m 472 1393 q 441 1410 458 1393 q 424 1440 424 1426 q 424 1450 424 1444 q 431 1463 424 1456 l 622 1657 q 644 1676 632 1667 q 683 1685 657 1685 q 722 1676 710 1685 q 743 1657 733 1667 l 936 1463 q 944 1450 943 1456 q 944 1440 944 1444 q 927 1410 944 1426 q 896 1393 910 1393 q 879 1398 886 1393 q 861 1411 872 1403 l 683 1546 l 507 1411 q 488 1398 496 1403 q 472 1393 481 1393 m 988 1594 q 976 1597 982 1594 q 961 1607 969 1600 l 767 1789 q 749 1808 753 1803 q 746 1824 746 1814 q 759 1855 746 1838 q 790 1885 772 1872 q 822 1897 808 1897 q 836 1893 829 1897 q 849 1882 843 1889 l 1028 1671 q 1038 1656 1035 1661 q 1040 1646 1040 1651 q 1022 1613 1040 1632 q 988 1594 1004 1594 z "},"Ổ":{"ha":1365,"x_min":121,"x_max":1243,"o":"m 685 -26 q 452 24 556 -26 q 275 166 349 75 q 161 381 201 257 q 121 656 121 506 q 139 843 121 754 q 191 1008 157 932 q 274 1144 225 1085 q 386 1247 324 1204 q 524 1313 449 1290 q 685 1335 600 1335 q 915 1285 813 1335 q 1092 1144 1018 1235 q 1204 928 1165 1053 q 1243 656 1243 804 q 1226 467 1243 556 q 1174 301 1208 378 q 1092 165 1140 225 q 981 62 1043 104 q 844 -3 918 19 q 685 -26 769 -26 m 685 92 q 803 108 747 92 q 908 158 860 125 q 993 240 956 192 q 1058 351 1031 288 q 1099 490 1085 414 q 1113 656 1113 567 q 1081 892 1113 788 q 993 1069 1050 996 q 857 1179 936 1142 q 685 1217 778 1217 q 565 1199 621 1217 q 460 1149 508 1182 q 373 1069 411 1117 q 308 958 335 1021 q 266 820 281 896 q 251 656 251 744 q 283 417 251 522 q 373 240 315 313 q 510 129 431 167 q 685 92 590 92 m 472 1393 q 441 1410 458 1393 q 424 1440 424 1426 q 424 1450 424 1444 q 431 1463 424 1456 l 622 1657 q 644 1676 632 1667 q 683 1685 657 1685 q 722 1676 710 1685 q 743 1657 733 1667 l 936 1463 q 944 1450 943 1456 q 944 1440 944 1444 q 927 1410 944 1426 q 896 1393 910 1393 q 879 1398 886 1393 q 861 1411 872 1403 l 683 1546 l 507 1411 q 488 1398 496 1403 q 472 1393 481 1393 m 938 1911 q 1047 1878 1006 1911 q 1089 1790 1089 1844 q 1072 1727 1089 1754 q 1017 1671 1056 1700 q 992 1646 999 1657 q 989 1621 986 1635 l 990 1611 q 983 1585 994 1596 q 953 1569 971 1574 q 919 1569 935 1565 q 896 1588 903 1574 l 881 1625 q 881 1684 869 1657 q 922 1733 892 1711 q 950 1758 942 1747 q 958 1781 958 1769 q 947 1801 958 1792 q 915 1810 935 1810 q 874 1803 896 1810 q 840 1788 853 1797 q 782 1810 807 1767 q 790 1864 765 1842 q 858 1898 819 1885 q 938 1911 897 1911 z "},"Ỗ":{"ha":1365,"x_min":121,"x_max":1243,"o":"m 685 -26 q 452 24 556 -26 q 275 166 349 75 q 161 381 201 257 q 121 656 121 506 q 139 843 121 754 q 191 1008 157 932 q 274 1144 225 1085 q 386 1247 324 1204 q 524 1313 449 1290 q 685 1335 600 1335 q 915 1285 813 1335 q 1092 1144 1018 1235 q 1204 928 1165 1053 q 1243 656 1243 804 q 1226 467 1243 556 q 1174 301 1208 378 q 1092 165 1140 225 q 981 62 1043 104 q 844 -3 918 19 q 685 -26 769 -26 m 685 92 q 803 108 747 92 q 908 158 860 125 q 993 240 956 192 q 1058 351 1031 288 q 1099 490 1085 414 q 1113 656 1113 567 q 1081 892 1113 788 q 993 1069 1050 996 q 857 1179 936 1142 q 685 1217 778 1217 q 565 1199 621 1217 q 460 1149 508 1182 q 373 1069 411 1117 q 308 958 335 1021 q 266 820 281 896 q 251 656 251 744 q 283 417 251 522 q 373 240 315 313 q 510 129 431 167 q 685 92 590 92 m 472 1393 q 441 1410 458 1393 q 424 1440 424 1426 q 424 1450 424 1444 q 431 1463 424 1456 l 622 1657 q 644 1676 632 1667 q 683 1685 657 1685 q 722 1676 710 1685 q 743 1657 733 1667 l 936 1463 q 944 1450 943 1456 q 944 1440 944 1444 q 927 1410 944 1426 q 896 1393 910 1393 q 879 1398 886 1393 q 861 1411 872 1403 l 683 1546 l 507 1411 q 488 1398 496 1403 q 472 1393 481 1393 m 479 1701 q 432 1738 432 1701 q 469 1869 435 1825 q 571 1914 503 1914 q 645 1898 613 1914 q 705 1862 678 1882 q 755 1826 732 1842 q 800 1810 778 1810 q 830 1832 819 1810 q 843 1886 840 1854 q 890 1917 844 1917 q 928 1907 917 1917 q 940 1878 940 1897 q 904 1747 939 1790 q 800 1703 869 1703 q 726 1719 760 1703 q 665 1756 693 1735 q 615 1792 638 1776 q 571 1808 592 1808 q 542 1791 551 1808 q 529 1738 532 1774 q 515 1710 528 1719 q 479 1701 503 1701 z "},"Ọ":{"ha":1365,"x_min":121,"x_max":1243,"o":"m 685 -26 q 452 24 556 -26 q 275 166 349 75 q 161 381 201 257 q 121 656 121 506 q 139 843 121 754 q 191 1008 157 932 q 274 1144 225 1085 q 386 1247 324 1204 q 524 1313 449 1290 q 685 1335 600 1335 q 915 1285 813 1335 q 1092 1144 1018 1235 q 1204 928 1165 1053 q 1243 656 1243 804 q 1226 467 1243 556 q 1174 301 1208 378 q 1092 165 1140 225 q 981 62 1043 104 q 844 -3 918 19 q 685 -26 769 -26 m 685 92 q 803 108 747 92 q 908 158 860 125 q 993 240 956 192 q 1058 351 1031 288 q 1099 490 1085 414 q 1113 656 1113 567 q 1081 892 1113 788 q 993 1069 1050 996 q 857 1179 936 1142 q 685 1217 778 1217 q 565 1199 621 1217 q 460 1149 508 1182 q 373 1069 411 1117 q 308 958 335 1021 q 266 820 281 896 q 251 656 251 744 q 283 417 251 522 q 373 240 315 313 q 510 129 431 167 q 685 92 590 92 m 683 -326 q 625 -305 644 -326 q 606 -239 606 -283 q 625 -173 606 -194 q 683 -151 644 -151 q 740 -173 721 -151 q 760 -239 760 -194 q 741 -305 761 -283 q 683 -326 721 -326 z "},"Ỏ":{"ha":1365,"x_min":121,"x_max":1243,"o":"m 685 -26 q 452 24 556 -26 q 275 166 349 75 q 161 381 201 257 q 121 656 121 506 q 139 843 121 754 q 191 1008 157 932 q 274 1144 225 1085 q 386 1247 324 1204 q 524 1313 449 1290 q 685 1335 600 1335 q 915 1285 813 1335 q 1092 1144 1018 1235 q 1204 928 1165 1053 q 1243 656 1243 804 q 1226 467 1243 556 q 1174 301 1208 378 q 1092 165 1140 225 q 981 62 1043 104 q 844 -3 918 19 q 685 -26 769 -26 m 685 92 q 803 108 747 92 q 908 158 860 125 q 993 240 956 192 q 1058 351 1031 288 q 1099 490 1085 414 q 1113 656 1113 567 q 1081 892 1113 788 q 993 1069 1050 996 q 857 1179 936 1142 q 685 1217 778 1217 q 565 1199 621 1217 q 460 1149 508 1182 q 373 1069 411 1117 q 308 958 335 1021 q 266 820 281 896 q 251 656 251 744 q 283 417 251 522 q 373 240 315 313 q 510 129 431 167 q 685 92 590 92 m 699 1724 q 808 1691 767 1724 q 850 1603 850 1658 q 833 1540 850 1568 q 778 1485 817 1513 q 753 1459 760 1471 q 750 1435 747 1447 l 751 1424 q 744 1399 756 1410 q 714 1383 732 1388 q 680 1382 696 1378 q 657 1401 664 1386 l 642 1438 q 642 1497 631 1469 q 683 1547 653 1525 q 711 1572 703 1561 q 719 1594 719 1583 q 708 1614 719 1606 q 676 1622 696 1622 q 635 1617 657 1622 q 601 1601 614 1611 q 543 1624 568 1581 q 551 1678 526 1656 q 619 1711 581 1699 q 699 1724 658 1724 z "},"Ơ":{"ha":1365,"x_min":121,"x_max":1243,"o":"m 685 -26 q 452 24 556 -26 q 275 166 349 75 q 161 381 201 257 q 121 656 121 506 q 139 843 121 754 q 191 1008 157 932 q 274 1144 225 1085 q 386 1247 324 1204 q 524 1313 449 1290 q 685 1335 600 1335 q 778 1326 733 1335 q 864 1301 822 1318 q 1010 1323 957 1306 q 1081 1369 1063 1340 q 1092 1437 1100 1399 q 1058 1521 1085 1475 q 1053 1565 1044 1544 q 1083 1598 1063 1586 q 1127 1607 1104 1610 q 1164 1581 1150 1604 q 1210 1469 1199 1525 q 1206 1364 1222 1413 q 1140 1281 1190 1315 q 999 1235 1089 1246 q 1179 997 1115 1147 q 1243 656 1243 847 q 1226 467 1243 556 q 1174 301 1208 378 q 1092 165 1140 225 q 981 62 1043 104 q 844 -3 918 19 q 685 -26 769 -26 m 685 92 q 803 108 747 92 q 908 158 860 125 q 993 240 956 192 q 1058 351 1031 288 q 1099 490 1085 414 q 1113 656 1113 567 q 1081 892 1113 788 q 993 1069 1050 996 q 857 1179 936 1142 q 685 1217 778 1217 q 565 1199 621 1217 q 460 1149 508 1182 q 373 1069 411 1117 q 308 958 335 1021 q 266 820 281 896 q 251 656 251 744 q 283 417 251 522 q 373 240 315 313 q 510 129 431 167 q 685 92 590 92 z "},"Ớ":{"ha":1365,"x_min":121,"x_max":1243,"o":"m 685 -26 q 452 24 556 -26 q 275 166 349 75 q 161 381 201 257 q 121 656 121 506 q 139 843 121 754 q 191 1008 157 932 q 274 1144 225 1085 q 386 1247 324 1204 q 524 1313 449 1290 q 685 1335 600 1335 q 778 1326 733 1335 q 864 1301 822 1318 q 1010 1323 957 1306 q 1081 1369 1063 1340 q 1092 1437 1100 1399 q 1058 1521 1085 1475 q 1053 1565 1044 1544 q 1083 1598 1063 1586 q 1127 1607 1104 1610 q 1164 1581 1150 1604 q 1210 1469 1199 1525 q 1206 1364 1222 1413 q 1140 1281 1190 1315 q 999 1235 1089 1246 q 1179 997 1115 1147 q 1243 656 1243 847 q 1226 467 1243 556 q 1174 301 1208 378 q 1092 165 1140 225 q 981 62 1043 104 q 844 -3 918 19 q 685 -26 769 -26 m 685 92 q 803 108 747 92 q 908 158 860 125 q 993 240 956 192 q 1058 351 1031 288 q 1099 490 1085 414 q 1113 656 1113 567 q 1081 892 1113 788 q 993 1069 1050 996 q 857 1179 936 1142 q 685 1217 778 1217 q 565 1199 621 1217 q 460 1149 508 1182 q 373 1069 411 1117 q 308 958 335 1021 q 266 820 281 896 q 251 656 251 744 q 283 417 251 522 q 373 240 315 313 q 510 129 431 167 q 685 92 590 92 m 618 1393 q 585 1413 604 1393 q 567 1446 567 1432 q 568 1456 567 1451 q 578 1469 569 1461 l 772 1669 q 785 1681 779 1676 q 799 1685 792 1685 q 831 1672 813 1685 q 862 1643 849 1660 q 875 1613 875 1626 q 872 1596 875 1603 q 854 1578 868 1589 l 644 1407 q 630 1397 636 1401 q 618 1393 624 1393 z "},"Ợ":{"ha":1365,"x_min":121,"x_max":1243,"o":"m 685 -26 q 452 24 556 -26 q 275 166 349 75 q 161 381 201 257 q 121 656 121 506 q 139 843 121 754 q 191 1008 157 932 q 274 1144 225 1085 q 386 1247 324 1204 q 524 1313 449 1290 q 685 1335 600 1335 q 778 1326 733 1335 q 864 1301 822 1318 q 1010 1323 957 1306 q 1081 1369 1063 1340 q 1092 1437 1100 1399 q 1058 1521 1085 1475 q 1053 1565 1044 1544 q 1083 1598 1063 1586 q 1127 1607 1104 1610 q 1164 1581 1150 1604 q 1210 1469 1199 1525 q 1206 1364 1222 1413 q 1140 1281 1190 1315 q 999 1235 1089 1246 q 1179 997 1115 1147 q 1243 656 1243 847 q 1226 467 1243 556 q 1174 301 1208 378 q 1092 165 1140 225 q 981 62 1043 104 q 844 -3 918 19 q 685 -26 769 -26 m 685 92 q 803 108 747 92 q 908 158 860 125 q 993 240 956 192 q 1058 351 1031 288 q 1099 490 1085 414 q 1113 656 1113 567 q 1081 892 1113 788 q 993 1069 1050 996 q 857 1179 936 1142 q 685 1217 778 1217 q 565 1199 621 1217 q 460 1149 508 1182 q 373 1069 411 1117 q 308 958 335 1021 q 266 820 281 896 q 251 656 251 744 q 283 417 251 522 q 373 240 315 313 q 510 129 431 167 q 685 92 590 92 m 683 -326 q 625 -305 644 -326 q 606 -239 606 -283 q 625 -173 606 -194 q 683 -151 644 -151 q 740 -173 721 -151 q 760 -239 760 -194 q 741 -305 761 -283 q 683 -326 721 -326 z "},"Ờ":{"ha":1365,"x_min":121,"x_max":1243,"o":"m 685 -26 q 452 24 556 -26 q 275 166 349 75 q 161 381 201 257 q 121 656 121 506 q 139 843 121 754 q 191 1008 157 932 q 274 1144 225 1085 q 386 1247 324 1204 q 524 1313 449 1290 q 685 1335 600 1335 q 778 1326 733 1335 q 864 1301 822 1318 q 1010 1323 957 1306 q 1081 1369 1063 1340 q 1092 1437 1100 1399 q 1058 1521 1085 1475 q 1053 1565 1044 1544 q 1083 1598 1063 1586 q 1127 1607 1104 1610 q 1164 1581 1150 1604 q 1210 1469 1199 1525 q 1206 1364 1222 1413 q 1140 1281 1190 1315 q 999 1235 1089 1246 q 1179 997 1115 1147 q 1243 656 1243 847 q 1226 467 1243 556 q 1174 301 1208 378 q 1092 165 1140 225 q 981 62 1043 104 q 844 -3 918 19 q 685 -26 769 -26 m 685 92 q 803 108 747 92 q 908 158 860 125 q 993 240 956 192 q 1058 351 1031 288 q 1099 490 1085 414 q 1113 656 1113 567 q 1081 892 1113 788 q 993 1069 1050 996 q 857 1179 936 1142 q 685 1217 778 1217 q 565 1199 621 1217 q 460 1149 508 1182 q 373 1069 411 1117 q 308 958 335 1021 q 266 820 281 896 q 251 656 251 744 q 283 417 251 522 q 373 240 315 313 q 510 129 431 167 q 685 92 590 92 m 749 1393 q 737 1397 743 1393 q 722 1407 731 1401 l 514 1578 q 497 1596 500 1589 q 493 1613 493 1603 q 506 1643 493 1626 q 536 1672 518 1660 q 568 1685 554 1685 q 583 1681 576 1685 q 594 1669 589 1676 l 789 1469 q 800 1456 799 1461 q 801 1446 801 1451 q 783 1413 801 1432 q 749 1393 764 1393 z "},"Ở":{"ha":1365,"x_min":121,"x_max":1243,"o":"m 685 -26 q 452 24 556 -26 q 275 166 349 75 q 161 381 201 257 q 121 656 121 506 q 139 843 121 754 q 191 1008 157 932 q 274 1144 225 1085 q 386 1247 324 1204 q 524 1313 449 1290 q 685 1335 600 1335 q 778 1326 733 1335 q 864 1301 822 1318 q 1010 1323 957 1306 q 1081 1369 1063 1340 q 1092 1437 1100 1399 q 1058 1521 1085 1475 q 1053 1565 1044 1544 q 1083 1598 1063 1586 q 1127 1607 1104 1610 q 1164 1581 1150 1604 q 1210 1469 1199 1525 q 1206 1364 1222 1413 q 1140 1281 1190 1315 q 999 1235 1089 1246 q 1179 997 1115 1147 q 1243 656 1243 847 q 1226 467 1243 556 q 1174 301 1208 378 q 1092 165 1140 225 q 981 62 1043 104 q 844 -3 918 19 q 685 -26 769 -26 m 685 92 q 803 108 747 92 q 908 158 860 125 q 993 240 956 192 q 1058 351 1031 288 q 1099 490 1085 414 q 1113 656 1113 567 q 1081 892 1113 788 q 993 1069 1050 996 q 857 1179 936 1142 q 685 1217 778 1217 q 565 1199 621 1217 q 460 1149 508 1182 q 373 1069 411 1117 q 308 958 335 1021 q 266 820 281 896 q 251 656 251 744 q 283 417 251 522 q 373 240 315 313 q 510 129 431 167 q 685 92 590 92 m 699 1724 q 808 1691 767 1724 q 850 1603 850 1658 q 833 1540 850 1568 q 778 1485 817 1513 q 753 1459 760 1471 q 750 1435 747 1447 l 751 1424 q 744 1399 756 1410 q 714 1383 732 1388 q 680 1382 696 1378 q 657 1401 664 1386 l 642 1438 q 642 1497 631 1469 q 683 1547 653 1525 q 711 1572 703 1561 q 719 1594 719 1583 q 708 1614 719 1606 q 676 1622 696 1622 q 635 1617 657 1622 q 601 1601 614 1611 q 543 1624 568 1581 q 551 1678 526 1656 q 619 1711 581 1699 q 699 1724 658 1724 z "},"Ỡ":{"ha":1365,"x_min":121,"x_max":1243,"o":"m 685 -26 q 452 24 556 -26 q 275 166 349 75 q 161 381 201 257 q 121 656 121 506 q 139 843 121 754 q 191 1008 157 932 q 274 1144 225 1085 q 386 1247 324 1204 q 524 1313 449 1290 q 685 1335 600 1335 q 778 1326 733 1335 q 864 1301 822 1318 q 1010 1323 957 1306 q 1081 1369 1063 1340 q 1092 1437 1100 1399 q 1058 1521 1085 1475 q 1053 1565 1044 1544 q 1083 1598 1063 1586 q 1127 1607 1104 1610 q 1164 1581 1150 1604 q 1210 1469 1199 1525 q 1206 1364 1222 1413 q 1140 1281 1190 1315 q 999 1235 1089 1246 q 1179 997 1115 1147 q 1243 656 1243 847 q 1226 467 1243 556 q 1174 301 1208 378 q 1092 165 1140 225 q 981 62 1043 104 q 844 -3 918 19 q 685 -26 769 -26 m 685 92 q 803 108 747 92 q 908 158 860 125 q 993 240 956 192 q 1058 351 1031 288 q 1099 490 1085 414 q 1113 656 1113 567 q 1081 892 1113 788 q 993 1069 1050 996 q 857 1179 936 1142 q 685 1217 778 1217 q 565 1199 621 1217 q 460 1149 508 1182 q 373 1069 411 1117 q 308 958 335 1021 q 266 820 281 896 q 251 656 251 744 q 283 417 251 522 q 373 240 315 313 q 510 129 431 167 q 685 92 590 92 m 474 1432 q 426 1468 426 1432 q 463 1600 429 1556 q 564 1644 497 1644 q 640 1628 607 1644 q 699 1592 672 1613 q 748 1556 725 1572 q 794 1540 771 1540 q 823 1563 813 1540 q 836 1617 833 1585 q 883 1647 839 1647 q 922 1638 910 1647 q 933 1608 933 1628 q 897 1477 932 1521 q 794 1433 863 1433 q 720 1449 754 1433 q 659 1486 686 1465 q 608 1523 632 1507 q 564 1539 585 1539 q 536 1522 546 1539 q 524 1468 526 1504 q 510 1441 522 1450 q 474 1432 497 1432 z "},"Ŕ":{"ha":1024,"x_min":188,"x_max":994,"o":"m 249 -19 q 203 -10 218 -19 q 188 19 188 0 l 188 1275 q 203 1303 188 1294 q 250 1313 219 1313 l 493 1313 q 744 1281 646 1313 q 891 1181 843 1250 q 939 997 939 1113 q 923 888 939 939 q 878 794 907 838 q 806 717 849 751 q 708 656 763 682 q 587 615 653 631 q 444 593 521 599 q 606 413 522 501 q 781 239 690 324 q 971 75 872 154 q 990 42 986 64 q 968 -6 994 21 q 931 -23 950 -22 q 890 -7 911 -24 q 682 177 783 81 q 488 374 581 274 q 310 574 394 475 l 310 19 q 294 -10 310 0 q 249 -19 279 -19 m 310 690 q 439 696 379 690 q 550 715 499 701 q 642 746 601 728 q 716 789 683 764 q 770 845 749 814 q 803 915 792 876 q 814 997 814 953 q 781 1117 814 1072 q 681 1181 749 1161 q 511 1201 614 1201 l 310 1201 l 310 690 m 449 1393 q 416 1413 435 1393 q 397 1446 397 1432 q 399 1456 397 1451 q 408 1469 400 1461 l 603 1669 q 616 1681 610 1676 q 629 1685 622 1685 q 661 1672 643 1685 q 692 1643 679 1660 q 706 1613 706 1626 q 702 1596 706 1603 q 685 1578 699 1589 l 475 1407 q 460 1397 467 1401 q 449 1393 454 1393 z "},"Ř":{"ha":1024,"x_min":188,"x_max":994,"o":"m 249 -19 q 203 -10 218 -19 q 188 19 188 0 l 188 1275 q 203 1303 188 1294 q 250 1313 219 1313 l 493 1313 q 744 1281 646 1313 q 891 1181 843 1250 q 939 997 939 1113 q 923 888 939 939 q 878 794 907 838 q 806 717 849 751 q 708 656 763 682 q 587 615 653 631 q 444 593 521 599 q 606 413 522 501 q 781 239 690 324 q 971 75 872 154 q 990 42 986 64 q 968 -6 994 21 q 931 -23 950 -22 q 890 -7 911 -24 q 682 177 783 81 q 488 374 581 274 q 310 574 394 475 l 310 19 q 294 -10 310 0 q 249 -19 279 -19 m 310 690 q 439 696 379 690 q 550 715 499 701 q 642 746 601 728 q 716 789 683 764 q 770 845 749 814 q 803 915 792 876 q 814 997 814 953 q 781 1117 814 1072 q 681 1181 749 1161 q 511 1201 614 1201 l 310 1201 l 310 690 m 726 1685 q 758 1669 740 1685 q 775 1638 775 1653 q 774 1629 775 1635 q 767 1615 774 1624 l 575 1421 q 553 1403 565 1413 q 514 1393 542 1393 q 476 1403 488 1393 q 456 1421 464 1413 l 261 1615 q 254 1629 254 1624 q 254 1638 254 1635 q 272 1669 254 1653 q 303 1685 289 1685 q 319 1680 311 1685 q 338 1668 326 1675 l 514 1532 l 692 1668 q 710 1680 703 1675 q 726 1685 717 1685 z "},"Ŗ":{"ha":1024,"x_min":188,"x_max":994,"o":"m 249 -19 q 203 -10 218 -19 q 188 19 188 0 l 188 1275 q 203 1303 188 1294 q 250 1313 219 1313 l 493 1313 q 744 1281 646 1313 q 891 1181 843 1250 q 939 997 939 1113 q 923 888 939 939 q 878 794 907 838 q 806 717 849 751 q 708 656 763 682 q 587 615 653 631 q 444 593 521 599 q 606 413 522 501 q 781 239 690 324 q 971 75 872 154 q 990 42 986 64 q 968 -6 994 21 q 931 -23 950 -22 q 890 -7 911 -24 q 682 177 783 81 q 488 374 581 274 q 310 574 394 475 l 310 19 q 294 -10 310 0 q 249 -19 279 -19 m 310 690 q 439 696 379 690 q 550 715 499 701 q 642 746 601 728 q 716 789 683 764 q 770 845 749 814 q 803 915 792 876 q 814 997 814 953 q 781 1117 814 1072 q 681 1181 749 1161 q 511 1201 614 1201 l 310 1201 l 310 690 m 490 -411 q 469 -392 474 -404 q 472 -360 465 -381 q 497 -285 489 -317 q 508 -220 506 -253 q 510 -146 510 -187 q 523 -112 510 -122 q 563 -103 536 -103 q 612 -118 594 -103 q 629 -160 629 -133 q 619 -235 629 -194 q 593 -315 610 -275 q 554 -387 576 -354 q 526 -414 540 -410 q 490 -411 513 -418 z "},"Ś":{"ha":1015,"x_min":104,"x_max":913,"o":"m 481 -26 q 389 -18 439 -26 q 288 9 339 -10 q 192 59 238 28 q 114 135 146 90 q 105 161 104 149 q 125 193 106 174 q 158 216 144 214 q 197 194 171 218 q 272 141 229 164 q 366 105 314 118 q 481 92 418 92 q 615 107 558 92 q 709 154 671 122 q 766 235 747 186 q 785 349 785 283 q 766 442 785 403 q 712 511 747 482 q 627 563 676 540 q 517 604 578 586 q 413 644 465 622 q 312 697 360 665 q 226 771 264 728 q 167 872 189 814 q 146 1006 146 929 q 174 1145 146 1085 q 253 1249 201 1206 q 374 1313 304 1292 q 525 1335 443 1335 q 663 1315 600 1335 q 778 1260 725 1294 q 878 1182 831 1225 q 890 1153 893 1168 q 872 1124 888 1139 q 840 1099 856 1106 q 808 1103 824 1092 q 728 1162 769 1136 q 636 1202 686 1188 q 525 1217 586 1217 q 419 1203 465 1217 q 340 1163 372 1189 q 292 1098 308 1138 q 275 1006 275 1058 q 295 900 275 944 q 352 824 315 856 q 439 769 389 792 q 549 728 489 746 q 674 681 610 708 q 793 610 739 653 q 880 505 847 568 q 913 349 913 442 q 883 187 913 257 q 799 69 854 117 q 663 -2 743 22 q 481 -26 582 -26 m 460 1393 q 427 1413 446 1393 q 408 1446 408 1432 q 410 1456 408 1451 q 419 1469 411 1461 l 614 1669 q 627 1681 621 1676 q 640 1685 633 1685 q 672 1672 654 1685 q 703 1643 690 1660 q 717 1613 717 1626 q 713 1596 717 1603 q 696 1578 710 1589 l 486 1407 q 472 1397 478 1401 q 460 1393 465 1393 z "},"Š":{"ha":1015,"x_min":104,"x_max":913,"o":"m 481 -26 q 389 -18 439 -26 q 288 9 339 -10 q 192 59 238 28 q 114 135 146 90 q 105 161 104 149 q 125 193 106 174 q 158 216 144 214 q 197 194 171 218 q 272 141 229 164 q 366 105 314 118 q 481 92 418 92 q 615 107 558 92 q 709 154 671 122 q 766 235 747 186 q 785 349 785 283 q 766 442 785 403 q 712 511 747 482 q 627 563 676 540 q 517 604 578 586 q 413 644 465 622 q 312 697 360 665 q 226 771 264 728 q 167 872 189 814 q 146 1006 146 929 q 174 1145 146 1085 q 253 1249 201 1206 q 374 1313 304 1292 q 525 1335 443 1335 q 663 1315 600 1335 q 778 1260 725 1294 q 878 1182 831 1225 q 890 1153 893 1168 q 872 1124 888 1139 q 840 1099 856 1106 q 808 1103 824 1092 q 728 1162 769 1136 q 636 1202 686 1188 q 525 1217 586 1217 q 419 1203 465 1217 q 340 1163 372 1189 q 292 1098 308 1138 q 275 1006 275 1058 q 295 900 275 944 q 352 824 315 856 q 439 769 389 792 q 549 728 489 746 q 674 681 610 708 q 793 610 739 653 q 880 505 847 568 q 913 349 913 442 q 883 187 913 257 q 799 69 854 117 q 663 -2 743 22 q 481 -26 582 -26 m 738 1685 q 769 1669 751 1685 q 786 1638 786 1653 q 785 1629 786 1635 q 778 1615 785 1624 l 586 1421 q 565 1403 576 1413 q 525 1393 553 1393 q 487 1403 499 1393 q 467 1421 475 1413 l 272 1615 q 265 1629 265 1624 q 265 1638 265 1635 q 283 1669 265 1653 q 314 1685 300 1685 q 330 1680 322 1685 q 349 1668 338 1675 l 525 1532 l 703 1668 q 721 1680 714 1675 q 738 1685 728 1685 z "},"Ş":{"ha":1015,"x_min":104,"x_max":913,"o":"m 481 -26 q 389 -18 439 -26 q 288 9 339 -10 q 192 59 238 28 q 114 135 146 90 q 105 161 104 149 q 125 193 106 174 q 158 216 144 214 q 197 194 171 218 q 272 141 229 164 q 366 105 314 118 q 481 92 418 92 q 615 107 558 92 q 709 154 671 122 q 766 235 747 186 q 785 349 785 283 q 766 442 785 403 q 712 511 747 482 q 627 563 676 540 q 517 604 578 586 q 413 644 465 622 q 312 697 360 665 q 226 771 264 728 q 167 872 189 814 q 146 1006 146 929 q 174 1145 146 1085 q 253 1249 201 1206 q 374 1313 304 1292 q 525 1335 443 1335 q 663 1315 600 1335 q 778 1260 725 1294 q 878 1182 831 1225 q 890 1153 893 1168 q 872 1124 888 1139 q 840 1099 856 1106 q 808 1103 824 1092 q 728 1162 769 1136 q 636 1202 686 1188 q 525 1217 586 1217 q 419 1203 465 1217 q 340 1163 372 1189 q 292 1098 308 1138 q 275 1006 275 1058 q 295 900 275 944 q 352 824 315 856 q 439 769 389 792 q 549 728 489 746 q 674 681 610 708 q 793 610 739 653 q 880 505 847 568 q 913 349 913 442 q 883 187 913 257 q 799 69 854 117 q 663 -2 743 22 q 481 -26 582 -26 m 481 -376 q 413 -368 457 -376 q 331 -337 368 -360 q 313 -312 315 -328 q 318 -281 311 -296 q 340 -256 328 -261 q 371 -257 353 -250 q 413 -272 386 -264 q 471 -281 439 -281 q 532 -269 514 -281 q 550 -232 550 -258 q 528 -194 550 -210 q 444 -187 506 -179 q 421 -186 429 -189 q 404 -174 413 -183 q 397 -154 397 -164 q 400 -135 396 -144 l 468 18 l 558 18 l 485 -146 l 443 -124 q 554 -108 506 -100 q 631 -149 603 -117 q 660 -232 660 -181 q 639 -309 660 -276 q 579 -359 618 -342 q 481 -376 540 -376 z "},"Ŝ":{"ha":1015,"x_min":104,"x_max":913,"o":"m 481 -26 q 389 -18 439 -26 q 288 9 339 -10 q 192 59 238 28 q 114 135 146 90 q 105 161 104 149 q 125 193 106 174 q 158 216 144 214 q 197 194 171 218 q 272 141 229 164 q 366 105 314 118 q 481 92 418 92 q 615 107 558 92 q 709 154 671 122 q 766 235 747 186 q 785 349 785 283 q 766 442 785 403 q 712 511 747 482 q 627 563 676 540 q 517 604 578 586 q 413 644 465 622 q 312 697 360 665 q 226 771 264 728 q 167 872 189 814 q 146 1006 146 929 q 174 1145 146 1085 q 253 1249 201 1206 q 374 1313 304 1292 q 525 1335 443 1335 q 663 1315 600 1335 q 778 1260 725 1294 q 878 1182 831 1225 q 890 1153 893 1168 q 872 1124 888 1139 q 840 1099 856 1106 q 808 1103 824 1092 q 728 1162 769 1136 q 636 1202 686 1188 q 525 1217 586 1217 q 419 1203 465 1217 q 340 1163 372 1189 q 292 1098 308 1138 q 275 1006 275 1058 q 295 900 275 944 q 352 824 315 856 q 439 769 389 792 q 549 728 489 746 q 674 681 610 708 q 793 610 739 653 q 880 505 847 568 q 913 349 913 442 q 883 187 913 257 q 799 69 854 117 q 663 -2 743 22 q 481 -26 582 -26 m 314 1393 q 283 1410 300 1393 q 265 1440 265 1426 q 265 1450 265 1444 q 272 1463 265 1456 l 464 1657 q 486 1676 474 1667 q 525 1685 499 1685 q 563 1676 551 1685 q 585 1657 575 1667 l 778 1463 q 785 1450 785 1456 q 786 1440 786 1444 q 769 1410 786 1426 q 738 1393 751 1393 q 721 1398 728 1393 q 703 1411 714 1403 l 525 1546 l 349 1411 q 330 1398 338 1403 q 314 1393 322 1393 z "},"Ș":{"ha":1015,"x_min":104,"x_max":913,"o":"m 481 -26 q 389 -18 439 -26 q 288 9 339 -10 q 192 59 238 28 q 114 135 146 90 q 105 161 104 149 q 125 193 106 174 q 158 216 144 214 q 197 194 171 218 q 272 141 229 164 q 366 105 314 118 q 481 92 418 92 q 615 107 558 92 q 709 154 671 122 q 766 235 747 186 q 785 349 785 283 q 766 442 785 403 q 712 511 747 482 q 627 563 676 540 q 517 604 578 586 q 413 644 465 622 q 312 697 360 665 q 226 771 264 728 q 167 872 189 814 q 146 1006 146 929 q 174 1145 146 1085 q 253 1249 201 1206 q 374 1313 304 1292 q 525 1335 443 1335 q 663 1315 600 1335 q 778 1260 725 1294 q 878 1182 831 1225 q 890 1153 893 1168 q 872 1124 888 1139 q 840 1099 856 1106 q 808 1103 824 1092 q 728 1162 769 1136 q 636 1202 686 1188 q 525 1217 586 1217 q 419 1203 465 1217 q 340 1163 372 1189 q 292 1098 308 1138 q 275 1006 275 1058 q 295 900 275 944 q 352 824 315 856 q 439 769 389 792 q 549 728 489 746 q 674 681 610 708 q 793 610 739 653 q 880 505 847 568 q 913 349 913 442 q 883 187 913 257 q 799 69 854 117 q 663 -2 743 22 q 481 -26 582 -26 m 422 -411 q 401 -392 406 -404 q 404 -360 397 -381 q 429 -285 421 -317 q 440 -220 438 -253 q 442 -146 442 -187 q 455 -112 442 -122 q 494 -103 468 -103 q 544 -118 526 -103 q 561 -160 561 -133 q 551 -235 561 -194 q 525 -315 542 -275 q 486 -387 508 -354 q 458 -414 472 -410 q 422 -411 444 -418 z "},"Ŧ":{"ha":1018,"x_min":24,"x_max":994,"o":"m 510 -21 q 449 18 449 -21 l 449 1201 l 63 1201 q 33 1214 42 1201 q 24 1257 24 1226 q 33 1301 24 1289 q 63 1313 42 1313 l 957 1313 q 986 1301 978 1313 q 994 1257 994 1289 q 986 1214 994 1226 q 957 1201 978 1201 l 571 1201 l 571 18 q 556 -11 571 -1 q 510 -21 540 -21 m 244 606 q 213 621 219 606 q 206 654 206 636 q 213 690 206 674 q 244 707 219 707 l 776 707 q 807 690 800 707 q 814 654 814 674 q 807 621 814 636 q 776 606 800 606 l 244 606 z "},"Ť":{"ha":1018,"x_min":24,"x_max":994,"o":"m 510 -21 q 449 18 449 -21 l 449 1201 l 63 1201 q 33 1214 42 1201 q 24 1257 24 1226 q 33 1301 24 1289 q 63 1313 42 1313 l 957 1313 q 986 1301 978 1313 q 994 1257 994 1289 q 986 1214 994 1226 q 957 1201 978 1201 l 571 1201 l 571 18 q 556 -11 571 -1 q 510 -21 540 -21 m 722 1685 q 753 1669 736 1685 q 771 1638 771 1653 q 770 1629 771 1635 q 763 1615 769 1624 l 571 1421 q 549 1403 561 1413 q 510 1393 538 1393 q 472 1403 483 1393 q 451 1421 460 1413 l 257 1615 q 250 1629 250 1624 q 250 1638 250 1635 q 267 1669 250 1653 q 299 1685 285 1685 q 315 1680 307 1685 q 333 1668 322 1675 l 510 1532 l 688 1668 q 706 1680 699 1675 q 722 1685 713 1685 z "},"Ţ":{"ha":1018,"x_min":24,"x_max":994,"o":"m 510 -21 q 449 18 449 -21 l 449 1201 l 63 1201 q 33 1214 42 1201 q 24 1257 24 1226 q 33 1301 24 1289 q 63 1313 42 1313 l 957 1313 q 986 1301 978 1313 q 994 1257 994 1289 q 986 1214 994 1226 q 957 1201 978 1201 l 571 1201 l 571 18 q 556 -11 571 -1 q 510 -21 540 -21 m 488 -376 q 419 -368 464 -376 q 338 -337 375 -360 q 320 -312 322 -328 q 325 -281 318 -296 q 347 -256 335 -261 q 378 -257 360 -250 q 419 -272 393 -264 q 478 -281 446 -281 q 539 -269 521 -281 q 557 -232 557 -258 q 535 -194 557 -210 q 451 -187 513 -179 q 428 -186 436 -189 q 411 -174 419 -183 q 403 -154 404 -164 q 407 -135 403 -144 l 475 18 l 565 18 l 492 -146 l 450 -124 q 561 -108 513 -100 q 638 -149 610 -117 q 667 -232 667 -181 q 646 -309 667 -276 q 586 -359 625 -342 q 488 -376 547 -376 z "},"Ț":{"ha":1018,"x_min":24,"x_max":994,"o":"m 510 -21 q 449 18 449 -21 l 449 1201 l 63 1201 q 33 1214 42 1201 q 24 1257 24 1226 q 33 1301 24 1289 q 63 1313 42 1313 l 957 1313 q 986 1301 978 1313 q 994 1257 994 1289 q 986 1214 994 1226 q 957 1201 978 1201 l 571 1201 l 571 18 q 556 -11 571 -1 q 510 -21 540 -21 m 429 -411 q 408 -392 413 -404 q 411 -360 404 -381 q 436 -285 428 -317 q 447 -220 444 -253 q 449 -146 449 -187 q 462 -112 449 -122 q 501 -103 475 -103 q 551 -118 533 -103 q 568 -160 568 -133 q 558 -235 568 -194 q 532 -315 549 -275 q 493 -387 515 -354 q 465 -414 479 -410 q 429 -411 451 -418 z "},"Ú":{"ha":1274,"x_min":186,"x_max":1088,"o":"m 640 -26 q 449 3 533 -26 q 307 89 365 32 q 217 226 249 146 q 186 410 186 307 l 186 1297 q 201 1326 186 1317 q 247 1335 217 1335 q 293 1326 278 1335 q 308 1297 308 1317 l 308 410 q 347 239 308 310 q 460 130 386 168 q 640 92 535 92 q 816 130 744 92 q 926 239 888 168 q 965 410 965 310 l 965 1297 q 981 1326 965 1317 q 1026 1335 996 1335 q 1088 1297 1088 1335 l 1088 410 q 1034 175 1088 272 q 881 26 981 78 q 640 -26 781 -26 m 571 1393 q 538 1413 557 1393 q 519 1446 519 1432 q 521 1456 519 1451 q 531 1469 522 1461 l 725 1669 q 738 1681 732 1676 q 751 1685 744 1685 q 783 1672 765 1685 q 815 1643 801 1660 q 828 1613 828 1626 q 824 1596 828 1603 q 807 1578 821 1589 l 597 1407 q 583 1397 589 1401 q 571 1393 576 1393 z "},"Ŭ":{"ha":1274,"x_min":186,"x_max":1088,"o":"m 640 -26 q 449 3 533 -26 q 307 89 365 32 q 217 226 249 146 q 186 410 186 307 l 186 1297 q 201 1326 186 1317 q 247 1335 217 1335 q 293 1326 278 1335 q 308 1297 308 1317 l 308 410 q 347 239 308 310 q 460 130 386 168 q 640 92 535 92 q 816 130 744 92 q 926 239 888 168 q 965 410 965 310 l 965 1297 q 981 1326 965 1317 q 1026 1335 996 1335 q 1088 1297 1088 1335 l 1088 410 q 1034 175 1088 272 q 881 26 981 78 q 640 -26 781 -26 m 636 1393 q 462 1456 529 1393 q 385 1643 394 1518 q 397 1672 383 1660 q 438 1683 411 1683 q 468 1673 460 1683 q 482 1643 476 1663 q 537 1549 500 1581 q 636 1517 574 1517 q 736 1549 699 1517 q 790 1643 774 1581 q 803 1673 796 1663 q 833 1683 811 1683 q 874 1672 860 1683 q 888 1643 889 1660 q 847 1508 882 1564 q 758 1422 813 1451 q 636 1393 704 1393 z "},"Ǔ":{"ha":1274,"x_min":186,"x_max":1088,"o":"m 640 -26 q 449 3 533 -26 q 307 89 365 32 q 217 226 249 146 q 186 410 186 307 l 186 1297 q 201 1326 186 1317 q 247 1335 217 1335 q 293 1326 278 1335 q 308 1297 308 1317 l 308 410 q 347 239 308 310 q 460 130 386 168 q 640 92 535 92 q 816 130 744 92 q 926 239 888 168 q 965 410 965 310 l 965 1297 q 981 1326 965 1317 q 1026 1335 996 1335 q 1088 1297 1088 1335 l 1088 410 q 1034 175 1088 272 q 881 26 981 78 q 640 -26 781 -26 m 849 1685 q 880 1669 863 1685 q 897 1638 897 1653 q 897 1629 897 1635 q 889 1615 896 1624 l 697 1421 q 676 1403 688 1413 q 636 1393 664 1393 q 598 1403 610 1393 q 578 1421 586 1413 l 383 1615 q 376 1629 376 1624 q 376 1638 376 1635 q 394 1669 376 1653 q 425 1685 411 1685 q 441 1680 433 1685 q 460 1668 449 1675 l 636 1532 l 814 1668 q 832 1680 825 1675 q 849 1685 839 1685 z "},"Û":{"ha":1274,"x_min":186,"x_max":1088,"o":"m 640 -26 q 449 3 533 -26 q 307 89 365 32 q 217 226 249 146 q 186 410 186 307 l 186 1297 q 201 1326 186 1317 q 247 1335 217 1335 q 293 1326 278 1335 q 308 1297 308 1317 l 308 410 q 347 239 308 310 q 460 130 386 168 q 640 92 535 92 q 816 130 744 92 q 926 239 888 168 q 965 410 965 310 l 965 1297 q 981 1326 965 1317 q 1026 1335 996 1335 q 1088 1297 1088 1335 l 1088 410 q 1034 175 1088 272 q 881 26 981 78 q 640 -26 781 -26 m 425 1393 q 394 1410 411 1393 q 376 1440 376 1426 q 376 1450 376 1444 q 383 1463 376 1456 l 575 1657 q 597 1676 585 1667 q 636 1685 610 1685 q 674 1676 663 1685 q 696 1657 686 1667 l 889 1463 q 897 1450 896 1456 q 897 1440 897 1444 q 880 1410 897 1426 q 849 1393 863 1393 q 832 1398 839 1393 q 814 1411 825 1403 l 636 1546 l 460 1411 q 441 1398 449 1403 q 425 1393 433 1393 z "},"Ü":{"ha":1274,"x_min":186,"x_max":1088,"o":"m 640 -26 q 449 3 533 -26 q 307 89 365 32 q 217 226 249 146 q 186 410 186 307 l 186 1297 q 201 1326 186 1317 q 247 1335 217 1335 q 293 1326 278 1335 q 308 1297 308 1317 l 308 410 q 347 239 308 310 q 460 130 386 168 q 640 92 535 92 q 816 130 744 92 q 926 239 888 168 q 965 410 965 310 l 965 1297 q 981 1326 965 1317 q 1026 1335 996 1335 q 1088 1297 1088 1335 l 1088 410 q 1034 175 1088 272 q 881 26 981 78 q 640 -26 781 -26 m 468 1439 q 410 1461 429 1439 q 390 1526 390 1483 q 410 1592 390 1571 q 468 1614 429 1614 q 526 1592 507 1614 q 544 1526 544 1571 q 527 1460 547 1482 q 468 1439 507 1439 m 806 1439 q 747 1461 767 1439 q 728 1526 728 1483 q 747 1592 728 1571 q 806 1614 767 1614 q 863 1592 843 1614 q 882 1526 882 1571 q 863 1461 883 1483 q 806 1439 843 1439 z "},"Ù":{"ha":1274,"x_min":186,"x_max":1088,"o":"m 640 -26 q 449 3 533 -26 q 307 89 365 32 q 217 226 249 146 q 186 410 186 307 l 186 1297 q 201 1326 186 1317 q 247 1335 217 1335 q 293 1326 278 1335 q 308 1297 308 1317 l 308 410 q 347 239 308 310 q 460 130 386 168 q 640 92 535 92 q 816 130 744 92 q 926 239 888 168 q 965 410 965 310 l 965 1297 q 981 1326 965 1317 q 1026 1335 996 1335 q 1088 1297 1088 1335 l 1088 410 q 1034 175 1088 272 q 881 26 981 78 q 640 -26 781 -26 m 701 1393 q 690 1397 696 1393 q 675 1407 683 1401 l 467 1578 q 449 1596 453 1589 q 446 1613 446 1603 q 458 1643 446 1626 q 489 1672 471 1660 q 521 1685 507 1685 q 535 1681 529 1685 q 547 1669 542 1676 l 742 1469 q 753 1456 751 1461 q 754 1446 754 1451 q 735 1413 754 1432 q 701 1393 717 1393 z "},"Ű":{"ha":1274,"x_min":186,"x_max":1088,"o":"m 640 -26 q 449 3 533 -26 q 307 89 365 32 q 217 226 249 146 q 186 410 186 307 l 186 1297 q 201 1326 186 1317 q 247 1335 217 1335 q 293 1326 278 1335 q 308 1297 308 1317 l 308 410 q 347 239 308 310 q 460 130 386 168 q 640 92 535 92 q 816 130 744 92 q 926 239 888 168 q 965 410 965 310 l 965 1297 q 981 1326 965 1317 q 1026 1335 996 1335 q 1088 1297 1088 1335 l 1088 410 q 1034 175 1088 272 q 881 26 981 78 q 640 -26 781 -26 m 497 1393 q 465 1413 483 1393 q 446 1446 446 1432 q 447 1456 446 1451 q 457 1469 449 1460 l 633 1669 q 648 1681 640 1676 q 663 1685 656 1685 q 694 1673 678 1685 q 721 1645 710 1661 q 732 1615 732 1629 q 728 1598 732 1606 q 711 1579 725 1590 l 524 1407 q 509 1397 515 1401 q 497 1393 503 1393 m 761 1393 q 728 1413 746 1393 q 710 1446 710 1432 q 711 1456 710 1451 q 722 1469 713 1461 l 903 1669 q 917 1681 910 1676 q 933 1685 925 1685 q 965 1673 949 1685 q 992 1645 981 1661 q 1003 1615 1003 1629 q 999 1598 1003 1606 q 982 1579 994 1590 l 788 1407 q 774 1397 781 1401 q 761 1393 767 1393 z "},"Ū":{"ha":1274,"x_min":186,"x_max":1088,"o":"m 640 -26 q 449 3 533 -26 q 307 89 365 32 q 217 226 249 146 q 186 410 186 307 l 186 1297 q 201 1326 186 1317 q 247 1335 217 1335 q 293 1326 278 1335 q 308 1297 308 1317 l 308 410 q 347 239 308 310 q 460 130 386 168 q 640 92 535 92 q 816 130 744 92 q 926 239 888 168 q 965 410 965 310 l 965 1297 q 981 1326 965 1317 q 1026 1335 996 1335 q 1088 1297 1088 1335 l 1088 410 q 1034 175 1088 272 q 881 26 981 78 q 640 -26 781 -26 m 447 1479 q 417 1495 424 1479 q 410 1536 410 1511 q 417 1580 410 1563 q 447 1597 424 1597 l 825 1597 q 856 1580 850 1597 q 863 1536 863 1563 q 856 1495 863 1511 q 825 1479 850 1479 l 447 1479 z "},"Ų":{"ha":1274,"x_min":186,"x_max":1088,"o":"m 640 -26 q 449 3 533 -26 q 307 89 365 32 q 217 226 249 146 q 186 410 186 307 l 186 1297 q 201 1326 186 1317 q 247 1335 217 1335 q 293 1326 278 1335 q 308 1297 308 1317 l 308 410 q 347 239 308 310 q 460 130 386 168 q 640 92 535 92 q 816 130 744 92 q 926 239 888 168 q 965 410 965 310 l 965 1297 q 981 1326 965 1317 q 1026 1335 996 1335 q 1088 1297 1088 1335 l 1088 410 q 1034 175 1088 272 q 881 26 981 78 q 640 -26 781 -26 m 744 -344 q 650 -313 690 -344 q 610 -221 610 -282 q 623 -151 610 -183 q 660 -87 636 -118 q 720 -23 685 -56 q 803 46 756 10 l 889 47 l 889 35 q 827 -19 857 8 q 772 -73 797 -46 q 733 -127 747 -100 q 718 -181 718 -154 q 732 -225 718 -211 q 768 -239 746 -239 q 806 -231 789 -239 q 850 -201 824 -222 q 874 -194 860 -194 q 901 -206 888 -193 q 919 -237 915 -219 q 915 -267 922 -256 q 868 -308 899 -290 q 805 -335 838 -326 q 744 -344 772 -344 z "},"Ů":{"ha":1274,"x_min":186,"x_max":1088,"o":"m 640 -26 q 449 3 533 -26 q 307 89 365 32 q 217 226 249 146 q 186 410 186 307 l 186 1297 q 201 1326 186 1317 q 247 1335 217 1335 q 293 1326 278 1335 q 308 1297 308 1317 l 308 410 q 347 239 308 310 q 460 130 386 168 q 640 92 535 92 q 816 130 744 92 q 926 239 888 168 q 965 410 965 310 l 965 1297 q 981 1326 965 1317 q 1026 1335 996 1335 q 1088 1297 1088 1335 l 1088 410 q 1034 175 1088 272 q 881 26 981 78 q 640 -26 781 -26 m 636 1382 q 538 1403 582 1382 q 469 1464 494 1425 q 444 1551 444 1503 q 469 1638 444 1600 q 538 1698 494 1676 q 636 1719 582 1719 q 737 1698 693 1719 q 806 1638 781 1676 q 831 1551 831 1600 q 806 1464 831 1503 q 737 1403 781 1425 q 636 1382 693 1382 m 636 1465 q 705 1490 679 1465 q 731 1551 731 1515 q 705 1612 731 1588 q 636 1636 679 1636 q 569 1612 594 1636 q 544 1551 544 1588 q 569 1490 544 1515 q 636 1465 594 1465 z "},"Ũ":{"ha":1274,"x_min":186,"x_max":1088,"o":"m 640 -26 q 449 3 533 -26 q 307 89 365 32 q 217 226 249 146 q 186 410 186 307 l 186 1297 q 201 1326 186 1317 q 247 1335 217 1335 q 293 1326 278 1335 q 308 1297 308 1317 l 308 410 q 347 239 308 310 q 460 130 386 168 q 640 92 535 92 q 816 130 744 92 q 926 239 888 168 q 965 410 965 310 l 965 1297 q 981 1326 965 1317 q 1026 1335 996 1335 q 1088 1297 1088 1335 l 1088 410 q 1034 175 1088 272 q 881 26 981 78 q 640 -26 781 -26 m 426 1432 q 379 1468 379 1432 q 416 1600 382 1556 q 517 1644 450 1644 q 592 1628 560 1644 q 651 1592 625 1613 q 701 1556 678 1572 q 747 1540 724 1540 q 776 1563 765 1540 q 789 1617 786 1585 q 836 1647 792 1647 q 874 1638 863 1647 q 886 1608 886 1628 q 850 1477 885 1521 q 747 1433 815 1433 q 673 1449 707 1433 q 612 1486 639 1465 q 561 1523 585 1507 q 517 1539 538 1539 q 489 1522 499 1539 q 476 1468 479 1504 q 463 1441 475 1450 q 426 1432 450 1432 z "},"Ǘ":{"ha":1274,"x_min":186,"x_max":1088,"o":"m 640 -26 q 449 3 533 -26 q 307 89 365 32 q 217 226 249 146 q 186 410 186 307 l 186 1297 q 201 1326 186 1317 q 247 1335 217 1335 q 293 1326 278 1335 q 308 1297 308 1317 l 308 410 q 347 239 308 310 q 460 130 386 168 q 640 92 535 92 q 816 130 744 92 q 926 239 888 168 q 965 410 965 310 l 965 1297 q 981 1326 965 1317 q 1026 1335 996 1335 q 1088 1297 1088 1335 l 1088 410 q 1034 175 1088 272 q 881 26 981 78 q 640 -26 781 -26 m 468 1439 q 410 1461 429 1439 q 390 1526 390 1483 q 410 1592 390 1571 q 468 1614 429 1614 q 526 1592 507 1614 q 544 1526 544 1571 q 527 1460 547 1482 q 468 1439 507 1439 m 806 1439 q 747 1461 767 1439 q 728 1526 728 1483 q 747 1592 728 1571 q 806 1614 767 1614 q 863 1592 843 1614 q 882 1526 882 1571 q 863 1461 883 1483 q 806 1439 843 1439 m 571 1653 q 538 1672 557 1653 q 519 1706 519 1692 q 521 1716 519 1711 q 531 1729 522 1721 l 725 1929 q 738 1940 732 1936 q 751 1944 744 1944 q 783 1932 765 1944 q 815 1903 801 1919 q 828 1872 828 1886 q 824 1856 828 1863 q 807 1838 821 1849 l 597 1667 q 583 1657 589 1661 q 571 1653 576 1653 z "},"Ǚ":{"ha":1274,"x_min":186,"x_max":1088,"o":"m 640 -26 q 449 3 533 -26 q 307 89 365 32 q 217 226 249 146 q 186 410 186 307 l 186 1297 q 201 1326 186 1317 q 247 1335 217 1335 q 293 1326 278 1335 q 308 1297 308 1317 l 308 410 q 347 239 308 310 q 460 130 386 168 q 640 92 535 92 q 816 130 744 92 q 926 239 888 168 q 965 410 965 310 l 965 1297 q 981 1326 965 1317 q 1026 1335 996 1335 q 1088 1297 1088 1335 l 1088 410 q 1034 175 1088 272 q 881 26 981 78 q 640 -26 781 -26 m 468 1439 q 410 1461 429 1439 q 390 1526 390 1483 q 410 1592 390 1571 q 468 1614 429 1614 q 526 1592 507 1614 q 544 1526 544 1571 q 527 1460 547 1482 q 468 1439 507 1439 m 806 1439 q 747 1461 767 1439 q 728 1526 728 1483 q 747 1592 728 1571 q 806 1614 767 1614 q 863 1592 843 1614 q 882 1526 882 1571 q 863 1461 883 1483 q 806 1439 843 1439 m 849 1944 q 880 1928 863 1944 q 897 1897 897 1913 q 897 1889 897 1894 q 889 1875 896 1883 l 697 1681 q 676 1663 688 1672 q 636 1653 664 1653 q 598 1663 610 1653 q 578 1681 586 1672 l 383 1875 q 376 1889 376 1883 q 376 1897 376 1894 q 394 1928 376 1913 q 425 1944 411 1944 q 441 1940 433 1944 q 460 1928 449 1935 l 636 1792 l 814 1928 q 832 1940 825 1935 q 849 1944 839 1944 z "},"Ǜ":{"ha":1274,"x_min":186,"x_max":1088,"o":"m 640 -26 q 449 3 533 -26 q 307 89 365 32 q 217 226 249 146 q 186 410 186 307 l 186 1297 q 201 1326 186 1317 q 247 1335 217 1335 q 293 1326 278 1335 q 308 1297 308 1317 l 308 410 q 347 239 308 310 q 460 130 386 168 q 640 92 535 92 q 816 130 744 92 q 926 239 888 168 q 965 410 965 310 l 965 1297 q 981 1326 965 1317 q 1026 1335 996 1335 q 1088 1297 1088 1335 l 1088 410 q 1034 175 1088 272 q 881 26 981 78 q 640 -26 781 -26 m 468 1439 q 410 1461 429 1439 q 390 1526 390 1483 q 410 1592 390 1571 q 468 1614 429 1614 q 526 1592 507 1614 q 544 1526 544 1571 q 527 1460 547 1482 q 468 1439 507 1439 m 806 1439 q 747 1461 767 1439 q 728 1526 728 1483 q 747 1592 728 1571 q 806 1614 767 1614 q 863 1592 843 1614 q 882 1526 882 1571 q 863 1461 883 1483 q 806 1439 843 1439 m 701 1653 q 690 1657 696 1653 q 675 1667 683 1661 l 467 1838 q 449 1856 453 1849 q 446 1872 446 1863 q 458 1903 446 1886 q 489 1932 471 1919 q 521 1944 507 1944 q 535 1940 529 1944 q 547 1929 542 1936 l 742 1729 q 753 1716 751 1721 q 754 1706 754 1711 q 735 1672 754 1692 q 701 1653 717 1653 z "},"Ǖ":{"ha":1274,"x_min":186,"x_max":1088,"o":"m 640 -26 q 449 3 533 -26 q 307 89 365 32 q 217 226 249 146 q 186 410 186 307 l 186 1297 q 201 1326 186 1317 q 247 1335 217 1335 q 293 1326 278 1335 q 308 1297 308 1317 l 308 410 q 347 239 308 310 q 460 130 386 168 q 640 92 535 92 q 816 130 744 92 q 926 239 888 168 q 965 410 965 310 l 965 1297 q 981 1326 965 1317 q 1026 1335 996 1335 q 1088 1297 1088 1335 l 1088 410 q 1034 175 1088 272 q 881 26 981 78 q 640 -26 781 -26 m 468 1439 q 410 1461 429 1439 q 390 1526 390 1483 q 410 1592 390 1571 q 468 1614 429 1614 q 526 1592 507 1614 q 544 1526 544 1571 q 527 1460 547 1482 q 468 1439 507 1439 m 806 1439 q 747 1461 767 1439 q 728 1526 728 1483 q 747 1592 728 1571 q 806 1614 767 1614 q 863 1592 843 1614 q 882 1526 882 1571 q 863 1461 883 1483 q 806 1439 843 1439 m 447 1739 q 417 1755 424 1739 q 410 1796 410 1771 q 417 1840 410 1822 q 447 1857 424 1857 l 825 1857 q 856 1840 850 1857 q 863 1796 863 1822 q 856 1755 863 1771 q 825 1739 850 1739 l 447 1739 z "},"Ụ":{"ha":1274,"x_min":186,"x_max":1088,"o":"m 640 -26 q 449 3 533 -26 q 307 89 365 32 q 217 226 249 146 q 186 410 186 307 l 186 1297 q 201 1326 186 1317 q 247 1335 217 1335 q 293 1326 278 1335 q 308 1297 308 1317 l 308 410 q 347 239 308 310 q 460 130 386 168 q 640 92 535 92 q 816 130 744 92 q 926 239 888 168 q 965 410 965 310 l 965 1297 q 981 1326 965 1317 q 1026 1335 996 1335 q 1088 1297 1088 1335 l 1088 410 q 1034 175 1088 272 q 881 26 981 78 q 640 -26 781 -26 m 636 -326 q 578 -305 597 -326 q 558 -239 558 -283 q 578 -173 558 -194 q 636 -151 597 -151 q 693 -173 674 -151 q 713 -239 713 -194 q 694 -305 714 -283 q 636 -326 674 -326 z "},"Ủ":{"ha":1274,"x_min":186,"x_max":1088,"o":"m 640 -26 q 449 3 533 -26 q 307 89 365 32 q 217 226 249 146 q 186 410 186 307 l 186 1297 q 201 1326 186 1317 q 247 1335 217 1335 q 293 1326 278 1335 q 308 1297 308 1317 l 308 410 q 347 239 308 310 q 460 130 386 168 q 640 92 535 92 q 816 130 744 92 q 926 239 888 168 q 965 410 965 310 l 965 1297 q 981 1326 965 1317 q 1026 1335 996 1335 q 1088 1297 1088 1335 l 1088 410 q 1034 175 1088 272 q 881 26 981 78 q 640 -26 781 -26 m 651 1724 q 761 1691 719 1724 q 803 1603 803 1658 q 786 1540 803 1568 q 731 1485 769 1513 q 706 1459 713 1471 q 703 1435 700 1447 l 704 1424 q 697 1399 708 1410 q 667 1383 685 1388 q 633 1382 649 1378 q 610 1401 617 1386 l 594 1438 q 594 1497 583 1469 q 636 1547 606 1525 q 664 1572 656 1561 q 672 1594 672 1583 q 660 1614 672 1606 q 629 1622 649 1622 q 588 1617 610 1622 q 554 1601 567 1611 q 496 1624 521 1581 q 504 1678 479 1656 q 572 1711 533 1699 q 651 1724 611 1724 z "},"Ư":{"ha":1274,"x_min":186,"x_max":1353,"o":"m 1304 1579 q 1347 1463 1340 1521 q 1324 1355 1353 1404 q 1227 1276 1296 1306 q 1044 1246 1158 1246 l 1044 1332 q 1184 1358 1140 1332 q 1229 1426 1228 1383 q 1199 1519 1231 1468 q 1193 1564 1185 1543 q 1222 1597 1201 1585 q 1267 1606 1243 1608 q 1304 1579 1290 1603 m 640 -26 q 449 3 533 -26 q 307 89 365 32 q 217 226 249 146 q 186 410 186 307 l 186 1297 q 201 1326 186 1317 q 247 1335 217 1335 q 293 1326 278 1335 q 308 1297 308 1317 l 308 410 q 347 239 308 310 q 460 130 386 168 q 640 92 535 92 q 816 130 744 92 q 926 239 888 168 q 965 410 965 310 l 965 1297 q 981 1326 965 1317 q 1026 1335 996 1335 q 1088 1297 1088 1335 l 1088 410 q 1034 175 1088 272 q 881 26 981 78 q 640 -26 781 -26 z "},"Ứ":{"ha":1274,"x_min":186,"x_max":1353,"o":"m 1304 1579 q 1347 1463 1340 1521 q 1324 1355 1353 1404 q 1227 1276 1296 1306 q 1044 1246 1158 1246 l 1044 1332 q 1184 1358 1140 1332 q 1229 1426 1228 1383 q 1199 1519 1231 1468 q 1193 1564 1185 1543 q 1222 1597 1201 1585 q 1267 1606 1243 1608 q 1304 1579 1290 1603 m 640 -26 q 449 3 533 -26 q 307 89 365 32 q 217 226 249 146 q 186 410 186 307 l 186 1297 q 201 1326 186 1317 q 247 1335 217 1335 q 293 1326 278 1335 q 308 1297 308 1317 l 308 410 q 347 239 308 310 q 460 130 386 168 q 640 92 535 92 q 816 130 744 92 q 926 239 888 168 q 965 410 965 310 l 965 1297 q 981 1326 965 1317 q 1026 1335 996 1335 q 1088 1297 1088 1335 l 1088 410 q 1034 175 1088 272 q 881 26 981 78 q 640 -26 781 -26 m 571 1393 q 538 1413 557 1393 q 519 1446 519 1432 q 521 1456 519 1451 q 531 1469 522 1461 l 725 1669 q 738 1681 732 1676 q 751 1685 744 1685 q 783 1672 765 1685 q 815 1643 801 1660 q 828 1613 828 1626 q 824 1596 828 1603 q 807 1578 821 1589 l 597 1407 q 583 1397 589 1401 q 571 1393 576 1393 z "},"Ự":{"ha":1274,"x_min":186,"x_max":1353,"o":"m 1304 1579 q 1347 1463 1340 1521 q 1324 1355 1353 1404 q 1227 1276 1296 1306 q 1044 1246 1158 1246 l 1044 1332 q 1184 1358 1140 1332 q 1229 1426 1228 1383 q 1199 1519 1231 1468 q 1193 1564 1185 1543 q 1222 1597 1201 1585 q 1267 1606 1243 1608 q 1304 1579 1290 1603 m 640 -26 q 449 3 533 -26 q 307 89 365 32 q 217 226 249 146 q 186 410 186 307 l 186 1297 q 201 1326 186 1317 q 247 1335 217 1335 q 293 1326 278 1335 q 308 1297 308 1317 l 308 410 q 347 239 308 310 q 460 130 386 168 q 640 92 535 92 q 816 130 744 92 q 926 239 888 168 q 965 410 965 310 l 965 1297 q 981 1326 965 1317 q 1026 1335 996 1335 q 1088 1297 1088 1335 l 1088 410 q 1034 175 1088 272 q 881 26 981 78 q 640 -26 781 -26 m 636 -326 q 578 -305 597 -326 q 558 -239 558 -283 q 578 -173 558 -194 q 636 -151 597 -151 q 693 -173 674 -151 q 713 -239 713 -194 q 694 -305 714 -283 q 636 -326 674 -326 z "},"Ừ":{"ha":1274,"x_min":186,"x_max":1353,"o":"m 1304 1579 q 1347 1463 1340 1521 q 1324 1355 1353 1404 q 1227 1276 1296 1306 q 1044 1246 1158 1246 l 1044 1332 q 1184 1358 1140 1332 q 1229 1426 1228 1383 q 1199 1519 1231 1468 q 1193 1564 1185 1543 q 1222 1597 1201 1585 q 1267 1606 1243 1608 q 1304 1579 1290 1603 m 640 -26 q 449 3 533 -26 q 307 89 365 32 q 217 226 249 146 q 186 410 186 307 l 186 1297 q 201 1326 186 1317 q 247 1335 217 1335 q 293 1326 278 1335 q 308 1297 308 1317 l 308 410 q 347 239 308 310 q 460 130 386 168 q 640 92 535 92 q 816 130 744 92 q 926 239 888 168 q 965 410 965 310 l 965 1297 q 981 1326 965 1317 q 1026 1335 996 1335 q 1088 1297 1088 1335 l 1088 410 q 1034 175 1088 272 q 881 26 981 78 q 640 -26 781 -26 m 701 1393 q 690 1397 696 1393 q 675 1407 683 1401 l 467 1578 q 449 1596 453 1589 q 446 1613 446 1603 q 458 1643 446 1626 q 489 1672 471 1660 q 521 1685 507 1685 q 535 1681 529 1685 q 547 1669 542 1676 l 742 1469 q 753 1456 751 1461 q 754 1446 754 1451 q 735 1413 754 1432 q 701 1393 717 1393 z "},"Ử":{"ha":1274,"x_min":186,"x_max":1353,"o":"m 1304 1579 q 1347 1463 1340 1521 q 1324 1355 1353 1404 q 1227 1276 1296 1306 q 1044 1246 1158 1246 l 1044 1332 q 1184 1358 1140 1332 q 1229 1426 1228 1383 q 1199 1519 1231 1468 q 1193 1564 1185 1543 q 1222 1597 1201 1585 q 1267 1606 1243 1608 q 1304 1579 1290 1603 m 640 -26 q 449 3 533 -26 q 307 89 365 32 q 217 226 249 146 q 186 410 186 307 l 186 1297 q 201 1326 186 1317 q 247 1335 217 1335 q 293 1326 278 1335 q 308 1297 308 1317 l 308 410 q 347 239 308 310 q 460 130 386 168 q 640 92 535 92 q 816 130 744 92 q 926 239 888 168 q 965 410 965 310 l 965 1297 q 981 1326 965 1317 q 1026 1335 996 1335 q 1088 1297 1088 1335 l 1088 410 q 1034 175 1088 272 q 881 26 981 78 q 640 -26 781 -26 m 651 1724 q 761 1691 719 1724 q 803 1603 803 1658 q 786 1540 803 1568 q 731 1485 769 1513 q 706 1459 713 1471 q 703 1435 700 1447 l 704 1424 q 697 1399 708 1410 q 667 1383 685 1388 q 633 1382 649 1378 q 610 1401 617 1386 l 594 1438 q 594 1497 583 1469 q 636 1547 606 1525 q 664 1572 656 1561 q 672 1594 672 1583 q 660 1614 672 1606 q 629 1622 649 1622 q 588 1617 610 1622 q 554 1601 567 1611 q 496 1624 521 1581 q 504 1678 479 1656 q 572 1711 533 1699 q 651 1724 611 1724 z "},"Ữ":{"ha":1274,"x_min":186,"x_max":1353,"o":"m 1304 1579 q 1347 1463 1340 1521 q 1324 1355 1353 1404 q 1227 1276 1296 1306 q 1044 1246 1158 1246 l 1044 1332 q 1184 1358 1140 1332 q 1229 1426 1228 1383 q 1199 1519 1231 1468 q 1193 1564 1185 1543 q 1222 1597 1201 1585 q 1267 1606 1243 1608 q 1304 1579 1290 1603 m 640 -26 q 449 3 533 -26 q 307 89 365 32 q 217 226 249 146 q 186 410 186 307 l 186 1297 q 201 1326 186 1317 q 247 1335 217 1335 q 293 1326 278 1335 q 308 1297 308 1317 l 308 410 q 347 239 308 310 q 460 130 386 168 q 640 92 535 92 q 816 130 744 92 q 926 239 888 168 q 965 410 965 310 l 965 1297 q 981 1326 965 1317 q 1026 1335 996 1335 q 1088 1297 1088 1335 l 1088 410 q 1034 175 1088 272 q 881 26 981 78 q 640 -26 781 -26 m 426 1432 q 379 1468 379 1432 q 416 1600 382 1556 q 517 1644 450 1644 q 592 1628 560 1644 q 651 1592 625 1613 q 701 1556 678 1572 q 747 1540 724 1540 q 776 1563 765 1540 q 789 1617 786 1585 q 836 1647 792 1647 q 874 1638 863 1647 q 886 1608 886 1628 q 850 1477 885 1521 q 747 1433 815 1433 q 673 1449 707 1433 q 612 1486 639 1465 q 561 1523 585 1507 q 517 1539 538 1539 q 489 1522 499 1539 q 476 1468 479 1504 q 463 1441 475 1450 q 426 1432 450 1432 z "},"Ẃ":{"ha":1764,"x_min":18,"x_max":1746,"o":"m 453 -19 q 403 -7 421 -19 q 376 36 385 6 l 24 1272 q 27 1306 18 1292 q 67 1329 36 1319 q 113 1335 94 1339 q 138 1308 132 1332 l 456 174 l 810 1285 q 834 1324 818 1313 q 881 1335 850 1335 q 928 1324 913 1335 q 953 1285 944 1313 l 1307 175 l 1626 1308 q 1652 1335 1633 1332 q 1697 1329 1671 1339 q 1737 1306 1728 1319 q 1740 1272 1746 1292 l 1385 36 q 1358 -7 1375 6 q 1307 -19 1340 -19 q 1258 -7 1274 -19 q 1231 36 1242 6 l 881 1140 l 531 36 q 503 -7 521 6 q 453 -19 486 -19 m 817 1393 q 784 1413 803 1393 q 765 1446 765 1432 q 767 1456 765 1451 q 776 1469 768 1461 l 971 1669 q 984 1681 978 1676 q 997 1685 990 1685 q 1029 1672 1011 1685 q 1060 1643 1047 1660 q 1074 1613 1074 1626 q 1070 1596 1074 1603 q 1053 1578 1067 1589 l 843 1407 q 828 1397 835 1401 q 817 1393 822 1393 z "},"Ŵ":{"ha":1764,"x_min":18,"x_max":1746,"o":"m 453 -19 q 403 -7 421 -19 q 376 36 385 6 l 24 1272 q 27 1306 18 1292 q 67 1329 36 1319 q 113 1335 94 1339 q 138 1308 132 1332 l 456 174 l 810 1285 q 834 1324 818 1313 q 881 1335 850 1335 q 928 1324 913 1335 q 953 1285 944 1313 l 1307 175 l 1626 1308 q 1652 1335 1633 1332 q 1697 1329 1671 1339 q 1737 1306 1728 1319 q 1740 1272 1746 1292 l 1385 36 q 1358 -7 1375 6 q 1307 -19 1340 -19 q 1258 -7 1274 -19 q 1231 36 1242 6 l 881 1140 l 531 36 q 503 -7 521 6 q 453 -19 486 -19 m 671 1393 q 640 1410 657 1393 q 622 1440 622 1426 q 622 1450 622 1444 q 629 1463 622 1456 l 821 1657 q 843 1676 831 1667 q 882 1685 856 1685 q 920 1676 908 1685 q 942 1657 932 1667 l 1135 1463 q 1142 1450 1142 1456 q 1143 1440 1143 1444 q 1126 1410 1143 1426 q 1094 1393 1108 1393 q 1078 1398 1085 1393 q 1060 1411 1071 1403 l 882 1546 l 706 1411 q 687 1398 694 1403 q 671 1393 679 1393 z "},"Ẅ":{"ha":1764,"x_min":18,"x_max":1746,"o":"m 453 -19 q 403 -7 421 -19 q 376 36 385 6 l 24 1272 q 27 1306 18 1292 q 67 1329 36 1319 q 113 1335 94 1339 q 138 1308 132 1332 l 456 174 l 810 1285 q 834 1324 818 1313 q 881 1335 850 1335 q 928 1324 913 1335 q 953 1285 944 1313 l 1307 175 l 1626 1308 q 1652 1335 1633 1332 q 1697 1329 1671 1339 q 1737 1306 1728 1319 q 1740 1272 1746 1292 l 1385 36 q 1358 -7 1375 6 q 1307 -19 1340 -19 q 1258 -7 1274 -19 q 1231 36 1242 6 l 881 1140 l 531 36 q 503 -7 521 6 q 453 -19 486 -19 m 714 1439 q 656 1461 675 1439 q 636 1526 636 1483 q 656 1592 636 1571 q 714 1614 675 1614 q 772 1592 753 1614 q 790 1526 790 1571 q 773 1460 793 1482 q 714 1439 753 1439 m 1051 1439 q 993 1461 1013 1439 q 974 1526 974 1483 q 993 1592 974 1571 q 1051 1614 1013 1614 q 1108 1592 1089 1614 q 1128 1526 1128 1571 q 1109 1461 1129 1483 q 1051 1439 1089 1439 z "},"Ẁ":{"ha":1764,"x_min":18,"x_max":1746,"o":"m 453 -19 q 403 -7 421 -19 q 376 36 385 6 l 24 1272 q 27 1306 18 1292 q 67 1329 36 1319 q 113 1335 94 1339 q 138 1308 132 1332 l 456 174 l 810 1285 q 834 1324 818 1313 q 881 1335 850 1335 q 928 1324 913 1335 q 953 1285 944 1313 l 1307 175 l 1626 1308 q 1652 1335 1633 1332 q 1697 1329 1671 1339 q 1737 1306 1728 1319 q 1740 1272 1746 1292 l 1385 36 q 1358 -7 1375 6 q 1307 -19 1340 -19 q 1258 -7 1274 -19 q 1231 36 1242 6 l 881 1140 l 531 36 q 503 -7 521 6 q 453 -19 486 -19 m 947 1393 q 935 1397 942 1393 q 921 1407 929 1401 l 713 1578 q 695 1596 699 1589 q 692 1613 692 1603 q 704 1643 692 1626 q 735 1672 717 1660 q 767 1685 753 1685 q 781 1681 775 1685 q 793 1669 788 1676 l 988 1469 q 999 1456 997 1461 q 1000 1446 1000 1451 q 981 1413 1000 1432 q 947 1393 963 1393 z "},"Ý":{"ha":911,"x_min":4,"x_max":907,"o":"m 454 -19 q 394 19 394 -19 l 394 556 l 14 1260 q 13 1293 4 1278 q 49 1322 21 1308 q 92 1337 75 1336 q 122 1314 110 1338 l 456 688 l 790 1314 q 821 1337 804 1338 q 864 1322 838 1336 q 899 1293 892 1308 q 899 1260 907 1278 l 515 554 l 515 19 q 454 -19 515 -19 m 390 1393 q 358 1413 376 1393 q 339 1446 339 1432 q 340 1456 339 1451 q 350 1469 342 1461 l 544 1669 q 558 1681 551 1676 q 571 1685 564 1685 q 603 1672 585 1685 q 634 1643 621 1660 q 647 1613 647 1626 q 644 1596 647 1603 q 626 1578 640 1589 l 417 1407 q 402 1397 408 1401 q 390 1393 396 1393 z "},"Ŷ":{"ha":911,"x_min":4,"x_max":907,"o":"m 454 -19 q 394 19 394 -19 l 394 556 l 14 1260 q 13 1293 4 1278 q 49 1322 21 1308 q 92 1337 75 1336 q 122 1314 110 1338 l 456 688 l 790 1314 q 821 1337 804 1338 q 864 1322 838 1336 q 899 1293 892 1308 q 899 1260 907 1278 l 515 554 l 515 19 q 454 -19 515 -19 m 244 1393 q 213 1410 231 1393 q 196 1440 196 1426 q 196 1450 196 1444 q 203 1463 196 1456 l 394 1657 q 417 1676 404 1667 q 456 1685 429 1685 q 494 1676 482 1685 q 515 1657 506 1667 l 708 1463 q 716 1450 715 1456 q 717 1440 717 1444 q 699 1410 717 1426 q 668 1393 682 1393 q 651 1398 658 1393 q 633 1411 644 1403 l 456 1546 l 279 1411 q 260 1398 268 1403 q 244 1393 253 1393 z "},"Ÿ":{"ha":911,"x_min":4,"x_max":907,"o":"m 454 -19 q 394 19 394 -19 l 394 556 l 14 1260 q 13 1293 4 1278 q 49 1322 21 1308 q 92 1337 75 1336 q 122 1314 110 1338 l 456 688 l 790 1314 q 821 1337 804 1338 q 864 1322 838 1336 q 899 1293 892 1308 q 899 1260 907 1278 l 515 554 l 515 19 q 454 -19 515 -19 m 288 1439 q 229 1461 249 1439 q 210 1526 210 1483 q 229 1592 210 1571 q 288 1614 249 1614 q 345 1592 326 1614 q 364 1526 364 1571 q 347 1460 367 1482 q 288 1439 326 1439 m 625 1439 q 567 1461 586 1439 q 547 1526 547 1483 q 567 1592 547 1571 q 625 1614 586 1614 q 682 1592 663 1614 q 701 1526 701 1571 q 683 1461 703 1483 q 625 1439 663 1439 z "},"Ỳ":{"ha":911,"x_min":4,"x_max":907,"o":"m 454 -19 q 394 19 394 -19 l 394 556 l 14 1260 q 13 1293 4 1278 q 49 1322 21 1308 q 92 1337 75 1336 q 122 1314 110 1338 l 456 688 l 790 1314 q 821 1337 804 1338 q 864 1322 838 1336 q 899 1293 892 1308 q 899 1260 907 1278 l 515 554 l 515 19 q 454 -19 515 -19 m 521 1393 q 509 1397 515 1393 q 494 1407 503 1401 l 286 1578 q 269 1596 272 1589 q 265 1613 265 1603 q 278 1643 265 1626 q 308 1672 290 1660 q 340 1685 326 1685 q 355 1681 349 1685 q 367 1669 361 1676 l 561 1469 q 572 1456 571 1461 q 574 1446 574 1451 q 555 1413 574 1432 q 521 1393 536 1393 z "},"Ỵ":{"ha":911,"x_min":4,"x_max":907,"o":"m 454 -19 q 394 19 394 -19 l 394 556 l 14 1260 q 13 1293 4 1278 q 49 1322 21 1308 q 92 1337 75 1336 q 122 1314 110 1338 l 456 688 l 790 1314 q 821 1337 804 1338 q 864 1322 838 1336 q 899 1293 892 1308 q 899 1260 907 1278 l 515 554 l 515 19 q 454 -19 515 -19 m 447 -326 q 389 -305 408 -326 q 369 -239 369 -283 q 389 -173 369 -194 q 447 -151 408 -151 q 504 -173 485 -151 q 524 -239 524 -194 q 505 -305 525 -283 q 447 -326 485 -326 z "},"Ỷ":{"ha":911,"x_min":4,"x_max":907,"o":"m 454 -19 q 394 19 394 -19 l 394 556 l 14 1260 q 13 1293 4 1278 q 49 1322 21 1308 q 92 1337 75 1336 q 122 1314 110 1338 l 456 688 l 790 1314 q 821 1337 804 1338 q 864 1322 838 1336 q 899 1293 892 1308 q 899 1260 907 1278 l 515 554 l 515 19 q 454 -19 515 -19 m 471 1724 q 581 1691 539 1724 q 622 1603 622 1658 q 606 1540 622 1568 q 550 1485 589 1513 q 526 1459 532 1471 q 522 1435 519 1447 l 524 1424 q 516 1399 528 1410 q 486 1383 504 1388 q 452 1382 468 1378 q 429 1401 436 1386 l 414 1438 q 414 1497 403 1469 q 456 1547 425 1525 q 483 1572 475 1561 q 492 1594 492 1583 q 480 1614 492 1606 q 449 1622 468 1622 q 408 1617 429 1622 q 374 1601 386 1611 q 315 1624 340 1581 q 324 1678 299 1656 q 392 1711 353 1699 q 471 1724 431 1724 z "},"Ỹ":{"ha":911,"x_min":4,"x_max":907,"o":"m 454 -19 q 394 19 394 -19 l 394 556 l 14 1260 q 13 1293 4 1278 q 49 1322 21 1308 q 92 1337 75 1336 q 122 1314 110 1338 l 456 688 l 790 1314 q 821 1337 804 1338 q 864 1322 838 1336 q 899 1293 892 1308 q 899 1260 907 1278 l 515 554 l 515 19 q 454 -19 515 -19 m 246 1432 q 199 1468 199 1432 q 235 1600 201 1556 q 336 1644 269 1644 q 412 1628 379 1644 q 471 1592 444 1613 q 520 1556 497 1572 q 567 1540 543 1540 q 595 1563 585 1540 q 608 1617 606 1585 q 656 1647 611 1647 q 694 1638 682 1647 q 706 1608 706 1628 q 669 1477 704 1521 q 567 1433 635 1433 q 492 1449 526 1433 q 431 1486 458 1465 q 381 1523 404 1507 q 336 1539 357 1539 q 308 1522 318 1539 q 296 1468 299 1504 q 282 1441 294 1450 q 246 1432 269 1432 z "},"Ź":{"ha":904,"x_min":14,"x_max":888,"o":"m 65 0 q 35 13 49 0 q 18 46 22 26 q 24 81 14 65 l 703 1201 l 107 1201 q 77 1214 86 1201 q 68 1257 68 1226 q 77 1301 68 1289 q 107 1313 86 1313 l 824 1313 q 865 1285 850 1313 q 865 1233 879 1257 l 188 111 l 849 111 q 878 99 869 111 q 888 56 888 88 q 878 13 888 25 q 849 0 869 0 l 65 0 m 386 1393 q 353 1413 372 1393 q 335 1446 335 1432 q 336 1456 335 1451 q 346 1469 338 1461 l 540 1669 q 553 1681 547 1676 q 567 1685 560 1685 q 599 1672 581 1685 q 630 1643 617 1660 q 643 1613 643 1626 q 640 1596 643 1603 q 622 1578 636 1589 l 413 1407 q 398 1397 404 1401 q 386 1393 392 1393 z "},"Ž":{"ha":904,"x_min":14,"x_max":888,"o":"m 65 0 q 35 13 49 0 q 18 46 22 26 q 24 81 14 65 l 703 1201 l 107 1201 q 77 1214 86 1201 q 68 1257 68 1226 q 77 1301 68 1289 q 107 1313 86 1313 l 824 1313 q 865 1285 850 1313 q 865 1233 879 1257 l 188 111 l 849 111 q 878 99 869 111 q 888 56 888 88 q 878 13 888 25 q 849 0 869 0 l 65 0 m 664 1685 q 695 1669 678 1685 q 713 1638 713 1653 q 712 1629 713 1635 q 704 1615 711 1624 l 513 1421 q 491 1403 503 1413 q 451 1393 479 1393 q 413 1403 425 1393 q 393 1421 401 1413 l 199 1615 q 192 1629 192 1624 q 192 1638 192 1635 q 209 1669 192 1653 q 240 1685 226 1685 q 256 1680 249 1685 q 275 1668 264 1675 l 451 1532 l 629 1668 q 647 1680 640 1675 q 664 1685 654 1685 z "},"Ż":{"ha":904,"x_min":14,"x_max":888,"o":"m 65 0 q 35 13 49 0 q 18 46 22 26 q 24 81 14 65 l 703 1201 l 107 1201 q 77 1214 86 1201 q 68 1257 68 1226 q 77 1301 68 1289 q 107 1313 86 1313 l 824 1313 q 865 1285 850 1313 q 865 1233 879 1257 l 188 111 l 849 111 q 878 99 869 111 q 888 56 888 88 q 878 13 888 25 q 849 0 869 0 l 65 0 m 451 1439 q 393 1460 413 1439 q 374 1525 374 1482 q 393 1592 374 1569 q 451 1614 413 1614 q 508 1592 489 1614 q 528 1525 528 1569 q 509 1460 529 1482 q 451 1439 489 1439 z "},"á":{"ha":867,"x_min":88,"x_max":867,"o":"m 358 -24 q 218 15 279 -24 q 122 131 157 53 q 88 326 88 208 q 101 460 88 399 q 140 569 114 521 q 204 651 167 618 q 290 703 242 685 q 397 721 339 721 q 489 706 442 721 q 578 668 536 692 l 578 675 q 593 706 578 696 q 639 715 608 715 q 684 706 669 715 q 699 678 699 697 l 699 133 q 704 103 699 115 q 719 86 710 92 q 742 81 729 81 q 765 84 756 81 q 783 94 774 88 q 804 111 792 101 q 826 116 814 119 q 851 101 839 113 q 865 72 864 88 q 860 46 867 57 q 821 8 844 24 q 770 -15 797 -7 q 715 -24 743 -24 q 660 -17 683 -24 q 619 5 636 -10 q 594 40 603 19 q 581 88 585 61 q 579 94 581 89 q 578 104 578 99 q 509 25 546 53 q 433 -13 472 -3 q 358 -24 394 -24 m 210 332 q 228 201 210 256 q 283 117 246 146 q 375 88 319 88 q 452 101 415 88 q 521 147 489 115 q 578 231 553 179 l 578 567 q 494 602 535 593 q 410 611 454 611 q 343 600 374 611 q 288 567 313 589 q 245 511 263 544 q 219 433 228 478 q 210 332 210 389 m 382 847 q 346 864 367 847 q 325 894 325 881 q 326 903 325 899 q 333 917 328 907 l 482 1144 q 497 1160 489 1156 q 515 1165 504 1165 q 548 1155 529 1165 q 581 1130 567 1144 q 596 1103 596 1115 q 592 1087 596 1093 q 579 1069 589 1081 l 408 865 q 382 847 392 847 z "},"ă":{"ha":867,"x_min":88,"x_max":867,"o":"m 358 -24 q 218 15 279 -24 q 122 131 157 53 q 88 326 88 208 q 101 460 88 399 q 140 569 114 521 q 204 651 167 618 q 290 703 242 685 q 397 721 339 721 q 489 706 442 721 q 578 668 536 692 l 578 675 q 593 706 578 696 q 639 715 608 715 q 684 706 669 715 q 699 678 699 697 l 699 133 q 704 103 699 115 q 719 86 710 92 q 742 81 729 81 q 765 84 756 81 q 783 94 774 88 q 804 111 792 101 q 826 116 814 119 q 851 101 839 113 q 865 72 864 88 q 860 46 867 57 q 821 8 844 24 q 770 -15 797 -7 q 715 -24 743 -24 q 660 -17 683 -24 q 619 5 636 -10 q 594 40 603 19 q 581 88 585 61 q 579 94 581 89 q 578 104 578 99 q 509 25 546 53 q 433 -13 472 -3 q 358 -24 394 -24 m 210 332 q 228 201 210 256 q 283 117 246 146 q 375 88 319 88 q 452 101 415 88 q 521 147 489 115 q 578 231 553 179 l 578 567 q 494 602 535 593 q 410 611 454 611 q 343 600 374 611 q 288 567 313 589 q 245 511 263 544 q 219 433 228 478 q 210 332 210 389 m 425 858 q 251 928 315 858 q 181 1124 186 999 q 190 1152 179 1140 q 228 1164 201 1164 q 264 1153 254 1164 q 278 1124 274 1142 q 326 1021 290 1061 q 425 981 361 981 q 525 1021 490 981 q 572 1124 560 1061 q 585 1153 576 1143 q 621 1164 594 1164 q 660 1152 647 1164 q 669 1124 672 1140 q 635 985 667 1044 q 549 892 603 925 q 425 858 494 858 z "},"ǎ":{"ha":867,"x_min":88,"x_max":867,"o":"m 358 -24 q 218 15 279 -24 q 122 131 157 53 q 88 326 88 208 q 101 460 88 399 q 140 569 114 521 q 204 651 167 618 q 290 703 242 685 q 397 721 339 721 q 489 706 442 721 q 578 668 536 692 l 578 675 q 593 706 578 696 q 639 715 608 715 q 684 706 669 715 q 699 678 699 697 l 699 133 q 704 103 699 115 q 719 86 710 92 q 742 81 729 81 q 765 84 756 81 q 783 94 774 88 q 804 111 792 101 q 826 116 814 119 q 851 101 839 113 q 865 72 864 88 q 860 46 867 57 q 821 8 844 24 q 770 -15 797 -7 q 715 -24 743 -24 q 660 -17 683 -24 q 619 5 636 -10 q 594 40 603 19 q 581 88 585 61 q 579 94 581 89 q 578 104 578 99 q 509 25 546 53 q 433 -13 472 -3 q 358 -24 394 -24 m 210 332 q 228 201 210 256 q 283 117 246 146 q 375 88 319 88 q 452 101 415 88 q 521 147 489 115 q 578 231 553 179 l 578 567 q 494 602 535 593 q 410 611 454 611 q 343 600 374 611 q 288 567 313 589 q 245 511 263 544 q 219 433 228 478 q 210 332 210 389 m 624 1174 q 654 1158 636 1174 q 672 1126 672 1142 q 671 1119 672 1124 q 663 1104 669 1114 l 486 883 q 465 865 478 875 q 425 856 453 856 q 386 865 399 856 q 367 883 374 875 l 188 1104 q 181 1119 182 1114 q 179 1126 179 1124 q 197 1158 179 1142 q 228 1174 214 1174 q 244 1169 236 1174 q 263 1157 253 1164 l 425 994 l 589 1157 q 606 1169 597 1164 q 624 1174 614 1174 z "},"â":{"ha":867,"x_min":88,"x_max":867,"o":"m 358 -24 q 218 15 279 -24 q 122 131 157 53 q 88 326 88 208 q 101 460 88 399 q 140 569 114 521 q 204 651 167 618 q 290 703 242 685 q 397 721 339 721 q 489 706 442 721 q 578 668 536 692 l 578 675 q 593 706 578 696 q 639 715 608 715 q 684 706 669 715 q 699 678 699 697 l 699 133 q 704 103 699 115 q 719 86 710 92 q 742 81 729 81 q 765 84 756 81 q 783 94 774 88 q 804 111 792 101 q 826 116 814 119 q 851 101 839 113 q 865 72 864 88 q 860 46 867 57 q 821 8 844 24 q 770 -15 797 -7 q 715 -24 743 -24 q 660 -17 683 -24 q 619 5 636 -10 q 594 40 603 19 q 581 88 585 61 q 579 94 581 89 q 578 104 578 99 q 509 25 546 53 q 433 -13 472 -3 q 358 -24 394 -24 m 210 332 q 228 201 210 256 q 283 117 246 146 q 375 88 319 88 q 452 101 415 88 q 521 147 489 115 q 578 231 553 179 l 578 567 q 494 602 535 593 q 410 611 454 611 q 343 600 374 611 q 288 567 313 589 q 245 511 263 544 q 219 433 228 478 q 210 332 210 389 m 228 847 q 197 864 214 847 q 179 894 179 881 q 181 903 179 899 q 188 917 182 907 l 364 1138 q 385 1156 372 1147 q 425 1165 399 1165 q 464 1156 451 1165 q 485 1138 476 1147 l 663 917 q 671 903 669 907 q 672 894 672 899 q 654 864 672 881 q 624 847 636 847 q 606 852 614 847 q 589 865 597 857 l 425 1026 l 263 865 q 244 852 253 857 q 228 847 236 847 z "},"ä":{"ha":867,"x_min":88,"x_max":867,"o":"m 358 -24 q 218 15 279 -24 q 122 131 157 53 q 88 326 88 208 q 101 460 88 399 q 140 569 114 521 q 204 651 167 618 q 290 703 242 685 q 397 721 339 721 q 489 706 442 721 q 578 668 536 692 l 578 675 q 593 706 578 696 q 639 715 608 715 q 684 706 669 715 q 699 678 699 697 l 699 133 q 704 103 699 115 q 719 86 710 92 q 742 81 729 81 q 765 84 756 81 q 783 94 774 88 q 804 111 792 101 q 826 116 814 119 q 851 101 839 113 q 865 72 864 88 q 860 46 867 57 q 821 8 844 24 q 770 -15 797 -7 q 715 -24 743 -24 q 660 -17 683 -24 q 619 5 636 -10 q 594 40 603 19 q 581 88 585 61 q 579 94 581 89 q 578 104 578 99 q 509 25 546 53 q 433 -13 472 -3 q 358 -24 394 -24 m 210 332 q 228 201 210 256 q 283 117 246 146 q 375 88 319 88 q 452 101 415 88 q 521 147 489 115 q 578 231 553 179 l 578 567 q 494 602 535 593 q 410 611 454 611 q 343 600 374 611 q 288 567 313 589 q 245 511 263 544 q 219 433 228 478 q 210 332 210 389 m 265 929 q 207 951 226 929 q 188 1015 188 972 q 207 1082 188 1060 q 265 1104 226 1104 q 323 1082 304 1104 q 342 1015 342 1060 q 324 951 344 972 q 265 929 304 929 m 586 929 q 528 951 547 929 q 508 1015 508 972 q 528 1082 508 1060 q 586 1104 547 1104 q 643 1082 624 1104 q 663 1015 663 1060 q 644 951 664 972 q 586 929 624 929 z "},"ǽ":{"ha":1240,"x_min":88,"x_max":1204,"o":"m 88 297 q 104 428 88 365 q 153 544 121 490 q 233 637 186 597 q 343 699 281 676 q 481 721 406 721 q 597 711 544 721 q 699 685 650 701 q 799 647 747 668 q 742 490 763 569 q 721 331 721 411 q 745 203 721 258 q 815 116 769 147 q 921 85 860 85 q 992 95 963 85 q 1049 127 1022 106 q 1103 179 1075 149 q 1140 201 1122 201 q 1178 185 1158 200 q 1201 152 1197 169 q 1192 117 1204 135 q 1108 33 1151 64 q 1017 -12 1064 1 q 917 -26 969 -26 q 749 18 819 -26 q 640 141 678 63 q 601 318 601 219 q 612 447 601 389 q 638 554 622 506 q 671 640 654 603 l 719 546 q 601 592 656 574 q 476 610 547 610 q 367 587 417 610 q 283 522 318 564 q 228 425 247 481 q 210 303 210 369 q 225 181 210 229 q 270 110 240 133 q 340 88 300 88 q 420 110 382 88 q 493 184 458 133 q 562 319 528 235 q 629 525 596 403 l 721 511 q 643 262 683 364 q 556 97 603 160 q 453 5 508 33 q 332 -24 399 -24 q 153 60 218 -24 q 88 297 88 143 m 1175 536 q 1151 433 1175 478 q 1083 356 1128 388 q 977 303 1039 324 q 840 272 915 282 q 678 263 764 263 l 678 361 q 789 367 735 361 q 891 387 843 374 q 975 420 939 400 q 1032 467 1011 440 q 1053 526 1053 493 q 1022 590 1053 571 q 943 610 992 610 q 833 593 886 610 q 736 543 781 576 l 707 650 q 815 702 761 683 q 950 721 869 721 q 1113 675 1050 721 q 1175 536 1175 629 m 660 847 q 624 864 644 847 q 603 894 603 881 q 604 903 603 899 q 611 917 606 907 l 760 1144 q 774 1160 767 1156 q 793 1165 782 1165 q 826 1155 807 1165 q 859 1130 844 1144 q 874 1103 874 1115 q 870 1087 874 1093 q 857 1069 867 1081 l 686 865 q 660 847 669 847 z "},"à":{"ha":867,"x_min":88,"x_max":867,"o":"m 358 -24 q 218 15 279 -24 q 122 131 157 53 q 88 326 88 208 q 101 460 88 399 q 140 569 114 521 q 204 651 167 618 q 290 703 242 685 q 397 721 339 721 q 489 706 442 721 q 578 668 536 692 l 578 675 q 593 706 578 696 q 639 715 608 715 q 684 706 669 715 q 699 678 699 697 l 699 133 q 704 103 699 115 q 719 86 710 92 q 742 81 729 81 q 765 84 756 81 q 783 94 774 88 q 804 111 792 101 q 826 116 814 119 q 851 101 839 113 q 865 72 864 88 q 860 46 867 57 q 821 8 844 24 q 770 -15 797 -7 q 715 -24 743 -24 q 660 -17 683 -24 q 619 5 636 -10 q 594 40 603 19 q 581 88 585 61 q 579 94 581 89 q 578 104 578 99 q 509 25 546 53 q 433 -13 472 -3 q 358 -24 394 -24 m 210 332 q 228 201 210 256 q 283 117 246 146 q 375 88 319 88 q 452 101 415 88 q 521 147 489 115 q 578 231 553 179 l 578 567 q 494 602 535 593 q 410 611 454 611 q 343 600 374 611 q 288 567 313 589 q 245 511 263 544 q 219 433 228 478 q 210 332 210 389 m 467 847 q 455 851 461 847 q 440 865 449 856 l 269 1069 q 256 1087 260 1081 q 253 1103 253 1093 q 267 1130 253 1115 q 301 1155 282 1144 q 333 1165 319 1165 q 367 1144 353 1165 l 515 917 q 523 903 522 907 q 524 894 524 899 q 503 864 524 881 q 467 847 482 847 z "},"ā":{"ha":867,"x_min":88,"x_max":867,"o":"m 358 -24 q 218 15 279 -24 q 122 131 157 53 q 88 326 88 208 q 101 460 88 399 q 140 569 114 521 q 204 651 167 618 q 290 703 242 685 q 397 721 339 721 q 489 706 442 721 q 578 668 536 692 l 578 675 q 593 706 578 696 q 639 715 608 715 q 684 706 669 715 q 699 678 699 697 l 699 133 q 704 103 699 115 q 719 86 710 92 q 742 81 729 81 q 765 84 756 81 q 783 94 774 88 q 804 111 792 101 q 826 116 814 119 q 851 101 839 113 q 865 72 864 88 q 860 46 867 57 q 821 8 844 24 q 770 -15 797 -7 q 715 -24 743 -24 q 660 -17 683 -24 q 619 5 636 -10 q 594 40 603 19 q 581 88 585 61 q 579 94 581 89 q 578 104 578 99 q 509 25 546 53 q 433 -13 472 -3 q 358 -24 394 -24 m 210 332 q 228 201 210 256 q 283 117 246 146 q 375 88 319 88 q 452 101 415 88 q 521 147 489 115 q 578 231 553 179 l 578 567 q 494 602 535 593 q 410 611 454 611 q 343 600 374 611 q 288 567 313 589 q 245 511 263 544 q 219 433 228 478 q 210 332 210 389 m 239 953 q 208 969 215 953 q 201 1011 201 986 q 208 1054 201 1038 q 239 1071 215 1071 l 611 1071 q 642 1054 636 1071 q 649 1011 649 1038 q 642 969 649 986 q 611 953 636 953 l 239 953 z "},"ą":{"ha":867,"x_min":88,"x_max":867,"o":"m 358 -24 q 218 15 279 -24 q 122 131 157 53 q 88 326 88 208 q 101 460 88 399 q 140 569 114 521 q 204 651 167 618 q 290 703 242 685 q 397 721 339 721 q 489 706 442 721 q 578 668 536 692 l 578 675 q 593 706 578 696 q 639 715 608 715 q 684 706 669 715 q 699 678 699 697 l 699 133 q 704 103 699 115 q 719 86 710 92 q 742 81 729 81 q 765 84 756 81 q 783 94 774 88 q 804 111 792 101 q 826 116 814 119 q 851 101 839 113 q 865 72 864 88 q 860 46 867 57 q 821 8 844 24 q 770 -15 797 -7 q 715 -24 743 -24 q 660 -17 683 -24 q 619 5 636 -10 q 594 40 603 19 q 581 88 585 61 q 579 94 581 89 q 578 104 578 99 q 509 25 546 53 q 433 -13 472 -3 q 358 -24 394 -24 m 210 332 q 228 201 210 256 q 283 117 246 146 q 375 88 319 88 q 452 101 415 88 q 521 147 489 115 q 578 231 553 179 l 578 567 q 494 602 535 593 q 410 611 454 611 q 343 600 374 611 q 288 567 313 589 q 245 511 263 544 q 219 433 228 478 q 210 332 210 389 m 682 -357 q 588 -326 628 -357 q 549 -236 549 -296 q 561 -167 549 -199 q 598 -104 574 -135 q 658 -42 622 -74 q 740 26 693 -10 l 826 28 l 826 15 q 765 -37 794 -11 q 710 -90 735 -64 q 672 -143 686 -117 q 657 -196 657 -169 q 670 -238 657 -225 q 706 -251 683 -251 q 743 -243 726 -251 q 786 -214 760 -235 q 810 -206 796 -207 q 838 -218 824 -206 q 855 -250 851 -232 q 851 -279 858 -268 q 805 -321 835 -303 q 742 -348 775 -339 q 682 -357 710 -357 z "},"å":{"ha":867,"x_min":88,"x_max":867,"o":"m 358 -24 q 218 15 279 -24 q 122 131 157 53 q 88 326 88 208 q 101 460 88 399 q 140 569 114 521 q 204 651 167 618 q 290 703 242 685 q 397 721 339 721 q 489 706 442 721 q 578 668 536 692 l 578 675 q 593 706 578 696 q 639 715 608 715 q 684 706 669 715 q 699 678 699 697 l 699 133 q 704 103 699 115 q 719 86 710 92 q 742 81 729 81 q 765 84 756 81 q 783 94 774 88 q 804 111 792 101 q 826 116 814 119 q 851 101 839 113 q 865 72 864 88 q 860 46 867 57 q 821 8 844 24 q 770 -15 797 -7 q 715 -24 743 -24 q 660 -17 683 -24 q 619 5 636 -10 q 594 40 603 19 q 581 88 585 61 q 579 94 581 89 q 578 104 578 99 q 509 25 546 53 q 433 -13 472 -3 q 358 -24 394 -24 m 210 332 q 228 201 210 256 q 283 117 246 146 q 375 88 319 88 q 452 101 415 88 q 521 147 489 115 q 578 231 553 179 l 578 567 q 494 602 535 593 q 410 611 454 611 q 343 600 374 611 q 288 567 313 589 q 245 511 263 544 q 219 433 228 478 q 210 332 210 389 m 425 835 q 288 885 340 835 q 236 1015 236 935 q 260 1110 236 1069 q 326 1172 283 1150 q 425 1194 369 1194 q 562 1146 510 1194 q 614 1015 614 1097 q 590 921 614 961 q 524 858 567 881 q 425 835 482 835 m 425 918 q 474 931 454 918 q 505 965 494 943 q 515 1015 515 986 q 492 1085 515 1060 q 425 1111 468 1111 q 376 1099 397 1111 q 345 1066 356 1088 q 335 1015 335 1044 q 358 945 335 972 q 425 918 382 918 z "},"ã":{"ha":867,"x_min":88,"x_max":867,"o":"m 358 -24 q 218 15 279 -24 q 122 131 157 53 q 88 326 88 208 q 101 460 88 399 q 140 569 114 521 q 204 651 167 618 q 290 703 242 685 q 397 721 339 721 q 489 706 442 721 q 578 668 536 692 l 578 675 q 593 706 578 696 q 639 715 608 715 q 684 706 669 715 q 699 678 699 697 l 699 133 q 704 103 699 115 q 719 86 710 92 q 742 81 729 81 q 765 84 756 81 q 783 94 774 88 q 804 111 792 101 q 826 116 814 119 q 851 101 839 113 q 865 72 864 88 q 860 46 867 57 q 821 8 844 24 q 770 -15 797 -7 q 715 -24 743 -24 q 660 -17 683 -24 q 619 5 636 -10 q 594 40 603 19 q 581 88 585 61 q 579 94 581 89 q 578 104 578 99 q 509 25 546 53 q 433 -13 472 -3 q 358 -24 394 -24 m 210 332 q 228 201 210 256 q 283 117 246 146 q 375 88 319 88 q 452 101 415 88 q 521 147 489 115 q 578 231 553 179 l 578 567 q 494 602 535 593 q 410 611 454 611 q 343 600 374 611 q 288 567 313 589 q 245 511 263 544 q 219 433 228 478 q 210 332 210 389 m 215 889 q 168 925 168 889 q 210 1069 169 1026 q 314 1113 250 1113 q 387 1097 356 1113 q 443 1060 418 1081 q 490 1024 468 1040 q 535 1008 513 1008 q 565 1028 553 1008 q 578 1085 576 1049 q 625 1115 581 1115 q 664 1106 653 1115 q 675 1076 675 1096 q 640 941 674 992 q 526 890 606 890 q 454 906 486 890 q 397 944 422 922 q 349 981 371 965 q 307 997 328 997 q 279 979 290 997 q 265 925 268 961 q 251 898 264 907 q 215 889 239 889 z "},"ắ":{"ha":867,"x_min":88,"x_max":867,"o":"m 358 -24 q 218 15 279 -24 q 122 131 157 53 q 88 326 88 208 q 101 460 88 399 q 140 569 114 521 q 204 651 167 618 q 290 703 242 685 q 397 721 339 721 q 489 706 442 721 q 578 668 536 692 l 578 675 q 593 706 578 696 q 639 715 608 715 q 684 706 669 715 q 699 678 699 697 l 699 133 q 704 103 699 115 q 719 86 710 92 q 742 81 729 81 q 765 84 756 81 q 783 94 774 88 q 804 111 792 101 q 826 116 814 119 q 851 101 839 113 q 865 72 864 88 q 860 46 867 57 q 821 8 844 24 q 770 -15 797 -7 q 715 -24 743 -24 q 660 -17 683 -24 q 619 5 636 -10 q 594 40 603 19 q 581 88 585 61 q 579 94 581 89 q 578 104 578 99 q 509 25 546 53 q 433 -13 472 -3 q 358 -24 394 -24 m 210 332 q 228 201 210 256 q 283 117 246 146 q 375 88 319 88 q 452 101 415 88 q 521 147 489 115 q 578 231 553 179 l 578 567 q 494 602 535 593 q 410 611 454 611 q 343 600 374 611 q 288 567 313 589 q 245 511 263 544 q 219 433 228 478 q 210 332 210 389 m 425 858 q 251 928 315 858 q 181 1124 186 999 q 190 1152 179 1140 q 228 1164 201 1164 q 264 1153 254 1164 q 278 1124 274 1142 q 326 1021 290 1061 q 425 981 361 981 q 525 1021 490 981 q 572 1124 560 1061 q 585 1153 576 1143 q 621 1164 594 1164 q 660 1152 647 1164 q 669 1124 672 1140 q 635 985 667 1044 q 549 892 603 925 q 425 858 494 858 m 386 1161 q 350 1178 371 1161 q 329 1208 329 1194 q 331 1217 329 1213 q 338 1231 332 1221 l 486 1458 q 501 1474 493 1469 q 519 1479 508 1479 q 552 1469 533 1479 q 585 1444 571 1458 q 600 1417 600 1429 q 597 1401 600 1407 q 583 1383 593 1394 l 413 1179 q 386 1161 396 1161 z "},"ặ":{"ha":867,"x_min":88,"x_max":867,"o":"m 358 -24 q 218 15 279 -24 q 122 131 157 53 q 88 326 88 208 q 101 460 88 399 q 140 569 114 521 q 204 651 167 618 q 290 703 242 685 q 397 721 339 721 q 489 706 442 721 q 578 668 536 692 l 578 675 q 593 706 578 696 q 639 715 608 715 q 684 706 669 715 q 699 678 699 697 l 699 133 q 704 103 699 115 q 719 86 710 92 q 742 81 729 81 q 765 84 756 81 q 783 94 774 88 q 804 111 792 101 q 826 116 814 119 q 851 101 839 113 q 865 72 864 88 q 860 46 867 57 q 821 8 844 24 q 770 -15 797 -7 q 715 -24 743 -24 q 660 -17 683 -24 q 619 5 636 -10 q 594 40 603 19 q 581 88 585 61 q 579 94 581 89 q 578 104 578 99 q 509 25 546 53 q 433 -13 472 -3 q 358 -24 394 -24 m 210 332 q 228 201 210 256 q 283 117 246 146 q 375 88 319 88 q 452 101 415 88 q 521 147 489 115 q 578 231 553 179 l 578 567 q 494 602 535 593 q 410 611 454 611 q 343 600 374 611 q 288 567 313 589 q 245 511 263 544 q 219 433 228 478 q 210 332 210 389 m 389 -326 q 331 -305 350 -326 q 311 -239 311 -283 q 331 -173 311 -194 q 389 -151 350 -151 q 446 -173 426 -151 q 465 -239 465 -194 q 447 -305 467 -283 q 389 -326 426 -326 m 425 858 q 251 928 315 858 q 181 1124 186 999 q 190 1152 179 1140 q 228 1164 201 1164 q 264 1153 254 1164 q 278 1124 274 1142 q 326 1021 290 1061 q 425 981 361 981 q 525 1021 490 981 q 572 1124 560 1061 q 585 1153 576 1143 q 621 1164 594 1164 q 660 1152 647 1164 q 669 1124 672 1140 q 635 985 667 1044 q 549 892 603 925 q 425 858 494 858 z "},"ằ":{"ha":867,"x_min":88,"x_max":867,"o":"m 358 -24 q 218 15 279 -24 q 122 131 157 53 q 88 326 88 208 q 101 460 88 399 q 140 569 114 521 q 204 651 167 618 q 290 703 242 685 q 397 721 339 721 q 489 706 442 721 q 578 668 536 692 l 578 675 q 593 706 578 696 q 639 715 608 715 q 684 706 669 715 q 699 678 699 697 l 699 133 q 704 103 699 115 q 719 86 710 92 q 742 81 729 81 q 765 84 756 81 q 783 94 774 88 q 804 111 792 101 q 826 116 814 119 q 851 101 839 113 q 865 72 864 88 q 860 46 867 57 q 821 8 844 24 q 770 -15 797 -7 q 715 -24 743 -24 q 660 -17 683 -24 q 619 5 636 -10 q 594 40 603 19 q 581 88 585 61 q 579 94 581 89 q 578 104 578 99 q 509 25 546 53 q 433 -13 472 -3 q 358 -24 394 -24 m 210 332 q 228 201 210 256 q 283 117 246 146 q 375 88 319 88 q 452 101 415 88 q 521 147 489 115 q 578 231 553 179 l 578 567 q 494 602 535 593 q 410 611 454 611 q 343 600 374 611 q 288 567 313 589 q 245 511 263 544 q 219 433 228 478 q 210 332 210 389 m 425 858 q 251 928 315 858 q 181 1124 186 999 q 190 1152 179 1140 q 228 1164 201 1164 q 264 1153 254 1164 q 278 1124 274 1142 q 326 1021 290 1061 q 425 981 361 981 q 525 1021 490 981 q 572 1124 560 1061 q 585 1153 576 1143 q 621 1164 594 1164 q 660 1152 647 1164 q 669 1124 672 1140 q 635 985 667 1044 q 549 892 603 925 q 425 858 494 858 m 467 1160 q 455 1164 461 1160 q 440 1178 449 1168 l 269 1382 q 256 1399 260 1393 q 253 1415 253 1406 q 267 1442 253 1428 q 301 1467 282 1457 q 333 1478 319 1478 q 367 1457 353 1478 l 515 1229 q 523 1215 522 1219 q 524 1207 524 1211 q 503 1176 524 1193 q 467 1160 482 1160 z "},"ẳ":{"ha":867,"x_min":88,"x_max":867,"o":"m 358 -24 q 218 15 279 -24 q 122 131 157 53 q 88 326 88 208 q 101 460 88 399 q 140 569 114 521 q 204 651 167 618 q 290 703 242 685 q 397 721 339 721 q 489 706 442 721 q 578 668 536 692 l 578 675 q 593 706 578 696 q 639 715 608 715 q 684 706 669 715 q 699 678 699 697 l 699 133 q 704 103 699 115 q 719 86 710 92 q 742 81 729 81 q 765 84 756 81 q 783 94 774 88 q 804 111 792 101 q 826 116 814 119 q 851 101 839 113 q 865 72 864 88 q 860 46 867 57 q 821 8 844 24 q 770 -15 797 -7 q 715 -24 743 -24 q 660 -17 683 -24 q 619 5 636 -10 q 594 40 603 19 q 581 88 585 61 q 579 94 581 89 q 578 104 578 99 q 509 25 546 53 q 433 -13 472 -3 q 358 -24 394 -24 m 210 332 q 228 201 210 256 q 283 117 246 146 q 375 88 319 88 q 452 101 415 88 q 521 147 489 115 q 578 231 553 179 l 578 567 q 494 602 535 593 q 410 611 454 611 q 343 600 374 611 q 288 567 313 589 q 245 511 263 544 q 219 433 228 478 q 210 332 210 389 m 425 858 q 251 928 315 858 q 181 1124 186 999 q 190 1152 179 1140 q 228 1164 201 1164 q 264 1153 254 1164 q 278 1124 274 1142 q 326 1021 290 1061 q 425 981 361 981 q 525 1021 490 981 q 572 1124 560 1061 q 585 1153 576 1143 q 621 1164 594 1164 q 660 1152 647 1164 q 669 1124 672 1140 q 635 985 667 1044 q 549 892 603 925 q 425 858 494 858 m 431 1456 q 541 1422 500 1456 q 582 1336 582 1389 q 565 1272 582 1299 q 511 1218 547 1246 q 487 1192 493 1204 q 483 1168 481 1181 l 486 1151 q 477 1126 489 1138 q 447 1110 465 1115 q 413 1110 429 1106 q 390 1129 397 1114 l 375 1171 q 376 1235 363 1207 q 417 1281 390 1263 q 444 1307 438 1296 q 451 1328 451 1318 q 439 1348 451 1340 q 408 1356 426 1356 q 369 1349 390 1356 q 335 1335 347 1342 q 302 1329 317 1322 q 276 1357 288 1336 q 285 1411 258 1389 q 349 1443 311 1431 q 431 1456 388 1456 z "},"ẵ":{"ha":867,"x_min":88,"x_max":867,"o":"m 358 -24 q 218 15 279 -24 q 122 131 157 53 q 88 326 88 208 q 101 460 88 399 q 140 569 114 521 q 204 651 167 618 q 290 703 242 685 q 397 721 339 721 q 489 706 442 721 q 578 668 536 692 l 578 675 q 593 706 578 696 q 639 715 608 715 q 684 706 669 715 q 699 678 699 697 l 699 133 q 704 103 699 115 q 719 86 710 92 q 742 81 729 81 q 765 84 756 81 q 783 94 774 88 q 804 111 792 101 q 826 116 814 119 q 851 101 839 113 q 865 72 864 88 q 860 46 867 57 q 821 8 844 24 q 770 -15 797 -7 q 715 -24 743 -24 q 660 -17 683 -24 q 619 5 636 -10 q 594 40 603 19 q 581 88 585 61 q 579 94 581 89 q 578 104 578 99 q 509 25 546 53 q 433 -13 472 -3 q 358 -24 394 -24 m 210 332 q 228 201 210 256 q 283 117 246 146 q 375 88 319 88 q 452 101 415 88 q 521 147 489 115 q 578 231 553 179 l 578 567 q 494 602 535 593 q 410 611 454 611 q 343 600 374 611 q 288 567 313 589 q 245 511 263 544 q 219 433 228 478 q 210 332 210 389 m 425 858 q 251 928 315 858 q 181 1124 186 999 q 190 1152 179 1140 q 228 1164 201 1164 q 264 1153 254 1164 q 278 1124 274 1142 q 326 1021 290 1061 q 425 981 361 981 q 525 1021 490 981 q 572 1124 560 1061 q 585 1153 576 1143 q 621 1164 594 1164 q 660 1152 647 1164 q 669 1124 672 1140 q 635 985 667 1044 q 549 892 603 925 q 425 858 494 858 m 215 1219 q 168 1256 168 1219 q 210 1400 169 1357 q 314 1443 250 1443 q 387 1427 356 1443 q 443 1391 418 1411 q 490 1355 468 1371 q 535 1339 513 1339 q 565 1359 553 1339 q 578 1415 576 1379 q 625 1446 581 1446 q 664 1436 653 1446 q 675 1407 675 1426 q 640 1272 674 1322 q 526 1221 606 1221 q 454 1237 486 1221 q 397 1274 422 1253 q 349 1312 371 1296 q 307 1328 328 1328 q 279 1310 290 1328 q 265 1256 268 1292 q 251 1228 264 1238 q 215 1219 239 1219 z "},"ấ":{"ha":867,"x_min":88,"x_max":867,"o":"m 358 -24 q 218 15 279 -24 q 122 131 157 53 q 88 326 88 208 q 101 460 88 399 q 140 569 114 521 q 204 651 167 618 q 290 703 242 685 q 397 721 339 721 q 489 706 442 721 q 578 668 536 692 l 578 675 q 593 706 578 696 q 639 715 608 715 q 684 706 669 715 q 699 678 699 697 l 699 133 q 704 103 699 115 q 719 86 710 92 q 742 81 729 81 q 765 84 756 81 q 783 94 774 88 q 804 111 792 101 q 826 116 814 119 q 851 101 839 113 q 865 72 864 88 q 860 46 867 57 q 821 8 844 24 q 770 -15 797 -7 q 715 -24 743 -24 q 660 -17 683 -24 q 619 5 636 -10 q 594 40 603 19 q 581 88 585 61 q 579 94 581 89 q 578 104 578 99 q 509 25 546 53 q 433 -13 472 -3 q 358 -24 394 -24 m 210 332 q 228 201 210 256 q 283 117 246 146 q 375 88 319 88 q 452 101 415 88 q 521 147 489 115 q 578 231 553 179 l 578 567 q 494 602 535 593 q 410 611 454 611 q 343 600 374 611 q 288 567 313 589 q 245 511 263 544 q 219 433 228 478 q 210 332 210 389 m 228 847 q 197 864 214 847 q 179 894 179 881 q 181 903 179 899 q 188 917 182 907 l 364 1138 q 385 1156 372 1147 q 425 1165 399 1165 q 464 1156 451 1165 q 485 1138 476 1147 l 663 917 q 671 903 669 907 q 672 894 672 899 q 654 864 672 881 q 624 847 636 847 q 606 852 614 847 q 589 865 597 857 l 425 1026 l 263 865 q 244 852 253 857 q 228 847 236 847 m 636 1056 q 600 1072 621 1056 q 579 1103 579 1089 q 581 1111 579 1107 q 588 1125 582 1115 l 736 1353 q 751 1369 743 1364 q 769 1374 758 1374 q 802 1363 783 1374 q 835 1338 821 1353 q 850 1311 850 1324 q 847 1295 850 1301 q 833 1278 843 1289 l 663 1074 q 636 1056 646 1056 z "},"ậ":{"ha":867,"x_min":88,"x_max":867,"o":"m 358 -24 q 218 15 279 -24 q 122 131 157 53 q 88 326 88 208 q 101 460 88 399 q 140 569 114 521 q 204 651 167 618 q 290 703 242 685 q 397 721 339 721 q 489 706 442 721 q 578 668 536 692 l 578 675 q 593 706 578 696 q 639 715 608 715 q 684 706 669 715 q 699 678 699 697 l 699 133 q 704 103 699 115 q 719 86 710 92 q 742 81 729 81 q 765 84 756 81 q 783 94 774 88 q 804 111 792 101 q 826 116 814 119 q 851 101 839 113 q 865 72 864 88 q 860 46 867 57 q 821 8 844 24 q 770 -15 797 -7 q 715 -24 743 -24 q 660 -17 683 -24 q 619 5 636 -10 q 594 40 603 19 q 581 88 585 61 q 579 94 581 89 q 578 104 578 99 q 509 25 546 53 q 433 -13 472 -3 q 358 -24 394 -24 m 210 332 q 228 201 210 256 q 283 117 246 146 q 375 88 319 88 q 452 101 415 88 q 521 147 489 115 q 578 231 553 179 l 578 567 q 494 602 535 593 q 410 611 454 611 q 343 600 374 611 q 288 567 313 589 q 245 511 263 544 q 219 433 228 478 q 210 332 210 389 m 389 -326 q 331 -305 350 -326 q 311 -239 311 -283 q 331 -173 311 -194 q 389 -151 350 -151 q 446 -173 426 -151 q 465 -239 465 -194 q 447 -305 467 -283 q 389 -326 426 -326 m 228 847 q 197 864 214 847 q 179 894 179 881 q 181 903 179 899 q 188 917 182 907 l 364 1138 q 385 1156 372 1147 q 425 1165 399 1165 q 464 1156 451 1165 q 485 1138 476 1147 l 663 917 q 671 903 669 907 q 672 894 672 899 q 654 864 672 881 q 624 847 636 847 q 606 852 614 847 q 589 865 597 857 l 425 1026 l 263 865 q 244 852 253 857 q 228 847 236 847 z "},"ầ":{"ha":867,"x_min":88,"x_max":867,"o":"m 358 -24 q 218 15 279 -24 q 122 131 157 53 q 88 326 88 208 q 101 460 88 399 q 140 569 114 521 q 204 651 167 618 q 290 703 242 685 q 397 721 339 721 q 489 706 442 721 q 578 668 536 692 l 578 675 q 593 706 578 696 q 639 715 608 715 q 684 706 669 715 q 699 678 699 697 l 699 133 q 704 103 699 115 q 719 86 710 92 q 742 81 729 81 q 765 84 756 81 q 783 94 774 88 q 804 111 792 101 q 826 116 814 119 q 851 101 839 113 q 865 72 864 88 q 860 46 867 57 q 821 8 844 24 q 770 -15 797 -7 q 715 -24 743 -24 q 660 -17 683 -24 q 619 5 636 -10 q 594 40 603 19 q 581 88 585 61 q 579 94 581 89 q 578 104 578 99 q 509 25 546 53 q 433 -13 472 -3 q 358 -24 394 -24 m 210 332 q 228 201 210 256 q 283 117 246 146 q 375 88 319 88 q 452 101 415 88 q 521 147 489 115 q 578 231 553 179 l 578 567 q 494 602 535 593 q 410 611 454 611 q 343 600 374 611 q 288 567 313 589 q 245 511 263 544 q 219 433 228 478 q 210 332 210 389 m 228 847 q 197 864 214 847 q 179 894 179 881 q 181 903 179 899 q 188 917 182 907 l 364 1138 q 385 1156 372 1147 q 425 1165 399 1165 q 464 1156 451 1165 q 485 1138 476 1147 l 663 917 q 671 903 669 907 q 672 894 672 899 q 654 864 672 881 q 624 847 636 847 q 606 852 614 847 q 589 865 597 857 l 425 1026 l 263 865 q 244 852 253 857 q 228 847 236 847 m 688 1056 q 676 1060 682 1056 q 661 1074 669 1064 l 490 1278 q 477 1295 481 1289 q 474 1311 474 1301 q 488 1338 474 1324 q 522 1363 503 1353 q 554 1374 540 1374 q 588 1353 574 1374 l 736 1125 q 744 1111 743 1115 q 744 1103 744 1107 q 724 1072 744 1089 q 688 1056 703 1056 z "},"ẩ":{"ha":867,"x_min":88,"x_max":867,"o":"m 358 -24 q 218 15 279 -24 q 122 131 157 53 q 88 326 88 208 q 101 460 88 399 q 140 569 114 521 q 204 651 167 618 q 290 703 242 685 q 397 721 339 721 q 489 706 442 721 q 578 668 536 692 l 578 675 q 593 706 578 696 q 639 715 608 715 q 684 706 669 715 q 699 678 699 697 l 699 133 q 704 103 699 115 q 719 86 710 92 q 742 81 729 81 q 765 84 756 81 q 783 94 774 88 q 804 111 792 101 q 826 116 814 119 q 851 101 839 113 q 865 72 864 88 q 860 46 867 57 q 821 8 844 24 q 770 -15 797 -7 q 715 -24 743 -24 q 660 -17 683 -24 q 619 5 636 -10 q 594 40 603 19 q 581 88 585 61 q 579 94 581 89 q 578 104 578 99 q 509 25 546 53 q 433 -13 472 -3 q 358 -24 394 -24 m 210 332 q 228 201 210 256 q 283 117 246 146 q 375 88 319 88 q 452 101 415 88 q 521 147 489 115 q 578 231 553 179 l 578 567 q 494 602 535 593 q 410 611 454 611 q 343 600 374 611 q 288 567 313 589 q 245 511 263 544 q 219 433 228 478 q 210 332 210 389 m 228 847 q 197 864 214 847 q 179 894 179 881 q 181 903 179 899 q 188 917 182 907 l 364 1138 q 385 1156 372 1147 q 425 1165 399 1165 q 464 1156 451 1165 q 485 1138 476 1147 l 663 917 q 671 903 669 907 q 672 894 672 899 q 654 864 672 881 q 624 847 636 847 q 606 852 614 847 q 589 865 597 857 l 425 1026 l 263 865 q 244 852 253 857 q 228 847 236 847 m 658 1390 q 769 1357 728 1390 q 810 1271 810 1324 q 792 1207 810 1233 q 739 1153 775 1181 q 715 1127 721 1139 q 711 1103 708 1115 l 714 1086 q 705 1061 717 1072 q 675 1045 693 1050 q 641 1044 657 1040 q 618 1064 625 1049 l 603 1106 q 604 1169 590 1142 q 644 1215 618 1197 q 672 1242 665 1231 q 679 1263 679 1253 q 667 1283 679 1275 q 636 1290 654 1290 q 597 1283 618 1290 q 563 1269 575 1276 q 530 1264 544 1257 q 504 1292 515 1271 q 513 1346 486 1324 q 577 1378 539 1365 q 658 1390 615 1390 z "},"ẫ":{"ha":867,"x_min":88,"x_max":867,"o":"m 358 -24 q 218 15 279 -24 q 122 131 157 53 q 88 326 88 208 q 101 460 88 399 q 140 569 114 521 q 204 651 167 618 q 290 703 242 685 q 397 721 339 721 q 489 706 442 721 q 578 668 536 692 l 578 675 q 593 706 578 696 q 639 715 608 715 q 684 706 669 715 q 699 678 699 697 l 699 133 q 704 103 699 115 q 719 86 710 92 q 742 81 729 81 q 765 84 756 81 q 783 94 774 88 q 804 111 792 101 q 826 116 814 119 q 851 101 839 113 q 865 72 864 88 q 860 46 867 57 q 821 8 844 24 q 770 -15 797 -7 q 715 -24 743 -24 q 660 -17 683 -24 q 619 5 636 -10 q 594 40 603 19 q 581 88 585 61 q 579 94 581 89 q 578 104 578 99 q 509 25 546 53 q 433 -13 472 -3 q 358 -24 394 -24 m 210 332 q 228 201 210 256 q 283 117 246 146 q 375 88 319 88 q 452 101 415 88 q 521 147 489 115 q 578 231 553 179 l 578 567 q 494 602 535 593 q 410 611 454 611 q 343 600 374 611 q 288 567 313 589 q 245 511 263 544 q 219 433 228 478 q 210 332 210 389 m 228 847 q 197 864 214 847 q 179 894 179 881 q 181 903 179 899 q 188 917 182 907 l 364 1138 q 385 1156 372 1147 q 425 1165 399 1165 q 464 1156 451 1165 q 485 1138 476 1147 l 663 917 q 671 903 669 907 q 672 894 672 899 q 654 864 672 881 q 624 847 636 847 q 606 852 614 847 q 589 865 597 857 l 425 1026 l 263 865 q 244 852 253 857 q 228 847 236 847 m 215 1219 q 168 1256 168 1219 q 210 1400 169 1357 q 314 1443 250 1443 q 387 1427 356 1443 q 443 1391 418 1411 q 490 1355 468 1371 q 535 1339 513 1339 q 565 1359 553 1339 q 578 1415 576 1379 q 625 1446 581 1446 q 664 1436 653 1446 q 675 1407 675 1426 q 640 1272 674 1322 q 526 1221 606 1221 q 454 1237 486 1221 q 397 1274 422 1253 q 349 1312 371 1296 q 307 1328 328 1328 q 279 1310 290 1328 q 265 1256 268 1292 q 251 1228 264 1238 q 215 1219 239 1219 z "},"ạ":{"ha":867,"x_min":88,"x_max":867,"o":"m 358 -24 q 218 15 279 -24 q 122 131 157 53 q 88 326 88 208 q 101 460 88 399 q 140 569 114 521 q 204 651 167 618 q 290 703 242 685 q 397 721 339 721 q 489 706 442 721 q 578 668 536 692 l 578 675 q 593 706 578 696 q 639 715 608 715 q 684 706 669 715 q 699 678 699 697 l 699 133 q 704 103 699 115 q 719 86 710 92 q 742 81 729 81 q 765 84 756 81 q 783 94 774 88 q 804 111 792 101 q 826 116 814 119 q 851 101 839 113 q 865 72 864 88 q 860 46 867 57 q 821 8 844 24 q 770 -15 797 -7 q 715 -24 743 -24 q 660 -17 683 -24 q 619 5 636 -10 q 594 40 603 19 q 581 88 585 61 q 579 94 581 89 q 578 104 578 99 q 509 25 546 53 q 433 -13 472 -3 q 358 -24 394 -24 m 210 332 q 228 201 210 256 q 283 117 246 146 q 375 88 319 88 q 452 101 415 88 q 521 147 489 115 q 578 231 553 179 l 578 567 q 494 602 535 593 q 410 611 454 611 q 343 600 374 611 q 288 567 313 589 q 245 511 263 544 q 219 433 228 478 q 210 332 210 389 m 389 -326 q 331 -305 350 -326 q 311 -239 311 -283 q 331 -173 311 -194 q 389 -151 350 -151 q 446 -173 426 -151 q 465 -239 465 -194 q 447 -305 467 -283 q 389 -326 426 -326 z "},"ả":{"ha":867,"x_min":88,"x_max":867,"o":"m 358 -24 q 218 15 279 -24 q 122 131 157 53 q 88 326 88 208 q 101 460 88 399 q 140 569 114 521 q 204 651 167 618 q 290 703 242 685 q 397 721 339 721 q 489 706 442 721 q 578 668 536 692 l 578 675 q 593 706 578 696 q 639 715 608 715 q 684 706 669 715 q 699 678 699 697 l 699 133 q 704 103 699 115 q 719 86 710 92 q 742 81 729 81 q 765 84 756 81 q 783 94 774 88 q 804 111 792 101 q 826 116 814 119 q 851 101 839 113 q 865 72 864 88 q 860 46 867 57 q 821 8 844 24 q 770 -15 797 -7 q 715 -24 743 -24 q 660 -17 683 -24 q 619 5 636 -10 q 594 40 603 19 q 581 88 585 61 q 579 94 581 89 q 578 104 578 99 q 509 25 546 53 q 433 -13 472 -3 q 358 -24 394 -24 m 210 332 q 228 201 210 256 q 283 117 246 146 q 375 88 319 88 q 452 101 415 88 q 521 147 489 115 q 578 231 553 179 l 578 567 q 494 602 535 593 q 410 611 454 611 q 343 600 374 611 q 288 567 313 589 q 245 511 263 544 q 219 433 228 478 q 210 332 210 389 m 431 1194 q 541 1161 500 1194 q 582 1075 582 1128 q 565 1011 582 1038 q 511 957 547 985 q 487 931 493 943 q 483 907 481 919 l 486 890 q 477 865 489 876 q 447 849 465 854 q 413 849 429 844 q 390 868 397 853 l 375 910 q 376 974 363 946 q 417 1019 390 1001 q 444 1046 438 1035 q 451 1067 451 1057 q 439 1087 451 1079 q 408 1094 426 1094 q 369 1088 390 1094 q 335 1074 347 1081 q 302 1068 317 1061 q 276 1096 288 1075 q 285 1150 258 1128 q 349 1182 311 1169 q 431 1194 388 1194 z "},"ć":{"ha":724,"x_min":85,"x_max":694,"o":"m 407 -26 q 241 15 314 -26 q 126 139 168 57 q 85 340 85 221 q 109 494 85 424 q 177 615 133 564 q 281 693 221 665 q 413 721 340 721 q 538 695 474 721 q 654 608 603 669 q 666 574 669 589 q 647 542 663 558 q 613 519 629 524 q 581 529 597 515 q 506 585 543 561 q 407 610 468 610 q 324 592 361 610 q 260 539 286 574 q 221 456 235 504 q 207 347 207 408 q 231 208 207 267 q 300 117 256 149 q 407 85 344 85 q 483 97 451 85 q 540 133 514 110 q 596 188 567 156 q 628 201 611 203 q 664 185 644 200 q 689 155 683 169 q 682 122 694 140 q 598 35 644 68 q 502 -12 551 3 q 407 -26 453 -26 m 364 847 q 328 864 349 847 q 307 894 307 881 q 308 903 307 899 q 315 917 310 907 l 464 1144 q 478 1160 471 1156 q 497 1165 486 1165 q 530 1155 511 1165 q 563 1130 549 1144 q 578 1103 578 1115 q 574 1087 578 1093 q 561 1069 571 1081 l 390 865 q 364 847 374 847 z "}}}
